<?xml version="1.0" encoding="iso-8859-1"?>
<!-- Generator: Adobe Illustrator 19.0.0, SVG Export Plug-In . SVG Version: 6.00 Build 0)  -->
<svg xmlns="http://www.w3.org/2000/svg" xmlns:xlink="http://www.w3.org/1999/xlink" version="1.1" id="Layer_1" x="0px" y="0px" viewBox="0 0 511.981 511.981" style="enable-background:new 0 0 511.981 511.981;" xml:space="preserve" width="512" height="512">
<g>
	<g>
		<path style="fill:#EFEDEE;" d="M447.511,408.046c-1.005,1.005-1.924,2.064-2.774,3.158L100.776,67.244    c1.094-0.85,2.153-1.769,3.158-2.774c13.035-13.035,13.035-34.168,0-47.203c-13.035-13.035-34.168-13.035-47.203,0    c-8.254,8.254-11.274,19.754-9.075,30.39c-10.636-2.199-22.136,0.821-30.39,9.075c-13.035,13.035-13.035,34.168,0,47.203    c13.035,13.035,34.168,13.035,47.203,0c1.005-1.005,1.924-2.064,2.774-3.158l343.961,343.961c-1.094,0.85-2.153,1.769-3.158,2.774    c-13.035,13.035-13.035,34.168,0,47.203c13.035,13.035,34.168,13.035,47.203,0c8.254-8.254,11.274-19.754,9.075-30.39    c10.636,2.199,22.136-0.821,30.39-9.075c13.035-13.035,13.035-34.168,0-47.203C481.68,395.012,460.546,395.012,447.511,408.046z"/>
		<path style="fill:#EFEDEE;" d="M64.47,408.046c1.005,1.005,1.924,2.064,2.774,3.158L411.205,67.244    c-1.094-0.85-2.153-1.769-3.158-2.774c-13.035-13.035-13.035-34.168,0-47.203c13.035-13.035,34.168-13.035,47.203,0    c8.254,8.254,11.274,19.754,9.075,30.39c10.636-2.199,22.136,0.821,30.39,9.075c13.035,13.035,13.035,34.168,0,47.203    c-13.035,13.035-34.168,13.035-47.203,0c-1.005-1.005-1.924-2.064-2.774-3.158L100.776,444.737    c1.094,0.85,2.153,1.769,3.158,2.774c13.035,13.035,13.035,34.168,0,47.203c-13.035,13.035-34.168,13.035-47.203,0    c-8.254-8.254-11.274-19.754-9.075-30.39c-10.636,2.199-22.136-0.821-30.39-9.075c-13.035-13.035-13.035-34.168,0-47.203    C30.301,395.012,51.435,395.012,64.47,408.046z"/>
		<path style="fill:#D2D2D2;" d="M413.049,111.055c-7.709-7.709-15.89-14.776-24.469-21.186L92.11,386.339    c2.848,1.804,5.79,3.533,8.845,5.17c2.44,1.308,3.956,3.746,3.956,6.361v7.212c0,10.058,2.445,19.793,7.025,28.496    l311.453-311.453C420.078,118.341,416.638,114.644,413.049,111.055z"/>
		<path style="fill:#D2D2D2;" d="M123.401,89.869c-8.58,6.41-16.76,13.477-24.469,21.186c-3.589,3.589-7.029,7.286-10.339,11.07    l311.453,311.453c4.58-8.702,7.025-18.438,7.025-28.496v-7.212c0-2.615,1.516-5.052,3.957-6.361    c3.055-1.638,5.996-3.367,8.844-5.17L123.401,89.869z"/>
		<path style="fill:#EFEDEE;" d="M255.99,75.999c-106.102,0-192.114,86.012-192.114,192.114c0,50.44,19.452,79.909,51.251,96.956    c12.124,6.499,19.783,19.045,19.783,32.801v7.212c0,16.494,12.932,30.436,29.419,30.888c17.106,0.469,31.121-13.258,31.121-30.258    c0,16.718,13.552,30.27,30.27,30.27c16.718,0,30.27-13.552,30.27-30.27c0,16.718,13.552,30.27,30.27,30.27    c16.718,0,30.27-13.552,30.27-30.27c0,17,14.015,30.727,31.121,30.258c16.488-0.452,29.419-14.394,29.419-30.888v-7.212    c0-13.757,7.658-26.302,19.783-32.801c31.799-17.046,51.251-46.515,51.251-96.956C448.104,162.011,362.092,75.999,255.99,75.999z"/>
	</g>
	<g>
		<path d="M150.009,306.027v22.203c0,4.142,3.358,7.5,7.5,7.5s7.5-3.358,7.5-7.5v-22.203c0-4.142-3.358-7.5-7.5-7.5    S150.009,301.885,150.009,306.027z"/>
		<path d="M354.491,335.73c4.142,0,7.5-3.358,7.5-7.5v-22.203c0-4.142-3.358-7.5-7.5-7.5s-7.5,3.358-7.5,7.5v22.203    C346.991,332.372,350.349,335.73,354.491,335.73z"/>
		<path d="M39.487,39.562c-10.399,0.343-20.124,4.554-27.514,11.944c-15.757,15.757-15.738,42.073-0.001,57.81    c14.855,14.854,39.387,15.884,55.38,2.245l32.416,32.416c-3.859,4.852-7.524,9.876-10.941,15.1    c-21.224,32.447-32.441,70.178-32.441,109.115c0,45.254,14.932,77.364,45.563,97.79l-34.596,34.596    c-7.384-6.297-16.665-9.728-26.475-9.729C18.592,390.848,0,409.475,0,431.726c0,10.918,4.252,21.184,11.973,28.905    c7.39,7.39,17.115,11.601,27.514,11.943c0.336,10.249,4.519,20.089,11.951,27.521c15.761,15.762,42.061,15.749,57.81,0    c15.151-15.151,15.899-39.335,2.243-55.379l20.82-20.819c6.346,11.382,18.229,19.275,31.823,19.648    c0.358,0.01,0.714,0.015,1.07,0.015c9.896,0,19.208-3.775,26.323-10.697c1.445-1.406,2.763-2.906,3.948-4.487    c6.894,9.211,17.891,15.184,30.255,15.184c12.374,0,23.377-5.981,30.27-15.204c6.893,9.222,17.896,15.204,30.27,15.204    c12.364,0,23.361-5.973,30.255-15.184c1.185,1.581,2.503,3.08,3.948,4.486c7.372,7.171,17.114,10.966,27.394,10.683    c13.594-0.373,25.477-8.266,31.823-19.648l20.82,20.819c-13.655,16.043-12.908,40.228,2.244,55.379    c15.748,15.747,42.082,15.728,57.81,0c7.433-7.432,11.615-17.272,11.951-27.521c10.398-0.343,20.124-4.553,27.514-11.943    c15.938-15.938,15.938-41.872,0-57.81c-7.721-7.721-17.986-11.973-28.905-11.973c-9.81,0-19.092,3.432-26.476,9.729    l-34.596-34.596c30.631-20.427,45.563-52.536,45.563-97.79c0-46.895-16.263-90.057-43.435-124.164l32.467-32.467    c7.383,6.296,16.666,9.729,26.476,9.729c10.919,0,21.184-4.252,28.905-11.973c15.938-15.938,15.938-41.872,0-57.81    c-7.39-7.39-17.115-11.601-27.514-11.943c-0.336-10.25-4.518-20.089-11.951-27.521c-7.721-7.721-17.986-11.973-28.905-11.973    c-10.918,0-21.184,4.252-28.904,11.973c-15.151,15.151-15.898,39.335-2.244,55.379l-34.375,34.375    C334.546,80.818,296.678,68.577,256,68.577c-17.173,0-34.249,2.194-50.754,6.521c-4.007,1.05-6.403,5.15-5.353,9.157    s5.151,6.403,9.157,5.353c15.264-4.001,31.061-6.03,46.95-6.03c101.796,0,184.614,82.817,184.614,184.614    c0,44.34-15.028,73.049-47.295,90.346c-14.643,7.85-23.739,22.951-23.739,39.412c0,3.672,0.28,7.439-0.324,11.078    c-1.786,10.781-10.879,19.225-21.801,19.524c-6.21,0.172-12.079-2.117-16.522-6.439c-4.445-4.325-6.893-10.122-6.893-16.322    c0-4.142-3.358-7.5-7.5-7.5s-7.5,3.358-7.5,7.5c0,12.556-10.215,22.77-22.77,22.77c-12.556,0-22.77-10.214-22.77-22.77    c0-4.142-3.358-7.5-7.5-7.5s-7.5,3.358-7.5,7.5c0,12.556-10.214,22.77-22.77,22.77s-22.77-10.214-22.77-22.77    c0-4.142-3.358-7.5-7.5-7.5s-7.5,3.358-7.5,7.5c0,6.2-2.448,11.997-6.894,16.322c-4.443,4.322-10.313,6.605-16.521,6.439    c-10.922-0.3-20.016-8.744-21.801-19.525c-1.098-6.668,0.129-13.5-1.26-20.155c-2.67-12.792-10.905-23.957-22.819-30.343    c-32.255-17.298-47.279-46.004-47.279-90.337c0-36.012,10.372-70.904,29.995-100.904c11.905-18.202,27.062-34.316,44.526-47.282    c10.333-7.672,21.438-14.269,33.126-19.658c3.764-1.729,5.414-6.182,3.685-9.946c-1.729-3.764-6.182-5.414-9.946-3.685    c-9.405,4.32-18.399,9.365-26.952,15.032L111.491,67.42c13.654-16.043,12.907-40.228-2.243-55.379    c-15.767-15.767-42.061-15.749-57.81,0C44.006,19.474,39.823,29.313,39.487,39.562z M416.518,72.625    c1.522-1.521,2.316-3.623,2.182-5.771c-0.231-3.69-2.992-5.261-5.34-7.609c-10.089-10.09-10.089-26.507,0-36.597    c9.977-9.978,26.629-9.968,36.597,0c6.178,6.178,8.807,14.988,7.033,23.567c-1.075,5.197,3.667,9.938,8.863,8.864    c8.482-1.756,17.443,0.906,23.569,7.033c10.089,10.09,10.089,26.507,0,36.597c-10.794,10.795-29.301,9.7-38.752-2.457    c-2.732-3.514-8.077-3.851-11.226-0.702l-37.004,37.004c-7.371-7.956-15.371-15.302-23.903-21.948L416.518,72.625z     M384.58,397.948c0-4.718,1.209-9.546,3.408-13.719c2.129-4.038,5.176-7.546,8.863-10.235c0,0,42.507,42.507,42.593,42.592    c3.15,3.15,8.499,2.807,11.225-0.7c0.708-0.911,1.414-1.715,2.156-2.458c4.888-4.888,11.386-7.58,18.298-7.58    c22.629,0,34.232,28.242,18.299,44.176c-6.11,6.11-15.113,8.784-23.568,7.033c-5.081-1.052-9.954,3.592-8.864,8.864    c1.774,8.58-0.854,17.39-7.033,23.568c-9.977,9.976-26.631,9.965-36.597,0c-10.09-10.09-10.09-26.507,0-36.597    c0.743-0.743,1.547-1.448,2.458-2.156c3.519-2.736,3.852-8.073,0.701-11.225l-32.011-32.011c0.003-0.046,0.001-0.091,0.004-0.137    C384.711,404.241,384.58,401.077,384.58,397.948z M127.493,407.501c0,0-31.991,31.991-32.011,32.011    c-3.146,3.146-2.809,8.497,0.7,11.225c0.911,0.708,1.715,1.414,2.458,2.156c10.089,10.089,10.089,26.507,0,36.597    c-9.976,9.976-26.631,9.965-36.597,0c-6.178-6.178-8.807-14.988-7.033-23.568c1.071-5.181-3.686-9.935-8.864-8.864    C30.328,460.331,15,447.863,15,431.726c0-14.111,11.78-25.878,25.878-25.878c6.912,0,13.41,2.692,18.298,7.579    c2.359,2.359,3.914,5.109,7.609,5.341c2.154,0.135,4.25-0.66,5.771-2.182l42.593-42.592c7.551,5.498,12.271,14.596,12.271,23.955    c0,3.131-0.134,6.289,0.069,9.415C127.492,407.41,127.49,407.455,127.493,407.501z M55.011,46.216    c-1.774-8.579,0.855-17.39,7.033-23.568c9.984-9.985,26.622-9.975,36.597-0.001c10.78,10.779,9.554,29.417-2.456,38.751    c-3.514,2.731-3.85,8.08-0.703,11.226l37.981,37.981c-0.358,0.279-0.71,0.567-1.066,0.848    c-8.111,6.398-15.736,13.44-22.759,21.018c-0.026,0.028-0.052,0.055-0.078,0.083c0,0-36.973-36.974-37.004-37.004    c-3.148-3.148-8.505-2.804-11.227,0.703c-4.883,6.292-12.483,10.035-20.452,10.035c-6.912,0-13.41-2.691-18.298-7.579    c-9.986-9.986-9.982-26.615-0.001-36.596c6.109-6.11,15.113-8.783,23.567-7.034C51.37,56.16,56.09,51.436,55.011,46.216z"/>
	</g>
</g>















</svg>
