<svg height="511pt" viewBox="1 -38 511.99976 511" width="511pt" xmlns="http://www.w3.org/2000/svg"><path d="m451.910156 48.785156c-47.925781-48.925781-123.691406-53.609375-177.855468-15.242187-10.839844 7.675781-25.273438 7.675781-36.109376 0-54.167968-38.367188-129.929687-33.683594-177.859374 15.242187-151.007813 154.148438 61.792968 310.785156 155.480468 368.574219 24.796875 15.296875 56.070313 15.296875 80.867188 0 93.683594-57.789063 306.484375-214.425781 155.476562-368.574219zm0 0" fill="#ff737d"/><path d="m316.605469 13.230469c-14.984375 4.222656-29.40625 11-42.550781 20.3125-10.839844 7.675781-25.273438 7.675781-36.109376 0-54.167968-38.367188-129.929687-33.683594-177.859374 15.242187-135.660157 138.484375 22.296874 278.972656 123.730468 348-19.710937-26.535156-32.523437-53.488281-40.527344-79.328125-22.742187-73.4375 7.859376-153.089843 73.441407-193.203125 68.929687-42.160156 99.875-111.023437 99.875-111.023437zm0 0" fill="#f46262"/><path d="m504.5 304.71875c0 51.882812-42.0625 93.945312-93.949219 93.945312-51.882812 0-93.945312-42.0625-93.945312-93.945312 0-51.886719 42.0625-93.949219 93.945312-93.949219 51.886719 0 93.949219 42.0625 93.949219 93.949219zm0 0" fill="#abebf4"/><path d="m398.355469 287.421875c0-29.875 13.945312-56.488281 35.675781-73.695313-7.503906-1.929687-15.371094-2.957031-23.480469-2.957031-51.882812 0-93.945312 42.0625-93.945312 93.945313 0 51.886718 42.0625 93.949218 93.945312 93.949218 22.015625 0 42.261719-7.574218 58.277344-20.253906-40.523437-10.425781-70.472656-47.210937-70.472656-90.988281zm0 0" fill="#8ed7e8"/><path d="m453.746094 289.714844h-28.195313v-28.191406c0-8.285157-6.714843-15-15-15-8.28125 0-15 6.714843-15 15v28.191406h-28.191406c-8.285156 0-15 6.71875-15 15.003906 0 8.28125 6.714844 15 15 15h28.191406v28.191406c0 8.285156 6.71875 15 15 15 8.285157 0 15-6.714844 15-15v-28.191406h28.195313c8.285156 0 15-6.71875 15-15 0-8.285156-6.714844-15.003906-15-15.003906zm0 0" fill="#fff"/><path d="m256 195.671875c-15.519531 0-28.101562-12.582031-28.101562-28.101563v-20.429687c0-4.238281 3.433593-7.671875 7.671874-7.671875h40.859376c4.234374 0 7.671874 3.433594 7.671874 7.671875v20.429687c-.003906 15.519532-12.582031 28.101563-28.101562 28.101563zm0 0" fill="#57565c"/><path d="m191.976562 167.570312c0-13.183593-13.421874-23.871093-29.972656-23.871093-16.554687 0-29.976562 10.6875-29.976562 23.871093 0 13.179688 13.421875 23.867188 29.976562 23.867188 16.550782 0 29.972656-10.6875 29.972656-23.867188zm0 0" fill="#ffa6bb"/><path d="m379.96875 167.570312c0-13.183593-13.421875-23.871093-29.972656-23.871093-16.554688 0-29.972656 10.6875-29.972656 23.871093 0 13.179688 13.417968 23.867188 29.972656 23.867188 16.550781 0 29.972656-10.6875 29.972656-23.867188zm0 0" fill="#ffa6bb"/><path d="m344.15625 146.96875v-12.453125c0-4.140625-3.355469-7.5-7.5-7.5s-7.5 3.359375-7.5 7.5v12.453125c0 4.140625 3.355469 7.5 7.5 7.5 4.140625 0 7.5-3.359375 7.5-7.5zm0 0"/><path d="m167.839844 134.515625v12.453125c0 4.140625 3.359375 7.5 7.5 7.5 4.144531 0 7.5-3.359375 7.5-7.5v-12.453125c0-4.140625-3.355469-7.5-7.5-7.5-4.140625 0-7.5 3.359375-7.5 7.5zm0 0"/><path d="m490.820312 242.753906c16.613282-32.136718 23.507813-63.820312 20.480469-94.253906-3.65625-36.78125-21.835937-72.097656-54.03125-104.964844-24.230469-24.738281-56.679687-39.859375-91.359375-42.585937-34.140625-2.6875-68.304687 6.71875-96.191406 26.472656-8.207031 5.8125-19.230469 5.8125-27.4375 0-27.886719-19.753906-62.039062-29.15625-96.191406-26.472656-34.683594 2.726562-67.128906 17.847656-91.359375 42.585937-41.515625 42.378906-59.558594 88.484375-53.628907 137.039063 13.015626 106.617187 137.488282 198.117187 210.527344 243.167969 13.683594 8.441406 29.023438 12.664062 44.371094 12.664062 15.339844-.003906 30.6875-4.222656 44.371094-12.664062 10.140625-6.253907 20.269531-12.800782 30.105468-19.453126 3.433594-2.320312 4.332032-6.984374 2.011719-10.414062-2.320312-3.433594-6.984375-4.332031-10.414062-2.011719-9.667969 6.539063-19.617188 12.96875-29.582031 19.113281-22.511719 13.882813-50.480469 13.882813-72.992188 0-33.054688-20.390624-81.125-53.230468-122.433594-93.890624-48.410156-47.652344-75.691406-94.195313-81.078125-138.332032-5.347656-43.800781 11.289063-85.765625 49.453125-124.722656 21.695313-22.144531 50.753906-35.683594 81.820313-38.125 30.652343-2.410156 61.316406 6.027344 86.34375 23.753906 13.394531 9.488282 31.390625 9.488282 44.78125 0 25.027343-17.726562 55.691406-26.164062 86.34375-23.753906 31.070312 2.4375 60.128906 15.980469 81.820312 38.125 29.75 30.367188 46.511719 62.652344 49.824219 95.953125 2.578125 25.933594-2.929688 53.089844-16.371094 80.859375-18.164062-17.089844-42.605468-27.578125-69.453125-27.578125-55.9375 0-101.449219 45.511719-101.449219 101.449219s45.511719 101.449218 101.449219 101.449218c55.941407 0 101.449219-45.507812 101.449219-101.445312 0-23.316406-7.910156-44.816406-21.179688-61.964844zm-80.269531 148.410156c-47.664062 0-86.445312-38.78125-86.445312-86.445312 0-47.667969 38.78125-86.449219 86.445312-86.449219 47.667969 0 86.449219 38.78125 86.449219 86.449219 0 47.664062-38.78125 86.445312-86.449219 86.445312zm0 0"/><path d="m474.476562 295.957031c-1.613281-3.8125-6.011718-5.601562-9.828124-3.988281-3.816407 1.613281-5.234376 5.878906-3.988282 9.828125 2.492188 7.914063-2.777344 10.421875-6.914062 10.421875h-28.195313c-4.140625 0-7.5 3.355469-7.5 7.5v28.191406c0 4.136719-3.363281 7.5-7.5 7.5s-7.5-3.363281-7.5-7.5v-28.191406c0-4.144531-3.359375-7.5-7.5-7.5h-28.191406c-4.136719 0-7.5-3.367188-7.5-7.5 0-4.136719 3.363281-7.5 7.5-7.5h28.191406c4.140625 0 7.5-3.359375 7.5-7.503906v-28.191406c0-4.136719 3.363281-7.5 7.5-7.5s7.5 3.363281 7.5 7.5v28.191406c0 4.144531 3.359375 7.503906 7.5 7.503906h12.339844c4.144531 0 7.5-3.359375 7.5-7.503906 0-4.140625-3.355469-7.5-7.5-7.5h-4.839844v-20.691406c0-12.40625-10.09375-22.5-22.5-22.5s-22.5 10.09375-22.5 22.5v20.691406h-20.691406c-12.410156 0-22.5 10.097656-22.5 22.503906 0 12.402344 10.089844 22.5 22.5 22.5h20.691406v20.691406c0 12.40625 10.09375 22.5 22.5 22.5s22.5-10.09375 22.5-22.5v-20.691406h20.695313c12.40625 0 22.5-10.097656 22.5-22.5 0-3.035156-.59375-5.980469-1.769532-8.761719zm0 0"/><path d="m235.570312 131.96875c-8.367187 0-15.171874 6.804688-15.171874 15.171875v20.429687c0 19.628907 15.96875 35.601563 35.601562 35.601563 19.628906 0 35.597656-15.972656 35.601562-35.601563v-20.429687c0-8.367187-6.808593-15.171875-15.171874-15.171875zm41.03125 15.171875v20.429687c-.003906 11.359376-9.242187 20.601563-20.601562 20.601563s-20.601562-9.242187-20.601562-20.601563v-20.429687c0-.09375 41.203124-.09375 41.203124 0zm0 0"/></svg>