<svg height="512pt" viewBox="0 -93 512.0005 512" width="512pt" xmlns="http://www.w3.org/2000/svg"><path d="m282.871094 7.5h-9.679688c-5.152344 0-9.332031 4.179688-9.332031 9.332031v30.875h50.636719l-11.449219-26.871093c-3.445313-8.085938-11.382813-13.335938-20.175781-13.335938zm0 0" fill="#dfdfdd"/><path d="m421.503906 127.820312-31.914062-68.367187c-3.34375-7.167969-10.539063-11.746094-18.449219-11.746094h-126.527344c-7.910156 0-15.101562 4.582031-18.449219 11.746094l-10.210937 21.878906c-3.308594 7.085938-10.421875 11.617188-18.238281 11.617188h-160.671875c-6.164063 0-11.769531 3.566406-14.378907 9.152343l-10.839843 23.230469c-3.910157 8.375-5.207031 17.734375-3.71875 26.859375l18.832031 115.375h412.441406l63.019532-106.902344c5.859374-9.9375-1.308594-22.476562-12.84375-22.476562h-51.777344c-6.976563 0-13.324219-4.042969-16.273438-10.367188zm0 0" fill="#eeeeed"/><path d="m116.242188 92.949219h-79.199219c-6.164063 0-11.769531 3.566406-14.378907 9.152343l-10.839843 23.230469c-3.910157 8.375-5.207031 17.734375-3.71875 26.859375l18.832031 115.375h153.863281c-61.226562-29.792968-64.789062-116.285156-64.558593-174.617187zm0 0" fill="#dfdfdd"/><path d="m18.824219 217.839844 8.113281 49.726562h412.441406l29.3125-49.726562zm0 0" fill="#495059"/><path d="m134.828125 217.839844h-116.003906l8.113281 49.726562h153.863281c-21.855469-10.636718-36.363281-28.5-45.972656-49.726562zm0 0" fill="#41464f"/><path d="m396.917969 75.160156h-108.8125c-4.429688 0-8.023438 3.59375-8.023438 8.027344v19.523438c0 4.433593 3.59375 8.023437 8.023438 8.023437h125.421875zm0 0" fill="#a2d5ec"/><path d="m330.078125 110.734375h83.449219l-16.609375-35.574219h-31.261719zm0 0" fill="#8fcae6"/><path d="m7.503906 274.132812c0-6.554687 5.933594-11.636718 12.371094-10.398437 10.238281 1.972656 20.96875.574219 30.507812-4.195313 13.496094-6.75 29.382813-6.75 42.878907 0 13.492187 6.746094 29.378906 6.746094 42.875 0 13.496093-6.75 29.382812-6.75 42.878906 0 13.496094 6.746094 29.382813 6.746094 42.875 0 13.496094-6.75 29.382813-6.75 42.878906 0 13.496094 6.746094 29.382813 6.746094 42.878907 0 13.496093-6.75 29.378906-6.75 42.875 0 13.496093 6.746094 29.382812 6.746094 42.878906 0 13.492187-6.75 29.378906-6.75 42.875 0 9.539062 4.769532 20.269531 6.167969 30.507812 4.195313 6.4375-1.238281 12.371094 3.84375 12.371094 10.398437v8.351563c0 20.34375-16.492188 36.839844-36.839844 36.839844h-397.972656c-20.34375 0-36.839844-16.492188-36.839844-36.839844zm0 0" fill="#79ace2"/><path d="m492.332031 177.738281h-170.863281c-5.546875 0-9.175781 5.808594-6.746094 10.792969l14.289063 29.308594h139.679687zm0 0" fill="#77c09f"/><path d="m90.257812 28.101562h-31.378906c-4.0625 0-7.359375 3.296876-7.359375 7.359376v57.488281h46.097657v-57.488281c0-4.0625-3.296876-7.359376-7.359376-7.359376zm0 0" fill="#495059"/><path d="m90.257812 28.101562h-31.378906c-4.0625 0-7.359375 3.296876-7.359375 7.359376v21.828124h46.097657v-21.828124c0-4.0625-3.296876-7.359376-7.359376-7.359376zm0 0" fill="#f6c273"/><path d="m173.960938 28.101562h-31.375c-4.066407 0-7.363282 3.296876-7.363282 7.359376v57.488281h46.097656v-57.488281c0-4.0625-3.292968-7.359376-7.359374-7.359376zm0 0" fill="#495059"/><path d="m173.960938 28.101562h-31.375c-4.066407 0-7.363282 3.296876-7.363282 7.359376v21.828124h46.097656v-21.828124c0-4.0625-3.292968-7.359376-7.359374-7.359376zm0 0" fill="#f6c273"/><path d="m66 194.980469h12.570312c4.144532 0 7.5-3.355469 7.5-7.5 0-4.140625-3.355468-7.5-7.5-7.5h-12.570312c-4.140625 0-7.5 3.359375-7.5 7.5 0 4.144531 3.359375 7.5 7.5 7.5zm0-62.300781h12.570312c4.144532 0 7.5-3.359376 7.5-7.5 0-4.140626-3.355468-7.5-7.5-7.5h-12.570312c-4.140625 0-7.5 3.359374-7.5 7.5 0 4.140624 3.359375 7.5 7.5 7.5zm-27.234375 23.652343c0 4.140625 3.359375 7.5 7.5 7.5h12.574219c4.140625 0 7.5-3.359375 7.5-7.5 0-4.144531-3.359375-7.5-7.5-7.5h-12.574219c-4.140625 0-7.5 3.355469-7.5 7.5zm64.210937 7.5c4.140626 0 7.5-3.359375 7.5-7.5 0-4.144531-3.359374-7.5-7.5-7.5h-12.574218c-4.140625 0-7.5 3.355469-7.5 7.5 0 4.140625 3.359375 7.5 7.5 7.5zm406.035157-21.851562c-4.039063-7.070313-11.3125-11.292969-19.457031-11.292969h-9.734376v-23.613281c0-4.140625-3.359374-7.5-7.5-7.5-4.140624 0-7.5 3.359375-7.5 7.5v23.613281h-27.042968c-4.046875 0-7.769532-2.371094-9.480469-6.039062l-31.914063-68.367188c-2.988281-6.402344-8.242187-11.390625-14.792968-14.039062-3.839844-1.554688-8.210938.296874-9.765625 4.136718-1.554688 3.839844.300781 8.210938 4.136719 9.765625 3.027343 1.222657 5.453124 3.523438 6.832031 6.480469l2.351562 5.035156h-97.035156c-8.5625 0-15.527344 6.964844-15.527344 15.523438v19.523437c0 8.5625 6.964844 15.527344 15.527344 15.527344h120.640625l5.957031 12.757813c4.164063 8.925781 13.222657 14.691406 23.070313 14.691406h51.777344c3.882812 0 5.792968 2.613281 6.433593 3.734375.640625 1.121093 1.917969 4.09375-.050781 7.4375l-7.886719 13.378906h-166.582031c-5.207031 0-9.964844 2.636719-12.722656 7.054687-2.761719 4.414063-3.046875 9.847657-.765625 14.527344l9.03125 18.519532h-291.816407l-9.6875-59.355469c-1.25-7.667969-.175781-15.441407 3.109376-22.480469l10.839843-23.226562c1.371094-2.933594 4.347657-4.828126 7.585938-4.828126h160.671875c10.6875 0 20.511718-6.257812 25.03125-15.941406l10.214844-21.878906c2.105468-4.507812 6.675781-7.421875 11.652343-7.421875h69.859375c.007813 0 .015625.003906.027344.003906s.023438-.003906.039062-.003906h30.347657c4.140625 0 7.5-3.355469 7.5-7.496094 0-4.144531-3.359375-7.5-7.5-7.5h-25.433594l-9.507813-22.3125c-4.628906-10.871093-15.257812-17.894531-27.074218-17.894531h-9.679688c-9.28125 0-16.832031 7.550781-16.832031 16.832031v23.375h-11.75c-10.777344 0-20.683594 6.308594-25.242187 16.074219l-10.210938 21.878906c-2.066406 4.425782-6.558594 7.285156-11.445312 7.285156h-8.890626v-49.984374c0-8.195313-6.667968-14.859376-14.859374-14.859376h-31.378907c-8.195312 0-14.859375 6.664063-14.859375 14.859376v49.984374h-22.609375v-49.984374c0-8.195313-6.664062-14.859376-14.859375-14.859376h-31.375c-8.191406 0-14.859375 6.664063-14.859375 14.859376v49.984374h-6.976562c-9.039063 0-17.351563 5.292969-21.175781 13.484376l-10.839844 23.226562c-4.566406 9.785156-6.0625 20.585938-4.320313 31.242188l16.753907 102.660156c-3.929688.105468-7.75 1.515625-10.863282 4.085937-4.1875 3.460938-6.5898435 8.558594-6.5898435 13.988281v8.351563c0 24.449219 19.8867185 44.335937 44.3359375 44.335937h9.808594c4.144531 0 7.5-3.355468 7.5-7.5 0-4.140624-3.355469-7.496093-7.5-7.496093h-9.808594c-16.175781 0-29.339844-13.164063-29.339844-29.339844v-8.351563c0-1.332031.800782-2.136718 1.144532-2.421874.476562-.390626 1.261718-.816407 2.308593-.613282 2.402344.464844 4.835938.753906 7.269531.890625.234376.023438.46875.035157.707032.035157h.019531c9.390625.410156 18.847656-1.558594 27.285156-5.777344 11.324219-5.664063 24.84375-5.664063 36.167969 0 15.523438 7.761718 34.058594 7.761718 49.585938 0 11.324218-5.664063 24.84375-5.664063 36.167968 0 15.523438 7.761718 34.0625 7.761718 49.585938 0 11.324218-5.664063 24.84375-5.664063 36.167968 0 15.523438 7.761718 34.0625 7.761718 49.585938 0 11.324219-5.664063 24.847656-5.664063 36.167969 0 15.523437 7.761718 34.0625 7.761718 49.585937 0 11.324219-5.660156 24.847656-5.660156 36.171875 0 2.488281 1.242187 5.066407 2.28125 7.703125 3.132812.003906 0 .003906.003906.003906.003906 8.859376 2.855469 18.398438 3.480469 27.574219 1.714844 1.050781-.203125 1.832031.222656 2.304688.613282.34375.285156 1.144531 1.089843 1.144531 2.421874v8.351563c0 16.175781-13.160156 29.339844-29.339844 29.339844h-353c-4.140625 0-7.5 3.355469-7.5 7.496093 0 4.144532 3.359375 7.5 7.5 7.5h353.003906c24.445313 0 44.335938-19.886718 44.335938-44.335937v-8.351563c0-5.429687-2.402344-10.527343-6.59375-13.988281-4.121094-3.402343-9.476562-4.78125-14.691406-3.777343-3.636719.703124-7.351563.882812-11.023438.574218l54.511719-92.46875c4.132813-7.011718 4.191406-15.421875.152344-22.492187zm-220.90625-38.746094c-.289063 0-.527344-.234375-.527344-.523437v-19.523438c0-.292969.238281-.527344.527344-.527344h104.039062l9.605469 20.578125h-113.644531zm-16.742188-86.402344c0-1.007812.820313-1.832031 1.832031-1.832031h9.675782c5.796875 0 11.007812 3.445312 13.277344 8.777344l7 16.429687h-31.785157zm-128.640625 18.769531h31.097656v49.847657h-31.097656zm-83.703125 0h31.097657v49.847657h-31.097657zm380.398438 217.128907c-15.484375-7.65625-33.917969-7.625-49.371094.101562-11.324219 5.660157-24.847656 5.660157-36.167969 0-15.527344-7.761719-34.0625-7.761719-49.585937 0-11.324219 5.660157-24.84375 5.660157-36.167969 0-15.523438-7.761719-34.0625-7.761719-49.585938 0-11.324218 5.660157-24.847656 5.660157-36.171874 0-15.523438-7.761719-34.058594-7.761719-49.582032 0-11.324218 5.660157-24.847656 5.660157-36.171875 0-15.523437-7.765625-34.058593-7.765625-49.585937 0-4.453125 2.226563-9.296875 3.597657-14.230469 4.074219l-5.152344-31.566406h301.351563.019531.027344 126.519531zm24.988281-42.390625h-130.707031l-12.230469-25.101563h157.738281zm-266-15.359375h12.570312c4.144532 0 7.5-3.355469 7.5-7.5 0-4.140625-3.355468-7.5-7.5-7.5h-12.570312c-4.144531 0-7.5 3.359375-7.5 7.5 0 4.144531 3.355469 7.5 7.5 7.5zm0-62.300781h12.570312c4.144532 0 7.5-3.359376 7.5-7.5 0-4.140626-3.355468-7.5-7.5-7.5h-12.570312c-4.144531 0-7.5 3.359374-7.5 7.5 0 4.140624 3.355469 7.5 7.5 7.5zm36.972656 31.152343c4.144532 0 7.5-3.359375 7.5-7.5 0-4.144531-3.355468-7.5-7.5-7.5h-12.570312c-4.140625 0-7.5 3.355469-7.5 7.5 0 4.140625 3.359375 7.5 7.5 7.5zm7.160156 31.148438h12.574219c4.140625 0 7.5-3.355469 7.5-7.5 0-4.140625-3.359375-7.5-7.5-7.5h-12.574219c-4.140624 0-7.5 3.359375-7.5 7.5 0 4.144531 3.359376 7.5 7.5 7.5zm12.574219-77.300781h-12.574219c-4.140624 0-7.5 3.359374-7.5 7.5 0 4.140624 3.359376 7.5 7.5 7.5h12.574219c4.140625 0 7.5-3.359376 7.5-7.5 0-4.140626-3.359375-7.5-7.5-7.5zm-144.980469 77.300781h12.574219c4.140625 0 7.5-3.355469 7.5-7.5 0-4.140625-3.359375-7.5-7.5-7.5h-12.574219c-4.140624 0-7.496093 3.359375-7.496093 7.5 0 4.144531 3.355469 7.5 7.496093 7.5zm0-62.300781h12.574219c4.140625 0 7.5-3.359376 7.5-7.5 0-4.140626-3.359375-7.5-7.5-7.5h-12.574219c-4.140624 0-7.496093 3.359374-7.496093 7.5 0 4.140624 3.355469 7.5 7.496093 7.5zm36.976563 31.152343c4.140625 0 7.5-3.359375 7.5-7.5 0-4.144531-3.359375-7.5-7.5-7.5h-12.570313c-4.144531 0-7.5 3.355469-7.5 7.5 0 4.140625 3.355469 7.5 7.5 7.5zm7.160156 31.148438h12.574219c4.140625 0 7.5-3.355469 7.5-7.5 0-4.140625-3.359375-7.5-7.5-7.5h-12.574219c-4.140625 0-7.5 3.359375-7.5 7.5 0 4.144531 3.359375 7.5 7.5 7.5zm36.976563-31.148438c4.140625 0 7.5-3.359375 7.5-7.5 0-4.144531-3.359375-7.5-7.5-7.5h-12.574219c-4.140625 0-7.5 3.355469-7.5 7.5 0 4.140625 3.359375 7.5 7.5 7.5zm-36.976563-31.152343h12.574219c4.140625 0 7.5-3.359376 7.5-7.5 0-4.140626-3.359375-7.5-7.5-7.5h-12.574219c-4.140625 0-7.5 3.359374-7.5 7.5 0 4.140624 3.359375 7.5 7.5 7.5zm0 0"/></svg>