<svg height="512pt" viewBox="0 0 512 512" width="512pt" xmlns="http://www.w3.org/2000/svg"><path d="m491.351562 266.871094c0 131.238281-106.386718 237.628906-237.625 237.628906-131.238281 0-237.628906-106.390625-237.628906-237.628906 0-131.238282 106.390625-237.628906 237.628906-237.628906 131.238282 0 237.625 106.390624 237.625 237.628906zm0 0" fill="#a0d9e7"/><path d="m172.507812 43.492188c-91.242187 33.179687-156.410156 120.667968-156.410156 223.378906 0 131.238281 106.386719 237.628906 237.628906 237.628906 83.40625 0 156.765626-42.984375 199.167969-107.996094-303.140625 14.105469-365.269531-253.027344-280.386719-353.011718zm0 0" fill="#7ccbdd"/><path d="m473.785156 356.664062c-6.121094-36.6875-19.582031-73.828124-44.589844-91.15625-49.902343-34.578124-82.316406 15.128907-85.558593-1.082031-3.242188-16.207031 15.644531-47.542969-11.089844-50.785156-26.730469-3.242187-28.914063 34.578125-51.054687 27.011719-22.140626-7.5625-41.855469-12.964844-39.5625-34.578125 2.292968-21.609375 7.695312-24.851563 21.742187-17.289063 14.050781 7.566406 41.0625-18.226562 37.820313-32.886718-3.242188-14.65625 31.054687-48.15625 17.289062-64.539063-20.054688-23.867187-80.457031-34.402344-127.214844-12.792969-46.757812 21.613282-43.136718 51.265625-68.179687 49.40625s-37.480469 14.746094-45.457031 29.847656c-15.292969 28.941407-20.371094 56.898438-.519532 69.867188 19.855469 12.964844 47.949219 8.644531 55.515625 18.371094 7.5625 9.722656 9.730469 50.785156 33.5 51.867187 23.769531 1.078125-3.238281-29.75 0-46.753906 3.238281-17 32.984375 19.480469 45.664063 25.554687 12.683594 6.070313 40.777344 15.796876 61.308594 4.988282 20.53125-10.804688 27.613281 11.9375 14.886718 28.660156-12.726562 16.726562-34.359375 63.871094-6.792968 84.0625 27.566406 20.1875 98.601562 9.46875 102.523437 19.152344 2.273437 5.609375 9.351563 23.585937 14.492187 41.703125 33.082032-25.457031 59.261719-59.421875 75.277344-98.628907zm0 0" fill="#99da90"/><path d="m268.320312 360.855469c-1.019531 13.058593 2.117188 25.488281 13.167969 33.582031 27.566407 20.1875 98.605469 9.464844 102.527344 19.148438 2.273437 5.613281 9.347656 23.589843 14.492187 41.707031 21.269532-16.367188 39.679688-36.257813 54.375-58.789063-76.289062 3.546875-137.304687-10.722656-184.5625-35.648437zm0 0" fill="#69ab8d"/><path d="m132.921875 246.054688c7.566406 9.726562 9.734375 50.789062 33.503906 51.867187 18.558594.84375 6.164063-17.765625 1.378907-34.058594-25.605469-45.789062-34.203126-96.65625-28.238282-141.003906-4.292968 3.632813-9.085937 5.636719-16.179687 5.113281-25.042969-1.859375-37.480469 14.746094-45.457031 29.84375-15.292969 28.945313-20.371094 56.902344-.519532 69.871094 19.855469 12.964844 47.949219 8.644531 55.511719 18.367188zm0 0" fill="#69ab8d"/><path d="m477.191406 198h-222.410156c-4.777344 0-8.214844-4.59375-6.871094-9.175781 2.710938-9.230469 4.085938-18.800781 4.085938-28.421875v-43.632813h227.980468v43.632813c0 9.621094 1.375 19.191406 4.085938 28.421875 1.347656 4.585937-2.089844 9.175781-6.871094 9.175781zm0 0" fill="#404656"/><path d="m288.257812 117.378906c0-14.257812-13.609374-25.816406-30.390624-25.816406-16.785157 0-30.390626 11.558594-30.390626 25.816406 0 14.257813 13.605469 25.8125 30.390626 25.8125 16.78125 0 30.390624-11.554687 30.390624-25.8125zm0 0" fill="#f8dccc"/><path d="m504.5 117.378906c0-14.257812-13.605469-25.816406-30.390625-25.816406s-30.390625 11.558594-30.390625 25.816406c0 14.257813 13.605469 25.8125 30.390625 25.8125s30.390625-11.554687 30.390625-25.8125zm0 0" fill="#f0cdb9"/><path d="m501.320312 145.875c0 10.042969-8.140624 18.183594-18.183593 18.183594s-18.183594-8.140625-18.183594-18.183594 8.140625-18.183594 18.183594-18.183594 18.183593 8.140625 18.183593 18.183594zm0 0" fill="#e8899e"/><path d="m267.019531 145.875c0 10.042969-8.140625 18.183594-18.183593 18.183594-10.042969 0-18.183594-8.140625-18.183594-18.183594s8.140625-18.183594 18.183594-18.183594c10.042968 0 18.183593 8.140625 18.183593 18.183594zm0 0" fill="#e8899e"/><path d="m478.585938 117.378906c0-58.292968-50.410157-105.550781-112.597657-105.550781s-112.597656 47.257813-112.597656 105.550781c0 58.289063 50.410156 92.214844 112.597656 92.214844 62.183594 0 112.597657-33.925781 112.597657-92.214844zm0 0" fill="#f8dccc"/><path d="m292.542969 37.378906c-23.972657 19.355469-39.152344 48.011719-39.152344 80 0 58.289063 50.410156 92.214844 112.597656 92.214844 4.914063 0 9.753907-.210938 14.503907-.632812-91.125-25.554688-107.886719-114.960938-87.949219-171.582032zm0 0" fill="#f0cdb9"/><path d="m321.195312 142.027344c0-11.519532-11.726562-20.855469-26.191406-20.855469s-26.191406 9.335937-26.191406 20.855469c0 11.519531 11.726562 20.859375 26.191406 20.859375s26.191406-9.339844 26.191406-20.859375zm0 0" fill="#f8b8bd"/><path d="m463.164062 142.027344c0-11.519532-11.726562-20.855469-26.191406-20.855469s-26.191406 9.335937-26.191406 20.855469c0 11.519531 11.726562 20.859375 26.191406 20.859375s26.191406-9.339844 26.191406-20.859375zm0 0" fill="#f8b8bd"/><path d="m387.105469 126.003906c0-13.050781-9.453125-14.277344-21.117188-14.277344-11.664062 0-21.117187 1.226563-21.117187 14.277344 0 13.050782 9.453125 23.628906 21.117187 23.628906 11.660157 0 21.117188-10.578124 21.117188-23.628906zm0 0" fill="#404656"/><path d="m473.148438 102.863281c4.503906 1.605469 9.050781-2.359375 8.046874-7.03125-10.808593-50.382812-58.277343-88.332031-115.207031-88.332031-56.933593 0-104.40625 37.953125-115.210937 88.339844-.992188 4.625 3.488281 8.640625 7.949218 7.058594 12.035157-4.261719 25.171876-13.851563 37.269532-30.605469 15.785156 18.660156 66.167968 29.746093 131.382812-13.488281 14.222656 25.222656 30.839844 38.738281 45.769532 44.058593zm0 0" fill="#404656"/><path d="m258.726562 102.898438c8.484376-3.003907 17.515626-8.671876 26.34375-17.613282-.34375-20.28125 3.546876-39.808594 10.628907-55.90625-22.738281 15.933594-39.117188 39.402344-44.921875 66.460938-.992188 4.625 3.488281 8.640625 7.949218 7.058594zm0 0" fill="#353947"/><path d="m305.503906 398.496094c0-14.878906-14.203125-26.945313-31.722656-26.945313s-31.71875 12.066407-31.71875 26.945313c0 14.882812 14.199219 26.949218 31.71875 26.949218s31.722656-12.066406 31.722656-26.949218zm0 0" fill="#f0cdb9"/><path d="m70.941406 398.496094c0-14.878906-14.203125-26.945313-31.71875-26.945313-17.519531 0-31.722656 12.066407-31.722656 26.945313 0 14.882812 14.203125 26.949218 31.722656 26.949218 17.515625 0 31.71875-12.066406 31.71875-26.949218zm0 0" fill="#f8dccc"/><path d="m277.554688 398.496094c0-60.84375-54.199219-110.167969-121.050782-110.167969-66.855468 0-121.054687 49.324219-121.054687 110.167969 0 60.847656 54.199219 96.257812 121.054687 96.257812 66.851563 0 121.050782-35.410156 121.050782-96.257812zm0 0" fill="#f8dccc"/><path d="m96.261719 302.917969c-36.339844 19.011719-60.8125 54.695312-60.8125 95.578125 0 60.847656 54.199219 96.257812 121.054687 96.257812 6.109375 0 12.109375-.300781 17.976563-.886718-122.390625-30.304688-112.257813-138.660157-78.21875-190.949219zm0 0" fill="#f0cdb9"/><path d="m109.746094 423.171875c0-12.027344-12.238282-21.773437-27.335938-21.773437-15.101562 0-27.339844 9.746093-27.339844 21.773437 0 12.023437 12.238282 21.769531 27.339844 21.769531 15.097656 0 27.335938-9.746094 27.335938-21.769531zm0 0" fill="#f8b8bd"/><path d="m257.933594 423.171875c0-12.027344-12.242188-21.773437-27.339844-21.773437s-27.339844 9.746093-27.339844 21.773437c0 12.023437 12.242188 21.769531 27.339844 21.769531s27.339844-9.746094 27.339844-21.769531zm0 0" fill="#f8b8bd"/><path d="m276.128906 381.554688c-8.957031-52.800782-59.105468-93.226563-119.628906-93.226563s-110.667969 40.425781-119.625 93.226563c19.410156-3.257813 44.820312-19.4375 58.847656-38.105469.722656 8.042969 3.105469 13.859375 5.578125 18.140625.683594 1.183594 2.042969 1.816406 3.375 1.507812 14.667969-3.359375 46.011719-22.773437 51.824219-36.304687 5.816406 13.53125 37.160156 32.945312 51.824219 36.304687 1.332031.308594 2.695312-.324218 3.378906-1.507812 2.46875-4.277344 4.851563-10.09375 5.574219-18.140625 14.03125 18.667969 39.441406 34.847656 58.851562 38.105469zm0 0" fill="#404656"/><path d="m96.257812 302.925781c-31.214843 16.332031-53.671874 44.964844-59.382812 78.628907 11.703125-1.964844 25.585938-8.628907 37.84375-17.703126 2.703125-23.039062 10.96875-44.6875 21.539062-60.925781zm0 0" fill="#353947"/><path d="m432.59375 124.898438c4.140625 0 7.5-3.355469 7.5-7.5v-11.242188c0-4.140625-3.359375-7.5-7.5-7.5-4.144531 0-7.5 3.359375-7.5 7.5v11.242188c0 4.144531 3.355469 7.5 7.5 7.5zm-66.605469 32.234374c15.777344 0 28.617188-13.964843 28.617188-31.128906 0-21.777344-20.054688-21.777344-28.617188-21.777344s-28.617187 0-28.617187 21.777344c0 17.164063 12.835937 31.128906 28.617187 31.128906zm0-37.90625c13.617188 0 13.617188 2.125 13.617188 6.777344 0 8.894532-6.109375 16.128906-13.617188 16.128906-7.507812 0-13.617187-7.234374-13.617187-16.128906 0-4.652344 0-6.777344 13.617187-6.777344zm-262.132812 280.253907c0 4.140625 3.355469 7.5 7.5 7.5 4.140625 0 7.5-3.359375 7.5-7.5 0-11.3125-9.203125-20.515625-20.511719-20.515625-11.3125 0-20.515625 9.203125-20.515625 20.515625 0 4.140625 3.359375 7.5 7.5 7.5 4.144531 0 7.5-3.359375 7.5-7.5 0-3.042969 2.472656-5.515625 5.515625-5.515625 3.039062.003906 5.511719 2.476562 5.511719 5.515625zm105.292969 0c0-3.042969 2.472656-5.515625 5.511718-5.515625 3.039063 0 5.515625 2.472656 5.515625 5.515625 0 4.140625 3.355469 7.5 7.5 7.5 4.140625 0 7.5-3.359375 7.5-7.5 0-11.3125-9.203125-20.515625-20.515625-20.515625-11.308594 0-20.511718 9.203125-20.511718 20.515625 0 4.140625 3.355468 7.5 7.5 7.5 4.140624 0 7.5-3.359375 7.5-7.5zm302.851562-282.101563c0-14.359375-10.523438-27-25.625-31.535156-3.234375-10.871094-8.109375-21.214844-14.554688-30.84375-2.304687-3.441406-6.964843-4.363281-10.40625-2.058594-3.4375 2.304688-4.359374 6.960938-2.058593 10.402344 6.539062 9.765625 11.21875 20.359375 13.929687 31.53125-14.347656-6.015625-28.246094-20.023438-39.371094-39.753906-1.023437-1.8125-2.757812-3.121094-4.78125-3.605469-2.023437-.488281-4.160156-.109375-5.898437 1.039063-64.921875 43.042968-109.898437 28.625-121.507813 14.894531-1.492187-1.757813-3.710937-2.738281-6.015624-2.648438-2.304688.089844-4.441407 1.230469-5.792969 3.101563-11.613281 16.078125-23.019531 23.527344-31.226563 26.972656 11.277344-46.4375 55.960938-79.875 107.296875-79.875 26.289063 0 51.738281 8.792969 71.652344 24.761719 3.226563 2.589843 7.949219 2.070312 10.542969-1.160157 2.589844-3.230468 2.070312-7.949218-1.160156-10.542968-22.566407-18.09375-51.34375-28.058594-81.035157-28.058594-28.300781 0-54.832031 9.035156-76.113281 24.417969-11.941406-1.765625-24.085938-2.675781-36.152344-2.675781-65.476562 0-127.03125 25.5-173.332031 71.796874-46.296875 46.300782-71.792969 107.855469-71.792969 173.332032 0 34.289062 6.917969 67.324218 20.542969 98.34375-16.75 3.921875-29.140625 17.375-29.140625 33.28125 0 17.425781 14.8125 31.859375 33.953125 34.128906 6.839844 18.359375 19.390625 34.144531 36.945313 46.019531 3.429687 2.320313 8.09375 1.421875 10.414062-2.011719 2.320312-3.433593 1.417969-8.09375-2.011719-10.414062-23.78125-16.082031-36.351562-39.5-36.351562-67.722656 0-3.625.210937-7.207032.621093-10.738282 16.277344-4.207031 34.464844-15.078124 48.230469-28.566406.851563 2.105469 1.851563 4.152344 3.003907 6.144532 2.351562 4.078124 6.996093 6.117187 11.546874 5.070312 13.28125-3.042969 37.5-16.90625 50.148438-30.6875 12.652344 13.78125 36.871094 27.644531 50.148438 30.6875 4.554687 1.042969 9.195312-.992188 11.546874-5.066406 1.152344-1.996094 2.152344-4.042969 3.007813-6.148438 13.761719 13.488282 31.949219 24.359375 48.230469 28.566406.40625 3.53125.617187 7.113282.617187 10.738282 0 26.535156-11.222656 48.992187-32.457031 64.949218-20.4375 15.351563-49.234375 23.804688-81.09375 23.804688-17.226562 0-33.441406-2.410156-48.191406-7.160156-3.941406-1.269532-8.167969.894531-9.4375 4.839844-1.269532 3.941406.894531 8.167968 4.839844 9.4375 16.238281 5.230468 34 7.882812 52.792968 7.882812 8.074219 0 15.976563-.527344 23.652344-1.515625 23.757812 7.46875 48.496094 11.265625 73.570312 11.265625 65.476563 0 127.03125-25.5 173.332032-71.796875 46.296875-46.300781 71.796875-107.855469 71.796875-173.332031 0-23.289063-3.199219-45.984375-9.511719-67.871094 2.441406-3.628906 3.160156-8.058594 1.917969-12.289062-1.5-5.105469-2.546875-10.34375-3.15625-15.636719 11.792969-2.320313 20.71875-12.734375 20.71875-25.199219 0-3.929688-.890625-7.652344-2.472657-10.984375 3.671876-5.222656 5.648438-11.273437 5.648438-17.511719zm-250.800781-7.402344c.011719-.003906.023437-.003906.03125-.007812 12.710937-4.5 24.9375-13.644531 35.710937-26.640625 21.21875 15.847656 67.957032 23.101563 127.964844-14.027344 16.21875 25.730469 33.59375 36.304688 45.726562 40.628907.046876.015624.09375.027343.144532.046874.199218 2.472657.308594 4.945313.308594 7.402344 0 13.421875-2.914063 25.746094-8.570313 36.632813-.019531.035156-.035156.070312-.050781.105469-.664063 1.273437-1.367188 2.523437-2.105469 3.757812-.019531.03125-.039063.0625-.058594.09375-4.851562 8.070312-11.304687 15.269531-19.28125 21.445312-18.902343 14.625-45.546875 22.679688-75.03125 22.679688-29.480469 0-56.128906-8.054688-75.027343-22.679688-9.226563-7.140624-16.414063-15.652343-21.445313-25.296874-.019531-.035157-.035156-.070313-.050781-.105469-5.660156-10.886719-8.574219-23.210938-8.574219-36.632813 0-2.457031.109375-4.929687.308594-7.402344zm209.671875 80.523438h-19.699219c5.359375-4.253906 10.132813-8.894531 14.289063-13.898438 1.960937 4.585938 3.761718 9.222657 5.410156 13.898438zm-224.9375-70.140625c-3.46875.394531-6.730469 1.480469-9.644532 3.117187-.785156-1.753906-1.3125-3.789062-1.3125-6.097656 0-5.917968 3.644532-11.347656 9.351563-14.734375.550781 1.230469 1.273437 2.386719 2.171875 3.417969-.398438 3.773438-.609375 7.558594-.609375 11.316406 0 1 .015625 1.992188.042969 2.980469zm1.511718 14.933594c1.261719 7.070312 3.289063 13.816406 6.058594 20.1875-.878906.429687-1.816406.726562-2.785156.898437-.019531.003906-.042969.007813-.0625.011719-.597656.101563-1.203125.171875-1.820312.171875-5.890626 0-10.683594-4.792969-10.683594-10.683594 0-5.421875 4.058594-9.898437 9.292968-10.585937zm1.941407 71.574219c.085937-.808594.175781-1.566407.265625-2.289063 1.613281.601563 3.339844.921875 5.128906.921875h51.480469c3.113281 1.335938 6.308593 2.5625 9.59375 3.675781-7.21875 3.714844-12.34375 9.949219-16.535157 15.050781-7.476562 9.105469-10.070312 11.152344-15.40625 9.328126-1.195312-.40625-2.382812-.8125-3.5625-1.207032-23.09375-7.816406-32.363281-12.3125-30.964843-25.480468zm9.71875-37.453126c.523437-.226562 1.035156-.472656 1.542969-.734374 5.328124 8.089843 12.066406 15.402343 20.15625 21.820312h-25.570313c1.988281-6.875 3.277344-13.945312 3.871094-21.085938zm-244.105469 229.082032c0-7.90625 5.9375-14.734375 14.414062-17.769532-.960937 5.796876-1.464843 11.734376-1.464843 17.769532 0 6.101562.527343 12.050781 1.554687 17.808594-8.53125-3.011719-14.503906-9.859376-14.503906-17.808594zm24.210938-48.144532c-10.359376-26.523437-15.613282-54.523437-15.613282-83.480468 0-61.46875 23.9375-119.261719 67.402344-162.726563 43.464844-43.464843 101.253906-67.402343 162.726562-67.402343 6.878907 0 13.785157.320312 20.65625.9375-6.5625 6.632812-12.332031 13.992187-17.148437 21.957031-24.171875-1.546875-48.429687 2.699219-68.8125 12.125-25.488281 11.777343-37.027344 25.921875-45.453125 36.246093-7.941406 9.738282-11.085938 13.082032-19.027344 12.484376-29.980468-2.210938-44.410156 18.234374-52.644531 33.824218-26.769531 50.671875-10.230469 71.652344 2.015625 79.648438 11.5625 7.554687 25.25 9.847656 36.246094 11.6875 6.941406 1.164062 15.585937 2.613281 17.445312 5.007812 1.472656 1.890625 3.332032 7.96875 4.96875 13.328125 1.703125 5.574219 3.664063 11.976563 6.320313 18.027344-44.261719 5.769531-81.328125 32.246094-99.082031 68.335937zm184.0625-11.40625c-1.863282-2.480468-5.0625-3.558593-8.046876-2.707031-2.984374.847657-5.136718 3.449219-5.417968 6.539063-.398438 4.425781-1.40625 8.40625-3.070313 12.078125-14.605469-4.890625-39.199219-21.371094-43.347656-31.023438-1.179687-2.753906-3.890625-4.539062-6.890625-4.539062-2.996094 0-5.707031 1.785156-6.890625 4.539062-4.144531 9.652344-28.738281 26.132813-43.347656 31.023438-1.660157-3.671875-2.671875-7.652344-3.070313-12.078125-.277344-3.089844-2.429687-5.691406-5.414062-6.539063-2.984375-.851562-6.1875.226563-8.050782 2.707031-10.023437 13.335938-27.101562 25.839844-42.589843 31.902344 13.386719-43.226562 57.34375-75.019531 109.363281-75.019531s95.976562 31.792969 109.363281 75.019531c-15.488281-6.058594-32.5625-18.566406-42.589843-31.902344zm42.761718-1.972656c-18.269531-27.15625-48.246094-47.039062-83.445312-53.707031-.96875-3.523437-2.398438-7.25-3.890625-11.113281-2.0625-5.359375-4.535157-11.769532-4.980469-16.464844 4.671875 2.945312 12.007812 9.441406 16.394531 13.328125 7.25 6.421875 13.507813 11.96875 18.738281 14.472656 9.496094 4.542969 42.457032 18.328125 68.039063 4.863281 1.992187-1.046874 6.832031-3.234374 8.785156-.929687 2.292969 2.710937 2.414063 10.824219-3.359375 18.410156-5.71875 7.515625-11.964844 18.828125-16.28125 31.140625zm-12.308594 160.027344c-13.929687 0-27.746093-1.253906-41.328124-3.71875 12.746093-4.421875 24.3125-10.410156 34.203124-17.84375 15.433594-11.59375 26.394532-26.09375 32.570313-42.828125 13.660156-1.65625 25.09375-9.511719 30.488281-20.222656 14.191406 2.40625 29.726563 3.015625 42.539063 3.519531 9.640625.375 21.445312.835938 25.523437 2.128906 2.363282 5.921875 7.691406 19.726563 12.140625 34.429688-39.242187 28.910156-86.488281 44.535156-136.136719 44.535156zm29.863282-116.269531c8.476562 3.03125 14.414062 9.859375 14.414062 17.765625 0 7.9375-5.953125 14.773437-14.460937 17.792968 1-5.734374 1.511719-11.671874 1.511719-17.792968 0-6.035156-.503907-11.972656-1.464844-17.765625zm132.859375 48.867187c-4.507813 4.507813-9.183594 8.796875-13.988281 12.882813-4.699219-14.65625-9.789063-27.5-11.492188-31.710938-3.445312-8.496093-15.054688-8.949219-38.183594-9.851562-12.734375-.5-26.921875-1.058594-39.804687-3.183594-.421875-16.902344-14.816407-30.875-33.425781-33.300781-.929688-2.796875-1.964844-5.554688-3.109376-8.257813 2.773438-16.707031 12.039063-33.675781 17.808594-41.257812 9.269532-12.183594 10.503906-28.167969 2.871094-37.183594-6.226562-7.355469-16.402344-8.351563-27.222656-2.65625-3.488282 1.835937-22.523438 10.222656-54.574219-5.117187-3.332031-1.597657-9.675781-7.214844-15.269531-12.171876-14.796875-13.109374-24.3125-20.992187-33.15625-17.976562-2.375.808594-6.554688 3.179688-7.84375 9.957031-1.671875 8.785157 2.214844 18.875 5.644531 27.777344.464844 1.203125.933594 2.417969 1.375 3.609375-3.160156-.214844-6.355469-.328125-9.578125-.328125-.691406 0-1.378906.015625-2.066406.023437-3.488282-6.121093-5.929688-14.082031-8.117188-21.246093-2.40625-7.867188-4.304687-14.078125-7.472656-18.152344-5.457031-7.015625-15.351562-8.671875-26.808594-10.589844-10.121094-1.695312-21.589844-3.617187-30.523437-9.457031-18.566407-12.121094-6.0625-42.847656 3.046875-60.082031 7.214844-13.664063 17.40625-27.402344 38.269531-25.871094 16.113281 1.199219 23.722656-8.109375 31.761719-17.960937 7.917968-9.707032 17.773437-21.789063 40.121094-32.117188 16.324218-7.542969 35.519531-11.34375 55.003906-11.019531-1.570313 3.734375-2.945313 7.566406-4.109375 11.488281-15.105469 4.535156-25.632813 17.175781-25.632813 31.535156 0 6.238282 1.980469 12.289063 5.652344 17.515625-1.585938 3.332031-2.472656 7.054688-2.472656 10.984375 0 12.460938 8.925781 22.875 20.71875 25.195313-.4375 3.792969-1.105469 7.554687-2 11.261719-3.9375 4.222656-6.15625 11.210937-7.402344 22.949218-2.804688 26.421875 20.507812 34.308594 41.074219 41.269532 1.164062.394531 2.339843.792968 3.519531 1.195312 15.898438 5.425781 25.113281-5.800781 31.847656-14.003906 7.027344-8.558594 11.789063-13.742188 20.730469-12.660156 3.335937.402343 5.558594 1.332031 6.605469 2.757812 2.609375 3.554688.96875 12.398438-.480469 20.199219-1.386719 7.46875-2.820313 15.191406-1.488281 21.855469 1 5.003906 3.8125 7.300781 5.996094 8.347656 5.644531 2.707031 11.355468-.253906 18.59375-4.007813 14.113281-7.324219 35.449218-18.390625 64.054687 1.433594 25.9375 17.972656 36.832031 59.660156 41.125 84.253906-11.40625 27.199219-28.113281 52.1875-49.597656 73.671875zm58.984375-100.683594c-11.046875-40.503906-28.316406-60.113281-41.964844-69.574218-36.035156-24.96875-64.316406-10.296875-79.507812-2.417969-1.015626.527344-2.121094 1.101563-3.175782 1.628906.191406-3.472656.96875-7.667969 1.730469-11.773437 1.894531-10.203125 4.015625-21.6875-1.207031-30.335938 4.820312.414063 9.710937.652344 14.679687.652344 21.710938 0 42.140625-4.042969 59.726563-11.59375h49.867187c5.484375 19.816406 8.269531 40.335938 8.269531 61.371094 0 21.269531-2.867187 42.097656-8.417968 62.042968zm7.703125-172.351562c-.589844 0-1.175781-.066406-1.75-.160156-.066407-.011719-.132813-.023438-.203125-.035156-.941406-.175782-1.851563-.46875-2.707032-.886719 2.765626-6.371094 4.792969-13.117188 6.054688-20.1875 5.234375.6875 9.292969 5.164062 9.292969 10.585937-.003907 5.890625-4.796875 10.683594-10.6875 10.683594zm12.550781-33.082031c-2.914062-1.640625-6.175781-2.726563-9.644531-3.117188.027343-.992187.042969-1.984375.042969-2.984375 0-3.757812-.210938-7.554687-.613282-11.332031.898438-1.027344 1.621094-2.179687 2.167969-3.402344 5.710937 3.386719 9.359375 8.816407 9.359375 14.734375 0 2.308594-.527344 4.34375-1.3125 6.101563zm-339.183594 304.996093c7.457032 0 14.546875-3.230468 19.457032-8.859374 2.71875-3.125 2.394531-7.859376-.730469-10.582032s-7.859375-2.394531-10.582031.726563c-2.054688 2.359375-5.027344 3.714843-8.144532 3.714843-3.121094 0-6.09375-1.351562-8.152344-3.714843-2.722656-3.121094-7.460937-3.449219-10.582031-.726563-3.121093 2.722656-3.449219 7.457032-.726562 10.582032 4.90625 5.628906 12 8.859374 19.460937 8.859374zm142.878906-303.578124c4.140626 0 7.5-3.355469 7.5-7.5v-11.242188c0-4.140625-3.359374-7.5-7.5-7.5-4.144531 0-7.5 3.359375-7.5 7.5v11.242188c0 4.144531 3.355469 7.5 7.5 7.5zm0 0"/></svg>