<?xml version="1.0"?>
<svg xmlns="http://www.w3.org/2000/svg" xmlns:xlink="http://www.w3.org/1999/xlink" xmlns:svgjs="http://svgjs.com/svgjs" version="1.1" width="512" height="512" x="0" y="0" viewBox="0 0 512.001 512.001" style="enable-background:new 0 0 512 512" xml:space="preserve" class=""><g>
<path xmlns="http://www.w3.org/2000/svg" style="" d="M381.002,199.012c-2.974-4.46-7.979-7.139-13.34-7.139h-87.613c-5.046,0-9.798,2.376-12.826,6.413  l-19.239,25.652H90.897c-5.36,0-10.366,2.679-13.34,7.139l-37.993,56.99H440.37L381.002,199.012z" fill="#edebed" data-original="#edebed" class=""/>
<path xmlns="http://www.w3.org/2000/svg" style="" d="M496.484,288.067H31.548c-4.427,0-8.016,3.589-8.016,8.016v72.145h418.806l56.872-51.338  c3.368-3.04,5.289-7.364,5.289-11.901v-8.906C504.5,291.655,500.911,288.067,496.484,288.067z" fill="#032136" data-original="#dbd9dc" class=""/>
<path xmlns="http://www.w3.org/2000/svg" style="" d="M400.29,320.131H95.677c-8.854,0-16.032-7.178-16.032-16.032l0,0c0-8.854,7.178-16.032,16.032-16.032  H400.29c8.854,0,16.032,7.178,16.032,16.032l0,0C416.323,312.953,409.145,320.131,400.29,320.131z" fill="#0c578b" data-original="#ffdc64" class=""/>
<polyline xmlns="http://www.w3.org/2000/svg" style="" points="119.726,223.937 103.694,175.841 135.758,175.841 151.79,223.937 " fill="#032136" data-original="#dbd9dc" class=""/>
<path xmlns="http://www.w3.org/2000/svg" style="" d="M484.717,359.319c-8.374,4.172-17.865,8.909-35.956,8.909s-27.574-4.736-35.948-8.909  c-7.669-3.82-14.293-7.124-28.352-7.124c-14.05,0-20.667,3.304-28.327,7.124c-8.374,4.172-17.857,8.909-35.94,8.909  s-27.574-4.736-35.948-8.909c-7.661-3.82-14.277-7.124-28.327-7.124s-20.667,3.304-28.327,7.124  c-8.374,4.172-17.857,8.909-35.932,8.909s-27.566-4.736-35.932-8.909c-7.653-3.82-14.269-7.124-28.311-7.124  c-14.05,0-20.667,3.304-28.319,7.124c-8.365,4.172-17.848,8.909-35.924,8.909s-27.566-4.736-35.932-8.909  c-3.816-1.905-7.376-3.681-11.726-4.983c0,0,0.033,5.746,0.08,12.538c0.103,14.897,10.396,27.867,24.942,31.08  c6.368,1.407,13.825,2.337,22.635,2.337c24.102,0,38.071-6.967,47.313-11.577c6.502-3.246,8.925-4.455,16.93-4.455  c7.996,0,10.419,1.209,16.894,4.442c9.263,4.62,23.238,11.591,47.349,11.591c24.088,0,38.057-6.96,47.3-11.566  c6.531-3.257,8.956-4.466,16.959-4.466c8.003,0,10.428,1.209,16.908,4.441c9.288,4.628,23.263,11.592,47.367,11.592  c24.096,0,38.065-6.96,47.309-11.566c6.531-3.257,8.956-4.466,16.959-4.466c8.018,0,10.449,1.21,16.944,4.446  c9.283,4.626,23.251,11.586,47.356,11.586c8.828,0,16.297-0.933,22.673-2.343c14.529-3.212,24.821-16.148,24.949-31.027  c0.059-6.818,0.101-12.593,0.101-12.593C492.118,355.632,488.548,357.411,484.717,359.319z" fill="#c1e9ff" data-original="#c1e9ff" class=""/>
<polyline xmlns="http://www.w3.org/2000/svg" style="" points="183.855,223.937 167.823,175.841 199.887,175.841 215.919,223.937 " fill="#032136" data-original="#dbd9dc" class=""/>
<path xmlns="http://www.w3.org/2000/svg" style="" d="M392.274,320.13H103.693c-4.427,0-8.016-3.589-8.016-8.016l0,0c0-4.427,3.589-8.016,8.016-8.016  h288.581c4.427,0,8.016,3.589,8.016,8.016l0,0C400.29,316.541,396.701,320.13,392.274,320.13z" fill="#094773" data-original="#ffc850" class=""/>
<path xmlns="http://www.w3.org/2000/svg" style="" d="M71.629,111.712c-13.539,0-25.118,8.391-29.82,20.256c-1.059,2.67-4.495,3.126-6.431,1.005  c-2.932-3.213-7.153-5.229-11.846-5.229c-8.854,0-16.032,7.178-16.032,16.032h96.194C103.694,126.067,89.338,111.712,71.629,111.712  z" fill="#dcf5ff" data-original="#dcf5ff" class=""/>
<path xmlns="http://www.w3.org/2000/svg" d="M470.026,388.493c-8.526,2.893-17.583,4.299-27.686,4.299c-21.503,0-33.547-6.212-42.34-10.747  c-7.101-3.665-10.627-5.286-19.824-5.286c-9.179,0-12.7,1.618-19.828,5.297c-1.087,0.562-2.245,1.159-3.482,1.774  c-3.709,1.844-5.221,6.346-3.377,10.055c1.844,3.709,6.347,5.222,10.055,3.377c1.309-0.651,2.534-1.283,3.723-1.896  c5.92-3.056,6.987-3.607,12.909-3.607c5.941,0,7.011,0.552,12.947,3.616c9.004,4.644,24.073,12.416,49.217,12.416  c11.769,0,22.401-1.667,32.505-5.094c3.922-1.331,6.023-5.59,4.693-9.512C478.208,389.264,473.951,387.162,470.026,388.493z" fill="#000000" data-original="#000000" style="" class=""/>
<path xmlns="http://www.w3.org/2000/svg" d="M327.441,392.364c-3.019,0.284-6.175,0.428-9.382,0.428c-21.505,0-33.542-6.213-42.332-10.75  c-7.095-3.663-10.619-5.282-19.809-5.282c-9.179,0-12.7,1.618-19.792,5.279c-8.792,4.538-20.832,10.753-42.326,10.753  c-21.495,0-33.531-6.215-42.32-10.754c-7.09-3.66-10.611-5.278-19.782-5.278s-12.692,1.618-19.783,5.279  c-6.21,3.207-13.938,7.198-25.594,9.319c-4.075,0.742-6.778,4.646-6.036,8.722s4.648,6.775,8.722,6.036  c13.861-2.522,23.068-7.277,29.79-10.749c5.92-3.056,6.987-3.607,12.901-3.607c5.914,0,6.981,0.551,12.9,3.606  c9,4.647,24.062,12.426,49.202,12.426c25.137,0,40.204-7.778,49.208-12.425c5.92-3.056,6.987-3.607,12.909-3.607  c5.934,0,7.001,0.551,12.929,3.611c9,4.646,24.063,12.421,49.212,12.421c3.675,0,7.305-0.167,10.789-0.495  c4.124-0.388,7.152-4.046,6.764-8.17C335.223,395.003,331.563,391.978,327.441,392.364z" fill="#000000" data-original="#000000" style="" class=""/>
<path xmlns="http://www.w3.org/2000/svg" d="M56.613,391.94c-5.107-0.702-9.896-1.825-14.642-3.433c-3.925-1.33-8.182,0.772-9.51,4.696  c-1.33,3.923,0.773,8.181,4.696,9.51c5.657,1.917,11.354,3.254,17.414,4.087c0.346,0.047,0.69,0.071,1.03,0.071  c3.689,0,6.905-2.723,7.421-6.48C63.586,396.288,60.717,392.504,56.613,391.94z" fill="#000000" data-original="#000000" style="" class=""/>
<path xmlns="http://www.w3.org/2000/svg" d="M512,304.989v-8.906c0-8.556-6.96-15.516-15.516-15.516h-52.099l-57.143-85.714c-4.374-6.562-11.694-10.479-19.58-10.479  h-87.613c-7.367,0-14.405,3.519-18.826,9.413l-16.989,22.652h-22.909l-14.323-42.968c-1.021-3.063-3.887-5.128-7.115-5.128h-32.064  c-2.411,0-4.675,1.159-6.084,3.115c-1.41,1.956-1.793,4.47-1.031,6.757l12.742,38.225h-16.253l-14.323-42.968  c-1.021-3.063-3.887-5.128-7.115-5.128h-32.065c-2.411,0-4.675,1.159-6.084,3.115c-1.41,1.956-1.793,4.47-1.031,6.757l12.742,38.225  H90.897c-7.886,0-15.205,3.917-19.58,10.479L35.55,280.57h-4.002c-8.556,0-15.516,6.96-15.516,15.516v49.038  c-2.612-0.27-5.436-0.425-8.532-0.425c-4.142,0-7.5,3.358-7.5,7.5s3.358,7.5,7.5,7.5c13.703,0,20.147,3.328,27.609,7.18  c8.036,4.149,17.144,8.852,34.491,8.852s26.455-4.703,34.491-8.852c7.462-3.853,13.906-7.18,27.609-7.18  c13.704,0,20.148,3.328,27.61,7.18c8.036,4.149,17.144,8.852,34.491,8.852c17.351,0,26.461-4.703,34.499-8.852  c7.464-3.853,13.911-7.181,27.619-7.181c13.714,0,20.163,3.328,27.63,7.181c8.041,4.149,17.153,8.851,34.509,8.851  c17.351,0,26.462-4.703,34.5-8.852c7.465-3.853,13.911-7.181,27.62-7.181c13.72,0,20.172,3.328,27.643,7.182  c8.042,4.148,17.158,8.851,34.519,8.851c0.001,0,0.001,0,0.001,0h0.001h0.001c17.358-0.001,26.473-4.702,34.515-8.851  c7.471-3.854,13.923-7.182,27.643-7.182c4.142,0,7.5-3.358,7.5-7.5s-3.358-7.5-7.5-7.5c-17.361,0-26.477,4.702-34.52,8.851  c-0.144,0.074-0.286,0.147-0.43,0.221l34.685-31.31C509.17,318.003,512,311.636,512,304.989z M194.481,183.341l11.032,33.097H189.26  l-11.032-33.097H194.481z M130.353,183.341l11.032,33.097h-16.253L114.1,183.341H130.353z M64.955,263.502h303.271  c4.142,0,7.5-3.358,7.5-7.5s-3.358-7.5-7.5-7.5H74.955l8.843-13.265c1.586-2.379,4.24-3.8,7.1-3.8h253.28c4.142,0,7.5-3.358,7.5-7.5  s-3.358-7.5-7.5-7.5h-81.193l10.238-13.651c1.603-2.137,4.155-3.413,6.826-3.413h87.613c2.859,0,5.513,1.42,7.1,3.799l8.844,13.265  h-7.361c-4.142,0-7.5,3.358-7.5,7.5s3.358,7.5,7.5,7.5h17.361l11.376,17.064h-4.69c-4.142,0-7.5,3.358-7.5,7.5s3.358,7.5,7.5,7.5  h14.691l11.376,17.064h-26.067H95.677H53.578L64.955,263.502z M408.823,304.099c0,4.705-3.828,8.532-8.532,8.532h-24.565v-17.064  h24.565C404.995,295.566,408.823,299.394,408.823,304.099z M360.726,295.566v17.064h-33.097v-17.064H360.726z M312.629,295.566  v17.064h-33.097v-17.064H312.629z M264.532,295.566v17.064h-33.097v-17.064H264.532z M216.436,295.566v17.064h-33.097v-17.064  H216.436z M168.339,295.566v17.064h-33.097v-17.064H168.339z M120.242,295.566v17.064H95.677c-4.705,0-8.532-3.828-8.532-8.532  s3.828-8.532,8.532-8.532L120.242,295.566L120.242,295.566z M497,304.989c0,2.41-1.026,4.719-2.815,6.333l-54.671,49.351  c-11.814-0.428-17.882-3.549-24.819-7.127c-8.042-4.148-17.158-8.851-34.519-8.851c-17.351,0-26.462,4.703-34.5,8.852  c-7.465,3.853-13.911,7.181-27.62,7.181c-13.714,0-20.163-3.328-27.63-7.181c-8.04-4.149-17.153-8.851-34.508-8.851  c-17.351,0-26.461,4.703-34.499,8.852c-7.464,3.853-13.911,7.181-27.618,7.181c-13.703,0-20.147-3.327-27.609-7.18  c-8.036-4.149-17.145-8.852-34.492-8.852s-26.455,4.703-34.491,8.852c-7.462,3.853-13.906,7.18-27.609,7.18  s-20.147-3.327-27.609-7.18c-3.302-1.705-6.797-3.499-10.959-5.027v-52.438c0-0.285,0.231-0.516,0.516-0.516h42.204  c-1.034,2.647-1.608,5.523-1.608,8.532c0,12.976,10.557,23.532,23.532,23.532h304.613c12.976,0,23.532-10.557,23.532-23.532  c0-3.009-0.574-5.885-1.608-8.532h74.269c0.285,0,0.516,0.231,0.516,0.516v8.905H497z" fill="#000000" data-original="#000000" style="" class=""/>
<path xmlns="http://www.w3.org/2000/svg" d="M7.5,151.276c4.142,0,7.5-3.358,7.5-7.5c0-4.705,3.828-8.533,8.532-8.533c2.428,0,4.667,0.989,6.306,2.785  c2.708,2.967,6.657,4.309,10.566,3.594c3.813-0.699,6.945-3.275,8.377-6.892c3.737-9.428,12.705-15.52,22.848-15.52  c13.545,0,24.564,11.02,24.564,24.565c0,4.142,3.358,7.5,7.5,7.5h16.032c4.142,0,7.5-3.358,7.5-7.5s-3.358-7.5-7.5-7.5h-9.245  c-3.514-18.243-19.599-32.065-38.852-32.065c-14.584,0-27.661,7.821-34.578,20.307c-3.929-2.754-8.652-4.274-13.519-4.274  C10.557,120.244,0,130.8,0,143.776C0,147.919,3.358,151.276,7.5,151.276z" fill="#000000" data-original="#000000" style="" class=""/>
<path xmlns="http://www.w3.org/2000/svg" d="M344.177,167.309h48.097c4.142,0,7.5-3.358,7.5-7.5s-3.358-7.5-7.5-7.5h-48.097c-4.142,0-7.5,3.358-7.5,7.5  S340.035,167.309,344.177,167.309z" fill="#000000" data-original="#000000" style="" class=""/>
<path xmlns="http://www.w3.org/2000/svg" d="M424.339,167.309h16.032c4.142,0,7.5-3.358,7.5-7.5s-3.358-7.5-7.5-7.5h-16.032c-4.142,0-7.5,3.358-7.5,7.5  S420.197,167.309,424.339,167.309z" fill="#000000" data-original="#000000" style="" class=""/>
<path xmlns="http://www.w3.org/2000/svg" d="M151.791,151.276h24.048c4.142,0,7.5-3.358,7.5-7.5s-3.358-7.5-7.5-7.5h-24.048c-4.142,0-7.5,3.358-7.5,7.5  S147.648,151.276,151.791,151.276z" fill="#000000" data-original="#000000" style="" class=""/>
<path xmlns="http://www.w3.org/2000/svg" d="M39.564,168.341c-4.142,0-7.5,3.358-7.5,7.5s3.358,7.5,7.5,7.5h32.064c4.142,0,7.5-3.358,7.5-7.5s-3.358-7.5-7.5-7.5H39.564  z" fill="#000000" data-original="#000000" style="" class=""/>
<g xmlns="http://www.w3.org/2000/svg">
</g>
<g xmlns="http://www.w3.org/2000/svg">
</g>
<g xmlns="http://www.w3.org/2000/svg">
</g>
<g xmlns="http://www.w3.org/2000/svg">
</g>
<g xmlns="http://www.w3.org/2000/svg">
</g>
<g xmlns="http://www.w3.org/2000/svg">
</g>
<g xmlns="http://www.w3.org/2000/svg">
</g>
<g xmlns="http://www.w3.org/2000/svg">
</g>
<g xmlns="http://www.w3.org/2000/svg">
</g>
<g xmlns="http://www.w3.org/2000/svg">
</g>
<g xmlns="http://www.w3.org/2000/svg">
</g>
<g xmlns="http://www.w3.org/2000/svg">
</g>
<g xmlns="http://www.w3.org/2000/svg">
</g>
<g xmlns="http://www.w3.org/2000/svg">
</g>
<g xmlns="http://www.w3.org/2000/svg">
</g>
</g></svg>
