<svg height="512pt" viewBox="0 -142 512.001 512" width="512pt" xmlns="http://www.w3.org/2000/svg"><path d="m431.765625 0c-44.246094 0-80.238281 35.996094-80.238281 80.238281 0 3.066407.191406 6.085938.527344 9.066407 11.027343 2.023437 20.933593 7.492187 29.332031 15.199218 10.78125 9.898438 15.445312 24.621094 16.082031 38.820313.132812 2.976562-.121094 6.042969-.667969 9.117187 10.574219 5.140625 22.4375 8.03125 34.964844 8.03125 44.242187 0 80.234375-35.996094 80.234375-80.234375 0-44.242187-35.992188-80.238281-80.234375-80.238281zm0 117.160156c-20.363281 0-36.925781-16.5625-36.925781-36.921875 0-20.363281 16.5625-36.925781 36.925781-36.925781 20.359375 0 36.921875 16.5625 36.921875 36.925781 0 20.359375-16.5625 36.921875-36.921875 36.921875zm0 0" fill="#00bf9e"/><path d="m431.765625 0c-3.90625 0-7.742187.296875-11.5.835938 38.808594 5.597656 68.734375 39.066406 68.734375 79.402343 0 40.351563-29.949219 73.832031-68.785156 79.40625 3.769531.546875 7.628906.828125 11.550781.828125 44.242187 0 80.234375-35.992187 80.234375-80.234375 0-44.242187-35.992188-80.238281-80.234375-80.238281zm0 0" fill="#00a983"/><path d="m343.394531 68.035156c-10.113281 0-19.789062 1.898438-28.707031 5.328125.152344 13.378907-6.851562 28.355469-16.09375 37.597657-8.457031 8.457031-20.40625 14.132812-32.441406 15.65625-1.933594 6.890624-2.992188 14.148437-2.992188 21.652343 0 44.242188 35.992188 80.234375 80.234375 80.234375 44.242188 0 80.238281-35.992187 80.238281-80.234375 0-44.242187-35.992187-80.234375-80.238281-80.234375zm0 117.160156c-20.359375 0-36.921875-16.566406-36.921875-36.925781s16.5625-36.925781 36.921875-36.925781c20.363281 0 36.925781 16.566406 36.925781 36.925781s-16.5625 36.925781-36.925781 36.925781zm0 0" fill="#3e7eda"/><path d="m256 0c-44.242188 0-80.234375 35.996094-80.234375 80.238281 0 4.417969.371094 8.75 1.0625 12.976563 13.359375.941406 25.269531 6.902344 35.105469 15.933594 10.78125 9.894531 15.445312 24.621093 16.082031 38.820312.105469 2.390625-.039063 4.84375-.378906 7.3125 8.824219 3.34375 18.378906 5.191406 28.363281 5.191406 44.242188 0 80.234375-35.992187 80.234375-80.234375 0-44.242187-35.992187-80.238281-80.234375-80.238281zm0 117.160156c-20.359375 0-36.925781-16.5625-36.925781-36.921875 0-20.363281 16.566406-36.925781 36.925781-36.925781s36.925781 16.5625 36.925781 36.925781c0 20.359375-16.566406 36.921875-36.925781 36.921875zm0 0" fill="#e480be"/><path d="m174.164062 68.035156c-12.0625 0-23.507812 2.691406-33.78125 7.480469.511719 2.992187.835938 6.007813.972657 9.003906.613281 13.675781-6.558594 29.300781-16.082031 38.820313-8.066407 8.066406-19.300782 13.613281-30.761719 15.433594-.371094 3.117187-.582031 6.28125-.582031 9.496093 0 44.242188 35.992187 80.238281 80.234374 80.238281 44.242188 0 80.238282-35.996093 80.238282-80.238281 0-44.242187-35.996094-80.234375-80.238282-80.234375zm0 117.160156c-20.359374 0-36.925781-16.566406-36.925781-36.925781s16.566407-36.925781 36.925781-36.925781c20.363282 0 36.925782 16.566406 36.925782 36.925781s-16.566406 36.925781-36.925782 36.925781zm0 0" fill="#f45a3c"/><path d="m80.234375 0c-44.242187 0-80.234375 35.996094-80.234375 80.238281 0 44.238281 35.992188 80.234375 80.234375 80.234375s80.238281-35.996094 80.238281-80.234375c0-44.242187-35.992187-80.238281-80.238281-80.238281zm36.925781 80.238281c0 20.359375-16.5625 36.921875-36.925781 36.921875-20.359375 0-36.921875-16.5625-36.921875-36.921875 0-20.363281 16.5625-36.925781 36.921875-36.925781 20.363281 0 36.925781 16.5625 36.925781 36.925781zm0 0" fill="#f9cd45"/><path d="m343.394531 68.035156c-3.90625 0-7.746093.289063-11.503906.835938 38.816406 5.59375 68.742187 39.058594 68.742187 79.398437 0 40.335938-29.925781 73.804688-68.738281 79.398438 3.757813.542969 7.597657.839843 11.5.839843 44.246094 0 80.238281-35.996093 80.238281-80.238281 0-44.242187-35.992187-80.234375-80.238281-80.234375zm0 0" fill="#2970d6"/><path d="m256 0c-3.90625 0-7.742188.296875-11.5.835938 38.8125 5.597656 68.734375 39.066406 68.734375 79.402343 0 40.335938-29.921875 73.800781-68.734375 79.398438 3.757812.546875 7.59375.835937 11.5.835937 44.242188 0 80.234375-35.992187 80.234375-80.234375 0-44.242187-35.992187-80.238281-80.234375-80.238281zm0 0" fill="#d96cba"/><path d="m174.164062 68.035156c-3.910156 0-7.757812.285156-11.519531.832032 38.824219 5.585937 68.757813 39.058593 68.757813 79.402343 0 40.335938-29.925782 73.804688-68.738282 79.398438 3.761719.542969 7.597657.839843 11.5.839843 44.246094 0 80.238282-35.996093 80.238282-80.238281 0-44.242187-35.996094-80.234375-80.238282-80.234375zm0 0" fill="#eb4c36"/><path d="m80.234375 0c-3.902344 0-7.742187.296875-11.5.835938 38.8125 5.597656 68.738281 39.066406 68.738281 79.402343 0 40.335938-29.925781 73.800781-68.738281 79.398438 3.757813.542969 7.597656.835937 11.5.835937 44.246094 0 80.238281-35.992187 80.238281-80.234375 0-44.242187-35.992187-80.238281-80.238281-80.238281zm0 0" fill="#f8b53c"/></svg>