<?xml version="1.0" encoding="iso-8859-1"?>
<!-- Generator: Adobe Illustrator 19.0.0, SVG Export Plug-In . SVG Version: 6.00 Build 0)  -->
<svg version="1.1" id="Capa_1" xmlns="http://www.w3.org/2000/svg" xmlns:xlink="http://www.w3.org/1999/xlink" x="0px" y="0px"
	 viewBox="0 0 429.5 429.5" style="enable-background:new 0 0 429.5 429.5;" xml:space="preserve">
<rect x="359.6" y="153.85" style="fill:#FDC75B;" width="56.3" height="238.4"/>
<g>
	<circle style="fill:#ED664C;" cx="387.7" cy="68.55" r="31.8"/>
	<rect x="244.2" y="226.05" style="fill:#ED664C;" width="56.3" height="166.3"/>
	<circle style="fill:#ED664C;" cx="272.4" cy="141.05" r="31.8"/>
	<circle style="fill:#ED664C;" cx="157" cy="214.45" r="31.8"/>
</g>
<rect x="128.8" y="300.15" style="fill:#FDC75B;" width="56.3" height="92.2"/>
<g>
	<circle style="fill:#ED664C;" cx="41.7" cy="193.45" r="31.8"/>
	<rect x="13.5" y="279.45" style="fill:#ED664C;" width="56.3" height="112.9"/>
</g>
<path d="M387.7,26.75c-23.1,0-41.8,18.8-41.8,41.8c0,3.8,0.5,7.5,1.5,11l-45.3,32.1c-7.6-7.7-18.1-12.5-29.7-12.5
	c-23.1,0-41.8,18.8-41.8,41.8c0,5,0.9,9.8,2.5,14.2l-41.8,35.2c-7.6-10.8-20.1-17.9-34.2-17.9c-18.2,0-33.7,11.7-39.4,27.9
	L83,186.25c-3.3-19.7-20.5-34.8-41.2-34.8c-23.1,0-41.8,18.8-41.8,41.8c0,23.1,18.8,41.8,41.8,41.8c18.2,0,33.7-11.7,39.4-27.9
	l34.7,14.1c3.3,19.7,20.5,34.8,41.2,34.8c23.1,0,41.8-18.8,41.8-41.8c0-1.3-0.1-2.7-0.2-4l45.6-38.5c7.4,6.8,17.3,10.9,28.1,10.9
	c23.1,0,41.8-18.8,41.8-41.8c0-4.2-0.6-8.3-1.8-12.1l44.8-31.8c7.6,8.2,18.5,13.3,30.5,13.3c23.1,0,41.8-18.8,41.8-41.8
	C429.6,45.55,410.8,26.75,387.7,26.75z M41.7,215.25c-12,0-21.8-9.8-21.8-21.8s9.8-21.8,21.8-21.8s21.8,9.8,21.8,21.8
	S53.7,215.25,41.7,215.25z M157,236.25c-12,0-21.8-9.8-21.8-21.8c0-12,9.8-21.8,21.8-21.8s21.8,9.8,21.8,21.8
	C178.8,226.45,169,236.25,157,236.25z M272.4,162.85c-12,0-21.8-9.8-21.8-21.8s9.8-21.8,21.8-21.8s21.8,9.8,21.8,21.8
	S284.4,162.85,272.4,162.85z M387.7,90.35c-12,0-21.8-9.8-21.8-21.8s9.8-21.8,21.8-21.8s21.8,9.8,21.8,21.8
	C409.6,80.65,399.8,90.35,387.7,90.35z"/>
<path d="M425.7,153.75c0-5.5-4.5-10-10-10h-56c-5.5,0-10,4.5-10,10v238c0,5.5,4.5,10,10,10h56c5.5,0,10-4.5,10-10V153.75z
	 M405.7,382.75h-36v-219h36V382.75z"/>
<path d="M310.7,225.75c0-5.5-4.5-10-10-10h-56c-5.5,0-10,4.5-10,10v166c0,5.5,4.5,10,10,10h56c5.5,0,10-4.5,10-10V225.75z
	 M290.7,382.75h-36v-147h36V382.75z"/>
<path d="M194.7,300.75c0-5.5-4.5-10-10-10h-56c-5.5,0-10,4.5-10,10v92c0,5.5,4.5,10,10,10h56c5.5,0,10-4.5,10-10V300.75z
	 M174.7,382.75h-36v-72h36V382.75z"/>
<path d="M79.7,279.75c0-5.5-4.5-10-10-10h-56c-5.5,0-10,4.5-10,10v113c0,5.5,4.5,10,10,10h56c5.5,0,10-4.5,10-10V279.75z
	 M59.7,382.75h-36v-93h36V382.75z"/>
<g>
</g>
<g>
</g>
<g>
</g>
<g>
</g>
<g>
</g>
<g>
</g>
<g>
</g>
<g>
</g>
<g>
</g>
<g>
</g>
<g>
</g>
<g>
</g>
<g>
</g>
<g>
</g>
<g>
</g>
</svg>
