<?xml version="1.0" encoding="iso-8859-1"?>
<!-- Generator: Adobe Illustrator 19.0.0, SVG Export Plug-In . SVG Version: 6.00 Build 0)  -->
<svg version="1.1" id="Capa_1" xmlns="http://www.w3.org/2000/svg" xmlns:xlink="http://www.w3.org/1999/xlink" x="0px" y="0px"
	 viewBox="0 0 392.3 392.3" style="enable-background:new 0 0 392.3 392.3;" xml:space="preserve">
<path style="fill:#FDC75B;" d="M261.3,191c4.8-0.8,9.7-1.1,14.7-1.1c53.1,0,96.2,43.1,96.2,96.2s-43.1,96.2-96.2,96.2
	c-32.7,0-61.5-16.3-78.9-41.2l0,0c-10.9-15.6-17.2-34.5-17.2-55c0-9,1.2-17.8,3.6-26.1C193.5,224.1,223.8,196.7,261.3,191z"/>
<g>
	<path style="fill:#ED664C;" d="M261.3,136.4V191c-37.5,5.8-67.8,33.1-77.9,69c-13.3,1.8-27.7,2.8-42.8,2.8
		C74,262.8,20,243.3,20,219.2v-1.7v-81c0,24.1,54,43.7,120.6,43.7C207.3,180,261.3,160.5,261.3,136.4z"/>
	<path style="fill:#ED664C;" d="M261.3,53.7v82.7c0,24.1-54,43.7-120.6,43.7S20.1,160.6,20.1,136.4V53.7c0,24.1,54,43.7,120.6,43.7
		C207.3,97.3,261.3,77.8,261.3,53.7z"/>
	<ellipse style="fill:#ED664C;" cx="140.6" cy="53.7" rx="120.6" ry="43.7"/>
	<path style="fill:#ED664C;" d="M183.4,259.9c-2.3,8.3-3.6,17-3.6,26.1c0,20.4,6.4,39.4,17.2,55c-16.8,3.2-36,5.1-56.4,5.1
		C74,346.1,20,326.6,20,302.4v-83.3c0,24.1,54,43.6,120.6,43.6C155.7,262.8,170.1,261.8,183.4,259.9z"/>
</g>
<path d="M52,342.7c23.8,8.6,55.3,13.4,88.7,13.4c18.3,0,35.8-1.4,52.1-4.1c20.1,25.3,50.7,40.3,83.2,40.3
	c58.5,0,106.2-47.6,106.2-106.2c0-58.5-47.7-106.2-106.3-106.2c-1.6,0-2.8,0-4.8,0.1V53.7c0-11.4-7.2-27.7-41.8-40.3
	C205.5,4.8,174,0,140.6,0S75.8,4.8,52,13.4C17.3,25.9,10.1,42.2,10.1,53.7v163.7v85C10.1,313.9,17.3,330.1,52,342.7z M58.8,323.9
	c-21.2-7.7-28.7-16.4-28.7-21.5v-53.5c6,3.6,12.8,7.2,21.9,10.5c23.8,8.6,55.3,13.4,88.7,13.4c10.3,0,20.3-0.5,30.2-1.3
	c-0.7,4.8-1,9.7-1,14.6c0,5.4,0.4,10.8,1.2,16c-0.5-5-4.8-8.9-9.9-8.9h-40c-5.5,0-10,4.5-10,10s4.5,10,10,10h40c5.5,0,10-4.5,10-10
	c0-0.3,0-0.7-0.1-1c1.7,10.9,5,21.5,10,31.4c-12.8,1.7-26.5,2.6-40.3,2.6C109.6,336.1,80.5,331.7,58.8,323.9z M362.2,286
	c0,47.5-38.7,86.2-86.2,86.2c-28.2,0-54.6-13.8-70.7-36.9c-0.1-0.1-0.2-0.2-0.2-0.3c-10-14.4-15.2-31.3-15.2-48.9
	c0-7.9,1.1-15.8,3.2-23.4c9.1-32.4,36.5-56.7,69.8-61.8c4.3-0.7,8.7-1,13.2-1C323.5,199.8,362.2,238.5,362.2,286z M140.6,20
	c72.6,0,110.6,21.9,110.6,33.7c0,11.7-38,33.7-110.6,33.7S30,65.4,30,53.7C30,41.9,68,20,140.6,20z M30.1,83.5
	c6,3.6,12.8,7.2,21.9,10.5c23.8,8.6,55.3,13.4,88.7,13.4s64.8-4.8,88.6-13.4c9.1-3.3,15.8-6.8,21.8-10.5v52.9
	c0,11.7-37.9,33.6-110.5,33.6S30.1,148.1,30.1,136.4V83.5z M30.1,217.4v-51.2c6,3.6,12.8,7.2,21.9,10.5
	c23.8,8.6,55.3,13.4,88.7,13.4s64.8-4.8,88.6-13.4c9.1-3.3,15.8-6.8,21.8-10.5v16.6c-35,8.3-63.4,34.1-75.3,68
	c-11.3,1.3-23.1,2-35.2,2c-31.1,0-60.1-4.3-81.8-12.2c-21.2-7.7-28.7-16.4-28.7-21.5V217.4z"/>
<path d="M121.1,147.1h40c5.5,0,10-4.5,10-10s-4.5-10-10-10h-40c-5.5,0-10,4.5-10,10S115.6,147.1,121.1,147.1z"/>
<path d="M121.1,229.1h40c5.5,0,10-4.5,10-10s-4.5-10-10-10h-40c-5.5,0-10,4.5-10,10S115.6,229.1,121.1,229.1z"/>
<path d="M231.4,274.3c-3.9,3.9-4,10.2-0.1,14.1l27,27.5c1.9,1.9,4.4,3.2,7.1,3.2l0,0c2.7,0,5.2-1.3,7.1-3.1l48.1-48.2
	c3.9-3.9,3.9-10.3,0-14.2s-10.2-3.9-14.1,0l-41,41l-19.9-20.1C241.7,270.5,235.4,270.4,231.4,274.3z"/>
<g>
</g>
<g>
</g>
<g>
</g>
<g>
</g>
<g>
</g>
<g>
</g>
<g>
</g>
<g>
</g>
<g>
</g>
<g>
</g>
<g>
</g>
<g>
</g>
<g>
</g>
<g>
</g>
<g>
</g>
</svg>
