<?xml version="1.0" encoding="iso-8859-1"?>
<!-- Generator: Adobe Illustrator 19.0.0, SVG Export Plug-In . SVG Version: 6.00 Build 0)  -->
<svg version="1.1" id="Capa_1" xmlns="http://www.w3.org/2000/svg" xmlns:xlink="http://www.w3.org/1999/xlink" x="0px" y="0px"
	 viewBox="0 0 470 470" style="enable-background:new 0 0 470 470;" xml:space="preserve">
<path style="fill:#FDC75B;" d="M460.2,45.3v316.4H310.1H165.2H9.8V45.3H460.2z M423.7,323.6v-245H46.3v245H423.7z"/>
<path style="fill:#ED664C;" d="M423.7,78.6v245H46.3v-245C46.3,78.6,423.7,78.6,423.7,78.6z M335.1,230.3l41.1-21.7l-121.8-42.4
	L296.8,288l21.7-41.1l29.8,29.5l16.4-16.4L335.1,230.3z"/>
<polygon style="fill:#FDC75B;" points="376.2,208.6 335.1,230.3 364.6,260 348.2,276.4 318.4,246.9 296.8,288 254.3,166.1 "/>
<polygon style="fill:#ED664C;" points="310.1,421.1 310.1,424.7 165.2,424.7 165.2,421.1 165.2,361.7 310.1,361.7 "/>
<path d="M460.2,35H9.8C4.3,35,0,39.7,0,45.3v316.4c0,5.5,4.3,10.3,9.8,10.3H155v43h-29.5c-5.5,0-10,4.5-10,10s4.5,10,10,10h218.9
	c5.5,0,10-4.5,10-10s-4.5-10-10-10H320v-43h140.2c5.5,0,9.8-4.8,9.8-10.3V45.3C470,39.7,465.7,35,460.2,35z M300,415H175v-43h125
	V415z M450,352H20V55h430V352z"/>
<path d="M433,79c0-5.5-4.5-10-10-10H46c-5.5,0-10,4.5-10,10v245c0,5.5,4.5,10,10,10h377c5.5,0,10-4.5,10-10V79z M56,89h358v225H56
	V89z"/>
<path d="M379.4,199.1l-121.8-42.4c-3.6-1.3-7.6-0.3-10.4,2.4c-2.7,2.7-3.6,6.7-2.4,10.4l42.4,121.8c1.3,3.8,4.7,6.4,8.7,6.7
	c0.3,0,0.5,0,0.8,0c3.7,0,7.1-2,8.8-5.3l15.4-29.1l20.2,20c3.9,3.9,10.2,3.9,14.1,0l16.4-16.4c3.9-3.9,3.9-10.2,0-14.1l-20-20.2
	l29.1-15.4c3.5-1.9,5.6-5.6,5.3-9.6C385.8,203.9,383.2,200.4,379.4,199.1z M328,237.3l22.5,22.7l-2.3,2.3l-22.7-22.5
	c-2.2-2.2-5.4-3.3-8.6-2.8c-3.1,0.5-5.8,2.4-7.3,5.2l-11,20.8l-28.1-80.6l80.6,28.1l-20.8,11c-2.8,1.5-4.7,4.2-5.2,7.3
	C324.7,231.9,325.7,235,328,237.3z"/>
<path d="M221.9,119.7c-3.9-3.9-10.2-3.9-14.1,0c-3.9,3.9-3.9,10.2,0,14.1l14.5,14.5c2,1.9,4.5,2.9,7.1,2.9s5.1-1,7.1-2.9
	c3.9-3.9,3.9-10.2,0-14.1L221.9,119.7z"/>
<path d="M257.2,138.7c0.9,4.8,5.1,8.2,9.8,8.2c0.6,0,1.2-0.1,1.9-0.2c5.4-1,9-6.2,8-11.7l-4.2-22.2c-1-5.4-6.3-9-11.7-8
	c-5.4,1-9,6.2-8,11.7L257.2,138.7z"/>
<path d="M226.9,169l-22.2-4.2c-5.4-1-10.7,2.6-11.7,8s2.5,10.7,8,11.7l22.2,4.2c0.6,0.1,1.2,0.2,1.9,0.2c4.7,0,8.9-3.3,9.8-8.2
	C235.9,175.3,232.3,170.1,226.9,169z"/>
<g>
</g>
<g>
</g>
<g>
</g>
<g>
</g>
<g>
</g>
<g>
</g>
<g>
</g>
<g>
</g>
<g>
</g>
<g>
</g>
<g>
</g>
<g>
</g>
<g>
</g>
<g>
</g>
<g>
</g>
</svg>
