<?xml version="1.0" encoding="iso-8859-1"?>
<!-- Generator: Adobe Illustrator 19.0.0, SVG Export Plug-In . SVG Version: 6.00 Build 0)  -->
<svg version="1.1" id="Capa_1" xmlns="http://www.w3.org/2000/svg" xmlns:xlink="http://www.w3.org/1999/xlink" x="0px" y="0px"
	 viewBox="0 0 429.9 429.9" style="enable-background:new 0 0 429.9 429.9;" xml:space="preserve">
<polygon style="fill:#FDC75B;" points="420.5,200.65 420.5,371.35 314.5,323.35 314.5,248.65 "/>
<g>
	<path style="fill:#ED664C;" d="M314.5,248.65v74.7v28c0,17.3-14.1,31.4-31.4,31.4H41c-17.3,0-31.4-14.1-31.4-31.4v-131.3
		c0-17.3,14.1-31.4,31.4-31.4h47.9h143.3H283c17.3,0,31.4,14.1,31.4,31.4v28.6H314.5z M254.5,322.85v-74.3h-185v74.3L254.5,322.85
		L254.5,322.85z"/>
	<path style="fill:#ED664C;" d="M232.1,47.75c36,0,65.3,29.2,65.3,65.3s-29.2,65.3-65.3,65.3s-65.3-29.2-65.3-65.3
		C166.9,76.95,196.1,47.75,232.1,47.75z M253.5,113.05c0-11.8-9.6-21.3-21.4-21.3s-21.4,9.5-21.4,21.3s9.6,21.4,21.4,21.4
		C243.9,134.35,253.5,124.75,253.5,113.05z"/>
</g>
<rect x="69.5" y="248.55" style="fill:#FDC75B;" width="185.1" height="74.3"/>
<path style="fill:#ED664C;" d="M88.8,47.75c36.1,0,65.3,29.2,65.3,65.3s-29.2,65.3-65.3,65.3c-36,0-65.3-29.2-65.3-65.3
	C23.6,76.95,52.8,47.75,88.8,47.75z M110.2,113.05c0-11.8-9.5-21.3-21.4-21.3c-11.8,0-21.3,9.5-21.3,21.3s9.5,21.4,21.3,21.4
	C100.7,134.35,110.2,124.75,110.2,113.05z"/>
<path d="M41,392.25h242c22.8,0,41-18.1,41-40.9v-12.5l92.1,41.6c1.3,0.6,2.8,0.9,4.2,0.9c1.9,0,3.6-0.5,5.2-1.6
	c2.9-1.8,4.4-5,4.4-8.4v-170.7c0-3.4-1.5-6.6-4.3-8.4c-2.9-1.8-6.6-2.1-9.7-0.7l-92,41.6v-13.1c0-22.8-18.1-41.8-41-41.8H269
	c22.9-13,38.4-37.3,38.4-65.4c0-41.5-33.8-75.2-75.3-75.2c-33.4,0-61.9,22-71.6,52.2c-9.8-30.2-38.2-52.2-71.7-52.2
	c-41.5,0-75.3,33.6-75.3,75.1c0,28.1,15.5,52.4,38.4,65.4H41c-22.8,0-41,19-41,41.8v131.3C0,374.15,18.1,392.25,41,392.25z
	 M324,255.15l86-39v139.7l-86-39V255.15z M232.1,57.75c30.5,0,55.3,24.8,55.3,55.3s-24.8,55.3-55.3,55.3s-55.3-24.8-55.3-55.3
	C176.9,82.55,201.7,57.75,232.1,57.75z M195.3,178.25h-69.6c16.4-9,28.9-24.4,34.8-42.5C166.4,153.85,178.9,169.25,195.3,178.25z
	 M33.6,113.05c0-30.5,24.8-55.3,55.3-55.3s55.3,24.8,55.3,55.3s-24.8,55.3-55.3,55.3S33.6,143.55,33.6,113.05z M20,219.65
	c0-11.8,9.6-21.4,21.4-21.4h242.2c11.8,0,21.4,9.6,21.4,21.4v131.2c0,11.8-9.6,21.4-21.4,21.4H41.4c-11.8,0-21.4-9.6-21.4-21.4
	V219.65z"/>
<path d="M232.1,144.35c17.3,0,31.4-14.1,31.4-31.4s-14.1-31.3-31.4-31.3s-31.4,14-31.4,31.3C200.8,130.35,214.8,144.35,232.1,144.35
	z M232.1,101.65c6.3,0,11.4,5.1,11.4,11.3c0,6.3-5.1,11.4-11.4,11.4s-11.4-5.1-11.4-11.4C220.8,106.75,225.9,101.65,232.1,101.65z"
	/>
<path d="M120.2,113.05c0-17.3-14.1-31.3-31.4-31.3s-31.3,14-31.3,31.3s14,31.4,31.3,31.4C106.1,144.35,120.2,130.35,120.2,113.05z
	 M77.5,113.05c0-6.2,5.1-11.3,11.3-11.3c6.3,0,11.4,5.1,11.4,11.3c0,6.3-5.1,11.4-11.4,11.4C82.6,124.35,77.5,119.25,77.5,113.05z"
	/>
<path d="M69,332.25h185c5.5,0,10-4.5,10-10v-74c0-5.5-4.5-10-10-10H69c-5.5,0-10,4.5-10,10v74C59,327.75,63.5,332.25,69,332.25z
	 M79,258.25h166v55H79V258.25z"/>
<g>
</g>
<g>
</g>
<g>
</g>
<g>
</g>
<g>
</g>
<g>
</g>
<g>
</g>
<g>
</g>
<g>
</g>
<g>
</g>
<g>
</g>
<g>
</g>
<g>
</g>
<g>
</g>
<g>
</g>
</svg>
