<svg id="Capa_1" enable-background="new 0 0 512.626 512.626" height="512" viewBox="0 0 512.626 512.626" width="512" xmlns="http://www.w3.org/2000/svg"><g><g><path d="m111.549 83.077c-4.327-1.146-8.869-1.764-13.556-1.764h-37.676c-29.17 0-52.817 23.647-52.817 52.817v244.366c0 29.17 23.647 52.817 52.817 52.817h37.676c4.688 0 9.229-.618 13.556-1.764 22.6-5.986 39.261-26.57 39.261-51.053v-244.366c0-24.482-16.661-45.067-39.261-51.053z" fill="#53a3ec"/><path d="m72.289 378.496v-244.366c0-24.482 16.661-45.067 39.261-51.053-4.327-1.146-8.869-1.764-13.556-1.764h-37.677c-29.17 0-52.817 23.647-52.817 52.817v244.366c0 29.17 23.647 52.817 52.817 52.817h37.676c4.688 0 9.229-.618 13.556-1.764-22.6-5.986-39.26-26.57-39.26-51.053z" fill="#3085d1"/></g><g><path d="m472.584 195.987-131.728-76.053-51.621-29.804c-43.39-25.051-97.627 6.262-97.627 56.365v211.714c0 50.102 54.237 81.416 97.627 56.365l51.621-29.804 131.728-76.054c43.39-25.05 43.39-87.678 0-112.729z" fill="#53a3ec"/><path d="m294.85 306.152v-107.6c0-32.213 17.185-61.979 45.083-78.086l.923-.533-51.621-29.803c-43.39-25.051-97.627 6.262-97.627 56.365v211.714c0 50.102 54.237 81.416 97.627 56.365l51.621-29.804-.923-.533c-27.897-16.106-45.083-45.872-45.083-78.085z" fill="#3085d1"/></g><g fill="#ff8e9e"><path d="m258.81 254.539c-16.212 0-29.355 10.466-29.355 23.377s13.143 23.376 29.355 23.376 29.355-10.466 29.355-23.376-13.142-23.377-29.355-23.377z"/><path d="m417.924 254.539c-16.212 0-29.355 10.466-29.355 23.377s13.143 23.376 29.355 23.376 29.355-10.466 29.355-23.376-13.143-23.377-29.355-23.377z"/></g><g><g><path d="m97.993 438.813h-37.676c-15.125 0-29.593-5.624-40.737-15.835-11.073-10.145-17.934-23.938-19.319-38.837-.383-4.125 2.649-7.779 6.773-8.162 4.121-.381 7.779 2.648 8.162 6.773 2.176 23.408 21.573 41.061 45.12 41.061h37.676c24.988 0 45.317-20.329 45.317-45.316v-244.367c0-24.988-20.329-45.317-45.317-45.317h-37.675c-24.988 0-45.317 20.329-45.317 45.317v219.325c0 4.143-3.358 7.5-7.5 7.5s-7.5-3.357-7.5-7.5v-219.325c0-33.259 27.058-60.317 60.317-60.317h37.676c33.259 0 60.317 27.059 60.317 60.317v244.366c0 33.259-27.058 60.317-60.317 60.317z"/></g><g><path d="m256.792 430.892c-40.079 0-72.685-32.605-72.685-72.683v-179.877c0-4.143 3.358-7.5 7.5-7.5s7.5 3.357 7.5 7.5v179.878c0 35.629 29.942 57.683 57.685 57.683 10.062 0 19.715-2.628 28.692-7.813l63.792-36.831c.004-.001.007-.003.01-.005l119.548-69.021c18.028-10.409 28.792-29.053 28.792-49.87 0-20.818-10.764-39.461-28.792-49.87l-183.35-105.858c-8.979-5.184-18.633-7.813-28.693-7.813-27.742 0-57.684 22.054-57.684 57.683v1.836c0 4.143-3.358 7.5-7.5 7.5s-7.5-3.357-7.5-7.5v-1.836c0-40.077 32.605-72.683 72.684-72.683 12.548 0 25.063 3.396 36.193 9.822l183.35 105.856c22.725 13.12 36.292 36.619 36.292 62.86 0 26.24-13.567 49.739-36.292 62.86l-119.548 69.021c-.002.001-.005.003-.007.004l-63.795 36.832c-11.127 6.429-23.642 9.825-36.192 9.825z"/></g><g><g><path d="m275.918 262.913c-4.142 0-7.5-3.357-7.5-7.5v-12c0-4.143 3.358-7.5 7.5-7.5s7.5 3.357 7.5 7.5v12c0 4.142-3.357 7.5-7.5 7.5z"/></g><g><path d="m400.815 262.913c-4.143 0-7.5-3.357-7.5-7.5v-12c0-4.143 3.357-7.5 7.5-7.5s7.5 3.357 7.5 7.5v12c0 4.142-3.357 7.5-7.5 7.5z"/></g><g><path d="m338.367 270.055c-8.479 0-16.541-3.671-22.119-10.073-2.721-3.122-2.396-7.86.727-10.581 3.123-2.722 7.86-2.396 10.582.728 2.729 3.131 6.668 4.927 10.81 4.927 4.141 0 8.081-1.796 10.81-4.927 2.72-3.125 7.458-3.449 10.581-.728s3.449 7.459.728 10.581c-5.579 6.402-13.64 10.073-22.119 10.073z"/></g></g></g></g></svg>