<svg id="Capa_1" enable-background="new 0 0 512 512" height="512" viewBox="0 0 512 512" width="512" xmlns="http://www.w3.org/2000/svg"><g><g><path d="m465.24 82.752c-4.327-1.146-8.869-1.764-13.556-1.764h-37.676c-29.17 0-52.817 23.647-52.817 52.817v244.366c0 29.17 23.647 52.817 52.817 52.817h37.676c4.688 0 9.229-.618 13.556-1.764 22.6-5.986 39.261-26.57 39.261-51.053v-244.367c-.001-24.482-16.661-45.067-39.261-51.052z" fill="#53a3ec"/><path d="m425.979 378.171v-244.367c0-24.482 16.661-45.067 39.26-51.053-4.327-1.146-8.869-1.764-13.556-1.764h-37.676c-29.17 0-52.817 23.647-52.817 52.817v244.366c0 29.17 23.647 52.817 52.817 52.817h37.676c4.688 0 9.229-.618 13.556-1.764-22.599-5.985-39.26-26.57-39.26-51.052z" fill="#3085d1"/></g><g><path d="m223.393 97.726-9.771 5.641-41.851 24.163-131.728 76.054c-43.39 25.051-43.39 87.679 0 112.73l131.728 76.053 41.85 24.162 9.771 5.642c43.39 25.051 97.627-6.263 97.627-56.365v-211.714c.001-50.102-54.237-81.416-97.626-56.366z" fill="#53a3ec"/><path d="m168.269 326.645v-133.393c0-35.699 17.035-68.963 45.353-89.884l-41.851 24.163-131.728 76.053c-43.39 25.051-43.39 87.679 0 112.73l131.728 76.053 41.85 24.162c-28.317-20.921-45.352-54.185-45.352-89.884z" fill="#3085d1"/></g><g><g><g><ellipse cx="94.703" cy="283.012" fill="#ff8e9e" rx="29.355" ry="23.377"/></g><g><ellipse cx="253.817" cy="283.012" fill="#ff8e9e" rx="29.355" ry="23.377"/></g></g></g><g><path d="m504.5 360.63c4.143 0 7.5-3.357 7.5-7.5v-219.325c0-33.259-27.059-60.317-60.317-60.317h-37.676c-33.259 0-60.316 27.059-60.316 60.317v244.366c0 33.259 27.058 60.316 60.316 60.316h37.676c31.311 0 57.196-23.901 60.056-54.672.384-4.125-2.649-7.779-6.773-8.162-4.134-.394-7.779 2.649-8.162 6.773-2.176 23.408-21.573 41.061-45.12 41.061h-37.676c-24.987 0-45.316-20.329-45.316-45.316v-244.366c0-24.988 20.329-45.317 45.316-45.317h37.676c24.988 0 45.317 20.329 45.317 45.317v219.325c-.001 4.142 3.357 7.5 7.499 7.5z"/><path d="m219.643 91.231-141.746 81.837c-3.587 2.071-4.816 6.658-2.745 10.245 2.071 3.588 6.658 4.814 10.245 2.745l141.745-81.837c38.307-22.118 86.377 5.592 86.377 49.87v211.714c0 44.219-48.032 72.01-86.377 49.87l-183.349-105.856c-18.029-10.41-28.793-29.052-28.793-49.871 0-20.817 10.764-39.46 28.793-49.869l15.624-9.021c3.587-2.071 4.816-6.658 2.745-10.245-2.071-3.588-6.659-4.814-10.245-2.745l-15.624 9.021c-22.726 13.12-36.293 36.619-36.293 62.859s13.567 49.74 36.293 62.861l183.35 105.856c48.658 28.092 108.876-7.359 108.876-62.86v-211.713c0-55.421-60.161-90.986-108.876-62.861z"/><path d="m119.312 260.745v-12c0-4.143-3.358-7.5-7.5-7.5s-7.5 3.357-7.5 7.5v12c0 4.143 3.358 7.5 7.5 7.5s7.5-3.357 7.5-7.5z"/><path d="m244.209 260.745v-12c0-4.143-3.358-7.5-7.5-7.5s-7.5 3.357-7.5 7.5v12c0 4.143 3.358 7.5 7.5 7.5s7.5-3.357 7.5-7.5z"/><path d="m174.26 275.389c8.478 0 16.54-3.672 22.119-10.073 2.721-3.123 2.396-7.86-.727-10.582s-7.86-2.396-10.582.727c-2.729 3.133-6.669 4.929-10.81 4.929s-8.081-1.796-10.81-4.929c-2.722-3.122-7.458-3.447-10.582-.727-3.123 2.722-3.448 7.459-.727 10.582 5.58 6.401 13.642 10.073 22.119 10.073z"/></g></g></svg>