<svg id="Capa_1" enable-background="new 0 0 512 512" height="512" viewBox="0 0 512 512" width="512" xmlns="http://www.w3.org/2000/svg"><g><g><path d="m471.204 198.329c-19.649-11.344-185.356-107.015-187.596-108.308-40.538-23.405-90.322 1.28-98.666 44.775-12.994-7.502-69.078-39.882-77.553-44.775-44.396-25.632-99.889 6.407-99.889 57.67v216.617c0 51.263 55.493 83.302 99.888 57.67 8.474-4.893 64.559-37.273 77.553-44.775 8.345 43.495 58.128 68.18 98.666 44.775 2.251-1.299 168.038-97.017 187.596-108.309 44.396-25.63 44.396-89.708.001-115.34z" fill="#53a3ec"/><path d="m113.134 311.046v-110.092c0-32.959 17.583-63.415 46.127-79.894l.944-.545-52.817-30.494c-44.395-25.632-99.888 6.407-99.888 57.67v216.617c0 51.262 55.493 83.301 99.888 57.67l52.817-30.494-.944-.545c-28.544-16.479-46.127-46.934-46.127-79.893z" fill="#3085d1"/></g><g><g><g><ellipse cx="152.435" cy="262.812" fill="#ff8e9e" rx="30.834" ry="24.555"/></g><g><ellipse cx="319.565" cy="262.812" fill="#ff8e9e" rx="30.834" ry="24.555"/></g></g></g><g><path d="m467.739 307.009c-1.522.878-186.385 107.611-187.881 108.474-35.155 20.294-78.681.048-87.176-37.953l1.922-6.314c1.207-3.963-1.028-8.153-4.991-9.359-3.965-1.209-8.152 1.028-9.359 4.99l-1.626 5.341c-16.536 9.548-66.988 38.677-74.99 43.296-9.213 5.319-19.12 8.017-29.438 8.017-29.38-.033-59.2-23.245-59.2-59.191v-216.619c0-21.976 11.531-41.379 30.845-51.903 3.637-1.982 4.979-6.537 2.997-10.175-1.981-3.638-6.536-4.979-10.174-2.997-24.213 13.194-38.668 37.521-38.668 65.075v216.617c0 41.092 33.157 74.155 74.193 74.192 12.809 0 25.584-3.467 36.945-10.026 7.201-4.156 48.784-28.164 69.088-39.888 14.769 43.085 65.953 63.661 107.131 39.889.675-.389 187.272-108.12 188.002-108.545 3.568-2.104 4.755-6.702 2.65-10.27-2.104-3.569-6.703-4.755-10.27-2.651z"/><path d="m474.954 191.834c-7.199-4.156-181.802-104.963-187.596-108.308-41.167-23.768-92.359-3.211-107.132 39.888l-69.087-39.888c-12.447-7.187-26.556-10.653-40.644-9.933-4.137.209-7.321 3.731-7.112 7.868.208 4.138 3.743 7.353 7.868 7.112 11.361-.567 22.306 2.121 32.388 7.942l74.99 43.296 1.626 5.341c1.207 3.965 5.4 6.196 9.359 4.99 3.963-1.206 6.197-5.396 4.991-9.359l-1.922-6.314c8.473-37.897 51.927-58.304 87.177-37.952 2.025 1.168 186.263 107.537 187.595 108.307 18.5 10.682 29.545 29.812 29.545 51.175-.001 11.894-3.438 23.301-9.942 32.989-2.309 3.438-1.392 8.099 2.048 10.407 3.44 2.309 8.1 1.39 10.407-2.048 8.168-12.169 12.486-26.465 12.487-41.347 0-26.786-13.849-50.774-37.046-64.166z"/><path d="m177.905 238.873v-12c0-4.142-3.358-7.5-7.5-7.5s-7.5 3.358-7.5 7.5v12c0 4.142 3.358 7.5 7.5 7.5s7.5-3.358 7.5-7.5z"/><path d="m258.948 243.728c2.721-3.123 2.396-7.86-.727-10.582-3.123-2.721-7.861-2.396-10.582.727-6.164 7.074-17.12 7.068-23.279 0-2.721-3.122-7.459-3.447-10.582-.727-12.663 11.037 24.174 34.674 45.17 10.582z"/><path d="m297.506 238.539c0-3.532 2.874-6.406 6.406-6.406s6.406 2.874 6.406 6.406c0 4.142 3.358 7.5 7.5 7.5s7.5-3.358 7.5-7.5c0-11.803-9.603-21.406-21.406-21.406s-21.406 9.603-21.406 21.406c0 4.142 3.358 7.5 7.5 7.5s7.5-3.358 7.5-7.5z"/></g></g></svg>