<svg id="Capa_1" enable-background="new 0 0 512 512" height="512" viewBox="0 0 512 512" width="512" xmlns="http://www.w3.org/2000/svg"><g><g><path d="m155.25 10.005c-6.144-1.628-12.594-2.505-19.25-2.505h-53.5c-41.421 0-75 33.579-75 75v347c0 41.421 33.579 75 75 75h53.5c6.656 0 13.106-.877 19.25-2.505 32.092-8.5 55.75-37.73 55.75-72.495v-347c0-34.765-23.658-63.995-55.75-72.495z" fill="#53a3ec"/><path d="m448.75 10.005c-6.144-1.628-12.594-2.505-19.25-2.505h-53.5c-41.421 0-75 33.579-75 75v347c0 41.421 33.579 75 75 75h53.5c6.656 0 13.106-.877 19.25-2.505 32.092-8.5 55.75-37.73 55.75-72.495v-347c0-34.765-23.658-63.995-55.75-72.495z" fill="#53a3ec"/><g fill="#3085d1"><path d="m99.5 429.5v-347c0-34.765 23.658-63.995 55.75-72.495-6.144-1.628-12.594-2.505-19.25-2.505h-53.5c-41.421 0-75 33.579-75 75v347c0 41.421 33.579 75 75 75h53.5c6.656 0 13.106-.877 19.25-2.505-32.092-8.5-55.75-37.73-55.75-72.495z"/><path d="m393 429.5v-347c0-34.765 23.658-63.995 55.75-72.495-6.144-1.628-12.594-2.505-19.25-2.505h-53.5c-41.421 0-75 33.579-75 75v347c0 41.421 33.579 75 75 75h53.5c6.656 0 13.106-.877 19.25-2.505-32.092-8.5-55.75-37.73-55.75-72.495z"/></g></g><g><g><g><ellipse cx="156.443" cy="232.623" fill="#ff8e9e" rx="29.355" ry="23.377"/></g><g><ellipse cx="355.557" cy="232.623" fill="#ff8e9e" rx="29.355" ry="23.377"/></g></g></g><g><path d="m136.02 0h-50.55c-4.14 0-7.5 3.37-7.5 7.5 0 4.14 3.36 7.5 7.5 7.5h50.53c37.515 0 67.512 30.491 67.5 67.5v347c.012 37.036-30.018 67.5-67.5 67.5h-53.5c-37.385 0-67.5-30.286-67.5-67.5v-347c-.01-27.93 17.55-53.32 43.69-63.18 3.87-1.46 5.83-5.8 4.37-9.67-1.439-3.828-5.782-5.839-9.64-4.37-.01 0-.01 0-.02 0-31.27 11.772-53.38 41.972-53.4 77.22v347c0 45.543 36.926 82.5 82.5 82.5h53.52c45.487 0 82.48-36.915 82.48-82.5v-347c0-45.62-37.019-82.5-82.48-82.5z"/><path d="m429.5 0h-53.521c-45.269 0-82.479 36.686-82.479 82.5v347c0 45.894 37.291 82.5 82.479 82.5h50.551c4.14 0 7.5-3.36 7.5-7.5 0-4.13-3.36-7.5-7.5-7.5h-50.53c-37.492 0-67.512-30.475-67.5-67.5v-347c-.012-37.026 30-67.5 67.5-67.5h53.5c37.314 0 67.5 30.21 67.5 67.5v347c.01 27.93-17.55 53.319-43.69 63.18-3.813 1.44-5.864 5.714-4.37 9.67 1.429 3.8 5.739 5.848 9.66 4.37 31.271-11.772 53.38-41.973 53.4-77.22v-347c0-45.516-36.89-82.5-82.5-82.5z"/><path d="m181.051 210.12v-12c0-4.143-3.358-7.5-7.5-7.5s-7.5 3.357-7.5 7.5v12c0 4.143 3.358 7.5 7.5 7.5s7.5-3.357 7.5-7.5z"/><path d="m330.948 198.12v12c0 4.143 3.357 7.5 7.5 7.5s7.5-3.357 7.5-7.5v-12c0-4.143-3.357-7.5-7.5-7.5s-7.5 3.358-7.5 7.5z"/></g></g></svg>