<svg id="Capa_1" enable-background="new 0 0 512 512" height="512" viewBox="0 0 512 512" width="512" xmlns="http://www.w3.org/2000/svg"><g><g><path d="m436.474 174.108-191.386-110.496-75-43.301c-63.04-36.397-141.841 9.099-141.841 81.892v307.596c0 72.793 78.801 118.288 141.841 81.892l75-43.302 191.386-110.497c63.041-36.396 63.041-127.387 0-163.784z" fill="#53a3ec"/><path d="m178.247 334.166v-156.331c0-46.802 24.969-90.049 65.5-113.449l1.341-.774-75-43.301c-63.04-36.397-141.841 9.099-141.841 81.892v307.596c0 72.793 78.801 118.288 141.841 81.892l75-43.302-1.341-.774c-40.532-23.401-65.5-66.647-65.5-113.449z" fill="#3085d1"/></g><g><g><g><ellipse cx="152.436" cy="262.813" fill="#ff8e9e" rx="30.834" ry="24.555"/></g><g><ellipse cx="319.566" cy="262.813" fill="#ff8e9e" rx="30.834" ry="24.555"/></g></g></g><g><path d="m440.224 167.613-266.386-153.798c-15.655-9.038-33.251-13.815-50.887-13.815-22.592 0-44.982 7.744-63.045 21.807-3.269 2.544-3.855 7.257-1.311 10.525 2.544 3.269 7.257 3.857 10.525 1.311 15.443-12.022 34.56-18.643 53.831-18.643 15.221 0 29.819 3.972 43.387 11.806l266.386 153.798c27.257 15.737 43.529 43.923 43.529 75.397s-16.272 59.66-43.529 75.396l-42.686 24.645c-3.587 2.071-4.816 6.658-2.745 10.245 1.389 2.406 3.91 3.751 6.502 3.751 1.272 0 2.563-.324 3.743-1.006l42.686-24.645c31.953-18.448 51.029-51.489 51.029-88.386.001-36.897-19.076-69.939-51.029-88.388z"/><path d="m364.058 371.042-197.72 114.154c-13.568 7.833-28.165 11.804-43.387 11.804-45.785 0-84.002-35.645-87.006-81.151 0-.003 0-.007-.001-.011-.131-1.988-.198-4.021-.198-6.04v-307.596c0-17.538 5.045-34.3 14.591-48.477 2.313-3.436 1.404-8.097-2.032-10.41-3.436-2.312-8.096-1.404-10.41 2.032-11.219 16.661-17.149 36.321-17.149 56.854v307.597c0 2.349.078 4.714.23 7.031v.008c3.524 53.364 48.316 95.164 101.975 95.163 17.636 0 35.232-4.777 50.887-13.814l197.72-114.154c3.587-2.071 4.816-6.658 2.745-10.245-2.071-3.588-6.66-4.816-10.245-2.745z"/><path d="m177.906 238.874v-12c0-4.142-3.358-7.5-7.5-7.5s-7.5 3.358-7.5 7.5v12c0 4.142 3.358 7.5 7.5 7.5s7.5-3.358 7.5-7.5z"/><path d="m236.001 254.179c8.796 0 17.16-3.809 22.948-10.451 2.721-3.123 2.396-7.86-.727-10.582-3.124-2.721-7.861-2.396-10.582.727-2.938 3.372-7.181 5.306-11.64 5.306s-8.701-1.934-11.64-5.306c-2.722-3.122-7.459-3.447-10.582-.727-3.123 2.722-3.448 7.459-.727 10.582 5.79 6.642 14.154 10.451 22.95 10.451z"/><path d="m297.507 238.54c0-3.532 2.874-6.406 6.406-6.406s6.406 2.874 6.406 6.406c0 4.142 3.358 7.5 7.5 7.5s7.5-3.358 7.5-7.5c0-11.803-9.603-21.406-21.406-21.406s-21.406 9.603-21.406 21.406c0 4.142 3.358 7.5 7.5 7.5s7.5-3.358 7.5-7.5z"/></g></g></svg>