<svg id="Capa_1" enable-background="new 0 0 512 512" height="512" viewBox="0 0 512 512" width="512" xmlns="http://www.w3.org/2000/svg"><g><g><path d="m331 19.03c-23.666-7.483-48.859-11.53-75-11.53-137.243 0-248.5 111.257-248.5 248.5s111.257 248.5 248.5 248.5c26.141 0 51.334-4.047 75-11.53 100.584-31.806 173.5-125.868 173.5-236.97s-72.916-205.164-173.5-236.97z" fill="#ff8e9e"/><path d="m157.5 256c0-111.102 72.916-205.164 173.5-236.97-23.666-7.483-48.859-11.53-75-11.53-137.243 0-248.5 111.257-248.5 248.5s111.257 248.5 248.5 248.5c26.141 0 51.334-4.047 75-11.53-100.584-31.806-173.5-125.868-173.5-236.97z" fill="#ea5b70"/></g><g fill="#ea5b70"><ellipse cx="176.443" cy="241.86" rx="29.355" ry="23.377"/><ellipse cx="335.557" cy="241.86" rx="29.355" ry="23.377"/></g><g><path d="m25.342 326.067c-6.863-22.621-10.342-46.195-10.342-70.067 0-132.888 108.112-241 241-241 91.94 0 172.014 51.935 212.402 127.035 1.963 3.647 6.508 5.014 10.158 3.053 3.647-1.962 5.015-6.51 3.053-10.158-43.969-81.759-129.591-134.93-225.613-134.93-141.491 0-256 114.497-256 256 0 25.349 3.697 50.388 10.987 74.421 1.205 3.972 5.402 6.202 9.354 5 3.965-1.202 6.203-5.391 5.001-9.354z"/><path d="m494.572 162.979c-1.506-3.858-5.854-5.763-9.714-4.261-3.858 1.506-5.766 5.854-4.261 9.714 10.884 27.892 16.403 57.354 16.403 87.568 0 135.163-109.179 241-241 241-97.935 0-183.044-58.834-220.541-143.672-1.675-3.789-6.106-5.505-9.892-3.827-3.789 1.674-5.502 6.103-3.828 9.892 39.317 88.952 129.04 152.607 234.261 152.607 140.846 0 256-113.921 256-256 0-32.087-5.863-63.384-17.428-93.021z"/><path d="m186.051 207.356v12c0 4.143 3.358 7.5 7.5 7.5s7.5-3.357 7.5-7.5v-12c0-4.143-3.358-7.5-7.5-7.5s-7.5 3.358-7.5 7.5z"/><path d="m310.949 207.356v12c0 4.143 3.358 7.5 7.5 7.5s7.5-3.357 7.5-7.5v-12c0-4.143-3.358-7.5-7.5-7.5s-7.5 3.358-7.5 7.5z"/><path d="m266.81 214.071c-2.729 3.133-6.669 4.929-10.81 4.929s-8.081-1.796-10.81-4.929c-2.722-3.122-7.459-3.447-10.582-.727-3.123 2.722-3.448 7.459-.727 10.582 5.579 6.402 13.641 10.074 22.119 10.074s16.54-3.672 22.119-10.073c2.721-3.123 2.396-7.86-.727-10.582-3.123-2.721-7.861-2.397-10.582.726z"/></g></g></svg>