<svg id="Capa_1" enable-background="new 0 0 512 512" height="512" viewBox="0 0 512 512" width="512" xmlns="http://www.w3.org/2000/svg"><g><g><path d="m404.612 90.02c-8.475 4.893-64.559 37.273-77.553 44.775-5.067-26.409-25.411-45.88-49.686-51.866-15.706-3.873-33.056-2.103-48.981 7.091-2.24 1.293-167.947 96.964-187.596 108.308-44.395 25.632-44.395 89.71 0 115.341 19.558 11.292 185.345 107.01 187.596 108.309 15.779 9.11 32.959 10.932 48.55 7.197 24.465-5.861 45.02-25.408 50.116-51.972 12.994 7.502 69.079 39.883 77.553 44.775 44.395 25.631 99.888-6.408 99.888-57.67v-216.618c.001-51.263-55.492-83.302-99.887-57.67z" fill="#53a3ec"/><path d="m277.373 82.929c-15.706-3.873-33.056-2.103-48.981 7.091-2.24 1.293-167.947 96.964-187.596 108.308-44.395 25.632-44.395 89.71 0 115.341 19.558 11.292 185.345 107.01 187.596 108.309 15.779 9.11 32.959 10.932 48.55 7.197-55.361-108.43-55.407-237.588.431-346.246z" fill="#3085d1"/></g><g><g><g><ellipse cx="172.435" cy="262.811" fill="#ff8e9e" rx="30.834" ry="24.555"/></g><g><ellipse cx="339.565" cy="262.811" fill="#ff8e9e" rx="30.834" ry="24.555"/></g></g></g><g><path d="m182.905 226.872v12c0 4.142 3.358 7.5 7.5 7.5s7.5-3.358 7.5-7.5v-12c0-4.142-3.358-7.5-7.5-7.5s-7.5 3.358-7.5 7.5z"/><path d="m267.64 233.871c-2.938 3.372-7.181 5.306-11.64 5.306s-8.701-1.934-11.64-5.306c-2.721-3.122-7.459-3.447-10.582-.727-3.123 2.722-3.448 7.459-.727 10.582 5.788 6.642 14.152 10.451 22.948 10.451s17.16-3.809 22.948-10.451c2.721-3.123 2.396-7.86-.727-10.582-3.121-2.721-7.859-2.396-10.58.727z"/><path d="m302.506 238.538c0 4.142 3.358 7.5 7.5 7.5s7.5-3.358 7.5-7.5c0-3.532 2.874-6.406 6.406-6.406s6.406 2.874 6.406 6.406c0 4.142 3.358 7.5 7.5 7.5s7.5-3.358 7.5-7.5c0-11.803-9.603-21.406-21.406-21.406s-21.406 9.602-21.406 21.406z"/><path d="m44.546 204.823c.409-.237 187.275-108.123 187.596-108.308 35.153-20.294 78.681-.048 87.176 37.953l-1.922 6.314c-1.207 3.963 1.028 8.153 4.991 9.359 3.961 1.206 8.152-1.026 9.359-4.99l1.626-5.341 74.99-43.296c10.082-5.821 21.011-8.509 32.389-7.942 4.13.221 7.66-2.976 7.868-7.112s-2.976-7.66-7.113-7.868c-14.104-.716-28.198 2.746-40.644 9.933l-69.088 39.888c-14.769-43.085-65.953-63.661-107.131-39.889-1.963 1.133-158.449 91.48-187.597 108.309-23.197 13.392-37.046 37.379-37.046 64.165 0 14.88 4.317 29.178 12.486 41.347 1.447 2.156 3.818 3.321 6.234 3.321 1.438 0 2.89-.413 4.173-1.273 3.439-2.309 4.355-6.969 2.047-10.407-6.503-9.688-9.94-21.095-9.94-32.987 0-21.364 11.045-40.495 29.546-51.176z"/><path d="m473.334 82.615c-3.638-1.983-8.193-.641-10.175 2.997-1.982 3.637-.641 8.192 2.996 10.174 19.315 10.526 30.845 29.929 30.845 51.904v216.617c0 45.629-49.281 73.9-88.638 51.176l-74.99-43.296-1.626-5.341c-1.206-3.963-5.394-6.197-9.359-4.991-3.962 1.206-6.197 5.396-4.991 9.358l1.923 6.316c-8.48 37.934-51.962 58.282-87.178 37.952-1.59-.917-183.145-105.738-187.612-108.317l-.281-.164c-3.572-2.096-8.167-.902-10.265 2.67s-.902 8.168 2.669 10.266c2.685 1.55 184.147 106.321 187.99 108.537 41.168 23.769 92.359 3.209 107.132-39.887l69.087 39.888c49.371 28.506 111.139-7.157 111.139-64.167v-216.617c0-27.553-14.455-51.879-38.666-65.075z"/></g></g></svg>