<svg height="511pt" viewBox="-30 1 511 511.999" width="511pt" xmlns="http://www.w3.org/2000/svg"><path d="m424.515625 243.296875c-31.675781-31.675781-91.835937-22.871094-134.375 19.667969-42.535156 42.535156-51.34375 102.695312-19.667969 134.371094 31.675782 31.675781 91.839844 22.871093 134.375-19.664063 42.539063-42.539063 51.34375-102.699219 19.667969-134.375zm-56.273437 97.765625c-17.339844 17.339844-49.285157 32.339844-61.160157 19.667969-11.152343-11.894531 7.101563-48.59375 19.667969-61.160157 17.339844-17.339843 48.886719-31.660156 61.160156-19.664062 12.617188 12.332031-7.105468 48.59375-19.667968 61.15625zm0 0" fill="#edbd88"/><path d="m200.714844 465.253906h-37.828125c-83.605469 0-151.382813-67.777344-151.382813-151.382812v-73.167969c0-30.804687 24.96875-55.773437 55.773438-55.773437h229.046875c30.804687 0 55.773437 24.96875 55.773437 55.773437v73.167969c0 83.605468-67.777344 151.382812-151.382812 151.382812zm0 0" fill="#f9cf9d"/><path d="m103.886719 325.089844c-13.46875-74.300782 3.882812-121.800782 12.875-140.160156h-49.484375c-30.804688 0-55.773438 24.96875-55.773438 55.773437v73.167969c0 83.605468 67.777344 151.382812 151.382813 151.382812h37.828125c5.460937 0 10.867187-.289062 16.183594-.855468-41.089844-26.84375-101.558594-76.132813-113.011719-139.308594zm0 0" fill="#edbd88"/><path d="m322.664062 504.5h-281.726562c-18.117188 0-32.9375-14.820312-32.9375-32.9375s14.820312-32.9375 32.9375-32.9375h281.726562c18.117188 0 32.9375 14.820312 32.9375 32.9375s-14.820312 32.9375-32.9375 32.9375zm0 0" fill="#ffdaaa"/><path d="m95.925781 471.5625c0-18.117188 14.820313-32.941406 32.9375-32.941406h-87.925781c-18.117188 0-32.9375 14.824218-32.9375 32.941406s14.820312 32.9375 32.9375 32.9375h87.925781c-18.117187 0-32.9375-14.824219-32.9375-32.9375zm0 0" fill="#f9cf9d"/><path d="m196.859375 81.75c8.71875-7.785156 14.207031-19.105469 14.207031-31.714844 0-23.628906-18.90625-42.535156-42.535156-42.535156-13.042969 0-24.707031 5.871094-32.507812 15.117188-5.605469 6.644531-13.625 10.765624-22.21875 12.070312-13.550782 2.058594-26.550782 8.652344-36.542969 19.78125-21.03125 23.433594-20.757813 59.539062.601562 82.671875 23.835938 25.816406 64.101563 26.421875 88.707031 1.816406 9.574219-9.574219 15.332032-21.523437 17.269532-33.953125 1.410156-9.03125 6.203125-17.164062 13.019531-23.253906zm0 0" fill="#d4f1f4"/><path d="m286.230469 126.476562c0 16.839844-13.652344 30.492188-30.492188 30.492188-16.839843 0-30.492187-13.652344-30.492187-30.492188 0-16.84375 13.652344-30.496093 30.492187-30.496093 16.839844 0 30.492188 13.652343 30.492188 30.496093zm0 0" fill="#bee8ea"/><path d="m181.800781 351.492188c-15.519531 0-28.101562-12.578126-28.101562-28.097657v-20.429687c0-4.238282 3.433593-7.671875 7.671875-7.671875h40.859375c4.238281 0 7.671875 3.433593 7.671875 7.671875v20.429687c0 15.519531-12.582032 28.097657-28.101563 28.097657zm0 0" fill="#57565c"/><path d="m117.777344 323.394531c0-13.183593-13.417969-23.871093-29.972656-23.871093-16.554688 0-29.972657 10.6875-29.972657 23.871093 0 13.183594 13.417969 23.867188 29.972657 23.867188 16.554687 0 29.972656-10.683594 29.972656-23.867188zm0 0" fill="#ff94b3"/><path d="m305.769531 323.394531c0-13.183593-13.417969-23.871093-29.972656-23.871093s-29.972656 10.6875-29.972656 23.871093c0 13.183594 13.417969 23.867188 29.972656 23.867188s29.972656-10.683594 29.972656-23.867188zm0 0" fill="#ff94b3"/><path d="m262.457031 282.839844c-4.140625 0-7.5 3.359375-7.5 7.5v12.449218c0 4.144532 3.359375 7.5 7.5 7.5 4.144531 0 7.5-3.355468 7.5-7.5v-12.449218c0-4.140625-3.355469-7.5-7.5-7.5zm0 0"/><path d="m101.144531 282.839844c-4.144531 0-7.5 3.359375-7.5 7.5v12.449218c0 4.144532 3.355469 7.5 7.5 7.5s7.5-3.355468 7.5-7.5v-12.449218c0-4.140625-3.359375-7.5-7.5-7.5zm0 0"/><path d="m429.820312 237.992188c-18.023437-18.015626-44.828124-24.929688-74.183593-19.320313-8.964844-24.058594-32.167969-41.242187-59.3125-41.242187h-229.046875c-34.890625 0-63.273438 28.382812-63.273438 63.273437v73.164063c0 44.996093 18.980469 87.363281 51.671875 117.253906h-14.738281c-22.296875 0-40.4375 18.140625-40.4375 40.4375 0 22.300781 18.140625 40.441406 40.4375 40.441406h281.726562c22.296876 0 40.4375-18.140625 40.4375-40.441406 0-22.296875-18.140624-40.4375-40.4375-40.4375h-14.753906c2.601563-2.378906 5.121094-4.835938 7.546875-7.371094 1.53125.074219 55.078125-.671875 94.695313-40.777344 21.570312-21.839844 35.832031-48.511718 39.777344-75.476562 4.070312-27.78125-3.074219-52.464844-20.109376-69.503906zm-70.222656 48.652343c10.601563-4.328125 20.21875-5.574219 23.066406-1.375 9.691407 14.253907-14.066406 49.339844-25.390624 55.585938 1.523437-8.835938 2.324218-17.859375 2.324218-26.984375zm-103.59375 144.476563c-4.144531 0-7.5 3.359375-7.5 7.5 0 4.144531 3.355469 7.5 7.5 7.5h66.660156c14.027344 0 25.4375 11.414062 25.4375 25.441406 0 14.023438-11.410156 25.4375-25.4375 25.4375h-281.726562c-14.027344 0-25.4375-11.410156-25.4375-25.4375s11.410156-25.441406 25.4375-25.441406h184.199219c4.144531 0 7.5-3.355469 7.5-7.5 0-4.140625-3.355469-7.5-7.5-7.5h-145.644531c-37.941407-27.023438-60.488282-70.578125-60.488282-117.25v-73.167969c0-26.617187 21.65625-48.273437 48.273438-48.273437h229.046875c26.617187 0 48.273437 21.65625 48.273437 48.273437v73.167969c0 46.601562-22.574218 90.234375-60.5 117.25zm179.085938-125.796875c-3.480469 23.792969-16.105469 47.605469-35.546875 67.042969-20.523438 20.523437-46.613281 33.515624-71.128907 36.027343 10.25-13.851562 18.179688-29.289062 23.480469-45.695312 8.007813-4.578125 15.613281-10.296875 21.648438-16.332031 10.660156-10.660157 26.027343-36.433594 25.921875-55.15625-.039063-7.003907-2.164063-12.613282-6.3125-16.671876-7.3125-7.140624-19.230469-8.421874-33.554688-3.855468 0 0-.164062-34.96875-.449218-37.410156 24.109374-4.421876 45.78125 1.042968 60.0625 15.328124 13.601562 13.601563 19.242187 33.746094 15.878906 56.722657zm0 0"/><path d="m61.863281 86.429688c3.996094 1.085937 8.117188-1.273438 9.203125-5.273438 2.207032-8.136719 6.171875-15.429688 11.777344-21.675781 8.503906-9.472657 19.601562-15.480469 32.085938-17.378907 10.699218-1.621093 20.226562-6.824218 26.824218-14.648437 6.679688-7.914063 16.4375-12.453125 26.777344-12.453125 9.425781 0 18.242188 3.625 24.824219 10.210938 6.585937 6.582031 10.210937 15.398437 10.210937 24.824218 0 9.957032-4.269531 19.480469-11.703125 26.121094-8.328125 7.4375-13.808593 17.273438-15.433593 27.691406-1.769532 11.351563-7.015626 21.65625-15.164063 29.804688-10.488281 10.488281-24.4375 16.113281-39.261719 15.804687-14.824218-.296875-28.542968-6.476562-38.628906-17.402343-5.648438-6.113282-9.695312-13.277344-12.03125-21.300782-1.160156-3.976562-5.316406-6.257812-9.300781-5.101562-3.976563 1.160156-6.257813 5.324218-5.101563 9.300781 2.992188 10.269531 8.179688 19.445313 15.410156 27.277344 12.882813 13.953125 30.410157 21.84375 49.351563 22.222656.476563.011719.949219.015625 1.425781.015625 18.417969 0 35.679688-7.144531 48.742188-20.207031 10.414062-10.414063 17.113281-23.589844 19.378906-38.101563 1.09375-7 4.859375-13.683594 10.605469-18.816406 10.617187-9.484375 16.707031-23.082031 16.710937-37.308594 0-13.433594-5.1875-26.015625-14.605468-35.433594-9.414063-9.414062-22-14.601562-35.429688-14.601562-14.769531 0-28.707031 6.480469-38.238281 17.78125-4.257813 5.042969-10.511719 8.414062-17.613281 9.492188-15.738282 2.386718-30.296876 10.265624-40.996094 22.1875-7.085938 7.894531-12.304688 17.492187-15.09375 27.765624-1.085938 4 1.277344 8.121094 5.273437 9.203126zm0 0"/><path d="m255.738281 164.46875c20.945313 0 37.992188-17.042969 37.992188-37.992188 0-20.949218-17.046875-37.992187-37.992188-37.992187-20.949219 0-37.992187 17.042969-37.992187 37.992187 0 20.949219 17.042968 37.992188 37.992187 37.992188zm0-60.988281c12.675781 0 22.992188 10.316406 22.992188 22.992187 0 12.679688-10.316407 22.996094-22.992188 22.996094-12.679687 0-22.992187-10.316406-22.992187-22.996094 0-12.675781 10.3125-22.992187 22.992187-22.992187zm0 0"/><path d="m202.230469 287.792969h-40.859375c-8.363282 0-15.171875 6.804687-15.171875 15.171875v20.429687c0 19.628907 15.972656 35.601563 35.601562 35.601563 19.628907 0 35.601563-15.972656 35.601563-35.601563v-20.429687c0-8.367188-6.808594-15.171875-15.171875-15.171875zm.171875 35.601562c-.003906 11.359375-9.242188 20.601563-20.601563 20.601563s-20.601562-9.242188-20.601562-20.601563c0 0 .078125-20.601562.171875-20.601562 0 0 41.027344.078125 41.027344.171875v20.429687zm0 0"/></svg>