<svg id="Capa_1" enable-background="new 0 0 512 512" height="512" viewBox="0 0 512 512" width="512" xmlns="http://www.w3.org/2000/svg"><g><g><path d="m7.509 136h-.009v240c0 33.137 26.863 60 60 60h377c33.137 0 60-26.863 60-60v-239.993z" fill="#ffb357"/><g><path d="m343.917 215.412c-23.315-23.315-54.938-36.414-87.911-36.414s-64.595 13.099-87.911 36.414l-160.595 160.588c0 33.137 26.863 60 60 60h377c33.137 0 60-26.863 60-60z" fill="#ffce71"/><path d="m91 376v-83.496h-83.5v83.496c0 33.137 26.863 60 60 60h83.5c-33.137 0-60-26.863-60-60z" fill="#ffb357"/></g><g><path d="m444.493 76h-376.993c-33.137 0-60 26.863-60 60l160.592 160.593c23.315 23.315 54.938 36.414 87.911 36.414s64.595-13.099 87.911-36.414l160.586-160.593c0-33.141-26.866-60-60.007-60z" fill="#fce3a0"/><path d="m91 219.496v-83.496c0-33.137 26.863-60 60-60h-83.5c-33.137 0-60 26.863-60 60l83.496 83.496z" fill="#ffce71"/></g></g><g><g><g><ellipse cx="182.089" cy="245.619" fill="#ff8e9e" rx="25" ry="19.909"/></g><g><ellipse cx="329.911" cy="245.619" fill="#ff8e9e" rx="25" ry="19.909"/></g></g></g><g><path d="m201.051 233.115v-12c0-4.143-3.357-7.5-7.5-7.5s-7.5 3.357-7.5 7.5v12c0 4.143 3.357 7.5 7.5 7.5s7.5-3.357 7.5-7.5z"/><path d="m325.948 233.115v-12c0-4.143-3.357-7.5-7.5-7.5s-7.5 3.357-7.5 7.5v12c0 4.143 3.357 7.5 7.5 7.5s7.5-3.357 7.5-7.5z"/><path d="m256 247.759c8.478 0 16.54-3.672 22.118-10.074 2.722-3.122 2.396-7.86-.728-10.581-3.122-2.722-7.861-2.397-10.581.728-2.729 3.132-6.669 4.928-10.81 4.928s-8.08-1.796-10.81-4.928c-2.721-3.124-7.459-3.448-10.581-.728-3.123 2.721-3.449 7.459-.728 10.581 5.58 6.402 13.642 10.074 22.12 10.074z"/><path d="m512 135.994c-.003-37.217-30.285-67.494-67.507-67.494h-315.708c-4.142 0-7.5 3.358-7.5 7.5s3.358 7.5 7.5 7.5h315.708c27.938 0 50.843 21.932 52.414 49.486-8.135 8.136-149.576 149.582-158.297 158.303-22.065 22.065-51.402 34.217-82.607 34.217s-60.542-12.152-82.608-34.217c-8.756-8.756-150.39-150.391-158.309-158.31 1.57-27.548 24.479-49.479 52.414-49.479h31.285c4.142 0 7.5-3.358 7.5-7.5s-3.358-7.5-7.5-7.5h-31.285c-37.218 0-67.497 30.277-67.5 67.495v.011c.013 12.345 0 231.827 0 239.994 0 37.22 30.28 67.5 67.5 67.5h326.009c4.143 0 7.5-3.358 7.5-7.5s-3.357-7.5-7.5-7.5h-326.009c-27.935 0-50.843-21.931-52.414-49.479l112.416-112.412 35.286 35.287c24.898 24.898 58.002 38.611 93.214 38.611s68.316-13.712 93.215-38.611l35.286-35.288 112.41 112.412c-1.571 27.548-24.479 49.479-52.414 49.479h-20.991c-4.143 0-7.5 3.358-7.5 7.5s3.357 7.5 7.5 7.5h20.992c37.22 0 67.5-30.28 67.5-67.5 0-8.145 0-241.007 0-240.005zm-496.999 221.9.007-203.779 101.888 101.888zm481.999-.001-101.889-101.892 101.889-101.894z"/></g></g></svg>