<svg height="512pt" viewBox="0 -9 512.00027 512" width="512pt" xmlns="http://www.w3.org/2000/svg"><path d="m417.996094 154.4375h-68.773438v-112.539062c0-18.992188 15.394532-34.386719 34.386719-34.386719s34.386719 15.394531 34.386719 34.386719zm0 0" fill="#9ad880"/><path d="m417.996094 62.179688-66.390625-32.882813c-1.539063 3.902344-2.382813 8.152344-2.382813 12.601563v112.539062h68.773438zm0 0" fill="#8dc971"/><path d="m387.160156 485.640625h-262.320312c-28.253906 0-51.160156-22.902344-51.160156-51.15625v-224.863281l182.320312-163.902344 182.320312 163.902344v224.863281c0 28.253906-22.90625 51.15625-51.160156 51.15625zm0 0" fill="#ccf8ff"/><path d="m256 45.71875-182.320312 163.902344v224.863281c0 28.253906 22.90625 51.15625 51.160156 51.15625h106.304687v-229.054687c0-33.871094 13.328125-66.382813 37.105469-90.503907l34.96875-35.46875v-42.449219zm0 0" fill="#abebf4"/><path d="m437.6875 252.46875-181.6875-164.644531-181.6875 164.644531c-16.363281 14.828125-41.648438 13.582031-56.476562-2.78125-14.832032-16.363281-13.585938-41.648438 2.777343-56.480469l182.164063-165.074219c30.339844-27.496093 76.105468-27.496093 106.449218 0l182.160157 165.078126c16.363281 14.828124 17.605469 40.117187 2.777343 56.480468-7.890624 8.707032-33.84375 21.355469-56.476562 2.777344zm0 0" fill="#ff929f"/><path d="m293.375 291.558594h-74.746094c-20.9375 0-37.910156 16.972656-37.910156 37.90625v156.175781h150.5625v-156.175781c0-20.933594-16.972656-37.90625-37.90625-37.90625zm0 0" fill="#b2e59c"/><path d="m231.144531 291.558594h-12.515625c-20.9375 0-37.910156 16.972656-37.910156 37.90625v156.175781h50.425781zm0 0" fill="#9ad880"/><path d="m88.796875 180.085938c-17.417969-24.195313 1.195313-49.75 1.195313-49.75l-69.378907 62.875c-16.363281 14.828124-17.605469 40.117187-2.777343 56.480468 14.828124 16.363282 40.113281 17.605469 56.476562 2.777344l63.554688-57.589844c0-.003906-31.648438 9.402344-49.070313-14.792968zm0 0" fill="#ff737d"/><path d="m496.421875 187.652344-139.699219-126.597656v-19.15625c0-14.824219 12.0625-26.886719 26.886719-26.886719s26.886719 12.0625 26.886719 26.886719v48.597656c0 4.144531 3.359375 7.5 7.5 7.5s7.5-3.355469 7.5-7.5v-48.597656c0-23.097657-18.789063-41.8867192-41.886719-41.8867192-44.199219 0-41.886719 47.4492192-41.886719 47.4492192l-27.460937-24.886719c-33.214844-30.097657-83.308594-30.101563-116.523438 0l-182.160156 165.078125c-19.402344 17.582031-20.882813 47.671875-3.300781 67.074218 9.359375 10.328126 26.8125 21.519532 53.902344 11.753907v168c0 32.347656 26.3125 58.660156 58.660156 58.660156h262.320312c32.347656 0 58.660156-26.3125 58.660156-58.660156v-168.445313c22.292969 9.152344 45.054688-1.542968 53.902344-11.308594 17.582032-19.402343 16.101563-49.492187-3.300781-67.074218zm-7.8125 57c-5.304687 5.851562-26.898437 17.691406-46.027344 2.128906l-181.546875-164.515625c-2.855468-2.589844-7.214844-2.589844-10.070312 0l-75.707032 68.605469c-3.070312 2.78125-3.304687 7.527344-.523437 10.597656 2.78125 3.066406 7.527344 3.300781 10.59375.519531l70.671875-64.042969 174.820312 158.421876v178.113281c0 24.074219-19.585937 43.660156-43.65625 43.660156h-198.945312v-148.675781c0-16.765625 13.644531-30.40625 30.410156-30.40625h74.742188c16.769531 0 30.410156 13.640625 30.410156 30.40625v124.625c0 4.140625 3.355469 7.5 7.5 7.5 4.140625 0 7.5-3.359375 7.5-7.5v-124.625c0-25.035156-20.371094-45.40625-45.410156-45.40625h-74.742188c-25.039062 0-45.410156 20.371094-45.410156 45.40625v148.675781h-48.378906c-24.074219 0-43.660156-19.585937-43.660156-43.65625v-178.117187l78.800781-71.410157c3.070312-2.78125 3.304687-7.523437.523437-10.59375-2.78125-3.070312-7.527344-3.304687-10.597656-.523437l-80.628906 73.070312c-13.273438 12.027344-33.855469 11.015625-45.882813-2.257812-12.03125-13.273438-11.015625-33.855469 2.253907-45.886719l182.164062-165.074219c27.472656-24.894531 68.90625-24.894531 96.375 0l182.164062 165.078125c13.269532 12.027344 14.285157 32.609375 2.257813 45.882813zm0 0"/></svg>