<svg height="511pt" viewBox="0 -39 511.99964 511" width="511pt" xmlns="http://www.w3.org/2000/svg"><path d="m218.984375 426.351562h-144.230469c-21.160156 0-38.898437-15.988281-41.089844-37.035156l-25.988281-249.761718c-2.046875-19.675782 13.386719-36.800782 33.171875-36.800782h178.136719c13.152344 0 23.8125 10.660156 23.8125 23.8125v275.972656c0 13.152344-10.660156 23.8125-23.8125 23.8125zm0 0" fill="#7397da"/><path d="m204.773438 347.242188c0 16.949218-13.738282 30.6875-30.6875 30.6875-16.949219 0-30.6875-13.738282-30.6875-30.6875 0-16.949219 13.738281-30.6875 30.6875-30.6875 16.949218 0 30.6875 13.738281 30.6875 30.6875zm0 0" fill="#eeeeed"/><path d="m492.257812 270.007812c-3.1875-2.9375-3.1875-7.972656 0-10.910156 16.324219-15.050781 16.324219-40.828125 0-55.875-3.1875-2.941406-3.1875-7.976562 0-10.914062 14.855469-13.695313 11.824219-37.941406-5.941406-47.558594-16.699218-9.039062-35.386718-13.773438-54.371094-13.773438h-48.0625c6.664063-25.875 10.0625-52.515624 10.0625-79.296874 0-24.125-19.558593-43.679688-43.683593-43.679688s-43.679688 19.554688-43.679688 43.679688c0 21.570312-4.613281 42.890624-13.53125 62.535156-4.632812 10.207031-14.804687 16.757812-26.015625 16.757812h-24.238281v267.15625h189.148437c18.957032 0 37.613282-4.71875 54.292969-13.730468 17.644531-9.535157 21.644531-34.46875 6.289063-47.367188-3.453125-2.898438-3.542969-8.128906-.269532-11.148438 16.324219-15.046874 16.324219-40.824218 0-55.875zm0 0" fill="#eeeeed"/><path d="m460.019531 394.625c-151.085937-35.582031-169.488281-188.539062-171.726562-273.148438-5.332031 5.941407-13.011719 9.5-21.257813 9.5h-24.238281v267.152344h189.144531c9.503906 0 18.933594-1.183594 28.078125-3.503906zm0 0" fill="#dfdfdd"/><path d="m69.214844 102.757812h-28.367188c-19.78125 0-35.21875 17.121094-33.167968 36.796876l25.984374 249.761718c2.191407 21.046875 19.929688 37.035156 41.089844 37.035156h127.234375c-119.570312-32.503906-132.355469-221.769531-132.773437-323.59375zm0 0" fill="#6988c4"/><path d="m212.273438 347.242188c0-21.058594-17.128907-38.1875-38.1875-38.1875-21.058594 0-38.1875 17.128906-38.1875 38.1875 0 21.058593 17.128906 38.1875 38.1875 38.1875 21.058593 0 38.1875-17.128907 38.1875-38.1875zm-61.375 0c0-12.785157 10.402343-23.1875 23.1875-23.1875 12.785156 0 23.1875 10.402343 23.1875 23.1875 0 12.785156-10.402344 23.1875-23.1875 23.1875-12.785157 0-23.1875-10.402344-23.1875-23.1875zm361.101562-49.292969c0-12.644531-5.316406-24.808594-14.597656-33.394531 9.277344-8.585938 14.597656-20.753907 14.597656-33.394532s-5.316406-24.808594-14.597656-33.394531c8.84375-8.1875 13.054687-19.734375 11.558594-31.695313-1.5-11.988281-8.453126-22.164062-19.078126-27.917968-17.734374-9.601563-37.769531-14.675782-57.941406-14.675782h-38.53125c5.332032-23.574218 8.03125-47.679687 8.03125-71.796874 0-28.21875-22.960937-51.179688-51.179687-51.179688-28.222657 0-51.183594 22.960938-51.183594 51.179688 0 20.644531-4.324219 40.640624-12.855469 59.433593-3.410156 7.511719-10.941406 12.363281-19.1875 12.363281h-16.894531c-1.554687-15.820312-14.933594-28.21875-31.15625-28.21875h-133.074219c-4.144531 0-7.5 3.355469-7.5 7.5 0 4.140626 3.355469 7.5 7.5 7.5h133.078125c8.992188 0 16.308594 7.316407 16.308594 16.308594v275.972656c0 8.996094-7.316406 16.3125-16.308594 16.3125h-144.234375c-17.375 0-31.832031-13.03125-33.628906-30.3125l-25.988281-249.761718c-.765625-7.375 1.546875-14.46875 6.511719-19.976563 4.964843-5.511719 11.78125-8.542969 19.199218-8.542969h10.035156c4.140626 0 7.5-3.359374 7.5-7.5 0-4.144531-3.359374-7.5-7.5-7.5h-10.035156c-11.550781 0-22.609375 4.917969-30.34375 13.5-7.730468 8.578126-11.480468 20.085938-10.285156 31.574219l25.988281 249.761719c2.59375 24.945312 23.464844 43.757812 48.546875 43.757812h144.230469c16.222656 0 29.601563-12.402343 31.15625-28.222656h158.808594c4.140625 0 7.5-3.355468 7.5-7.5 0-4.140625-3.359375-7.5-7.5-7.5h-158.652344v-252.152344h16.738281c14.117188 0 27.011719-8.308593 32.84375-21.164062 9.421875-20.753906 14.199219-42.835938 14.199219-65.632812 0-19.949219 16.230469-36.179688 36.183594-36.179688 19.949219 0 36.179687 16.230469 36.179687 36.179688 0 26.0625-3.304687 52.109374-9.824218 77.425781-.578126 2.246093-.082032 4.632812 1.335937 6.464843 1.421875 1.832032 3.609375 2.90625 5.929687 2.90625h48.058594c17.6875 0 35.25 4.449219 50.804688 12.867188 6.308594 3.417969 10.441406 9.460938 11.332031 16.585938.890625 7.121093-1.625 13.996093-6.902344 18.863281-3.054687 2.816406-4.808593 6.816406-4.808593 10.972656 0 4.152344 1.75 8.152344 4.804687 10.96875 6.335937 5.84375 9.828125 13.804687 9.828125 22.425781 0 8.617188-3.488281 16.582032-9.824219 22.421875-3.054687 2.816407-4.808593 6.816407-4.808593 10.96875 0 4.15625 1.75 8.15625 4.804687 10.972657 6.335937 5.84375 9.828125 13.804687 9.828125 22.425781 0 8.617187-3.488281 16.582031-9.824219 22.421875-3.152343 2.90625-4.90625 7.03125-4.804687 11.316406.097656 4.285156 2.042968 8.328125 5.332031 11.089844 4.972656 4.175781 7.429687 10.464844 6.738281 17.25-.773437 7.5625-5.171875 14.207031-11.769531 17.773437-12.3125 6.652344-25.613281 10.773438-39.535156 12.242188-4.117188.433593-7.105469 4.125-6.667969 8.246093.402344 3.851563 3.660156 6.710938 7.445312 6.710938.265626 0 .53125-.011719.796876-.042969 15.875-1.671875 31.046874-6.371093 45.089843-13.960937 10.972657-5.925782 18.285157-16.9375 19.5625-29.445313 1.199219-11.78125-3.15625-22.78125-11.957031-30.210937 9.277344-8.585938 14.59375-20.75 14.59375-33.390625zm0 0"/></svg>