<svg height="512pt" viewBox="0 0 512.00012 512" width="512pt" xmlns="http://www.w3.org/2000/svg"><path d="m270.375 311.664062-99.226562 99.226563c-9.261719 9.261719-40.136719 29.972656-70.113282 0-29.972656-29.976563-9.261718-60.847656 0-70.113281l99.226563-99.222656s34.703125-35.410157 70.113281 0c35.410156 35.410156 0 70.109374 0 70.109374zm55.921875-126.03125c-50.039063-50.035156-131.917969-50.035156-181.953125 0l-99.226562 99.226563c-50.035157 50.035156-50.035157 131.914063 0 181.949219 50.039062 50.039062 131.914062 50.039062 181.953124 0l99.226563-99.222656c50.035156-50.039063 50.035156-131.917969 0-181.953126zm0 0" fill="#ccf8ff"/><path d="m410.964844 171.074219-99.226563 99.226562c-9.261719 9.261719-40.136719 29.976563-70.113281 0-29.972656-29.972656-9.261719-60.847656 0-70.109375l99.226562-99.226562s34.703126-35.410156 70.113282 0c35.40625 35.410156 0 70.109375 0 70.109375zm55.917968-126.03125c-50.035156-50.035157-131.914062-50.035157-181.953124 0l-99.222657 99.226562c-50.039062 50.039063-50.039062 131.914063 0 181.953125 50.035157 50.035156 131.914063 50.035156 181.949219 0l99.226562-99.226562c50.039063-50.039063 50.039063-131.914063 0-181.953125zm0 0" fill="#abebf4"/><path d="m241.625 270.304688c-29.972656-29.976563-9.261719-60.847657 0-70.113282l75.261719-75.261718c-28.121094-13.714844-61.171875-20.664063-87.648438-24.1875l-43.53125 43.53125c-50.039062 50.035156-50.039062 131.914062 0 181.949218 0 0 55.917969-55.917968 55.917969-55.917968zm0 0" fill="#8ed7e8"/><path d="m152.183594 373.699219c-.007813-.007813-.011719-.011719-.019532-.015625-.054687.078125-.042968.078125.019532.015625zm0 0" fill="#8ed7e8"/><path d="m101.035156 340.777344 99.226563-99.226563s34.703125-35.40625 70.113281 0l55.917969-55.917969c-50.035157-50.035156-131.914063-50.035156-181.949219 0l-99.226562 99.226563c-50.039063 50.035156-50.039063 131.914063 0 181.949219l55.917968-55.917969c-29.972656-29.976563-9.261718-60.847656 0-70.113281zm0 0" fill="#ccf8ff"/><path d="m472.183594 232.296875c53.089844-53.085937 53.085937-139.46875 0-192.554687-37.804688-37.804688-94.695313-49.902344-144.941406-30.820313-3.871094 1.46875-5.820313 5.800781-4.347657 9.671875 1.46875 3.871094 5.800781 5.816406 9.671875 4.34375 44.734375-16.988281 95.378906-6.230469 129.015625 27.40625 47.242188 47.242188 47.242188 124.109375 0 171.351562l-99.226562 99.226563c-47.238281 47.238281-124.105469 47.238281-171.347657 0-10.242187-10.246094-18.425781-22.046875-24.386718-35.125l38.980468-38.976563c.078126-.082031 5.117188-5.074218 12.933594-8.964843.355469 11.101562 4.527344 24.484375 17.789063 37.746093 31.921875 31.925782 66.757812 13.960938 80.714843 0l99.171876-99.171874c.730468-.714844 42.578124-38.238282.050781-80.765626-42.523438-42.527343-80.050781-.675781-80.710938 0l-53.191406 53.191407c-28.554687-10.464844-59.9375-11.074219-88.820313-1.816407l96.695313-96.695312c5.378906-5.378906 11.277344-10.261719 17.53125-14.507812 3.425781-2.324219 4.316406-6.988282 1.988281-10.414063-2.324218-3.417969-6.988281-4.316406-10.414062-1.988281-7.03125 4.773437-13.664063 10.261718-19.710938 16.308594l-99.222656 99.226562c-6.957031 6.953125-13.128906 14.652344-18.390625 22.894531-8.148437 5.207031-15.863281 11.355469-22.972656 18.46875l-99.226563 99.226563c-53.089844 53.085937-53.089844 139.464844 0 192.554687 53.085938 53.085938 139.464844 53.085938 192.554688 0l99.226562-99.226562c6.964844-6.964844 13.144532-14.65625 18.414063-22.910157 8.136719-5.203124 15.84375-11.347656 22.949219-18.453124zm-291.777344 99.226563c10.378906 10.378906 22.035156 18.71875 34.464844 25.042968l-49.023438 49.023438c-4.558594 4.554687-32.957031 26.546875-59.507812 0-29.417969-29.417969-1.214844-58.296875 0-59.507813l49.046875-49.046875c6.4375 12.722656 14.824219 24.292969 25.019531 34.488282zm165.78125-225.292969c.136719-.136719 29.226562-30.214844 59.472656.035156 30.25 30.246094.171875 59.339844 0 59.507813l-49.046875 49.050781c-15.332031-31.195313-47.054687-53.214844-59.484375-59.535157zm-124.421875 355.277343c-47.238281 47.242188-124.105469 47.242188-171.347656 0-47.238281-47.238281-47.238281-124.105468 0-171.347656l99.226562-99.226562c47.242188-47.238282 124.109375-47.238282 171.347657 0 10.25 10.25 18.433593 22.046875 24.390624 35.121094l-38.945312 38.945312c-4.558594 4.558594-13.445312 10.613281-23.492188 12.671875-12.855468 2.636719-24.972656-1.628906-36.015624-12.671875-9.761719-9.757812-14.214844-20.355469-13.300782-31.5625.914063-.074219 16.359375-5.359375 38.59375 22.046875 2.609375 3.214844 6.941406 4.394531 10.394532 2.101563 3.449218-2.289063 4.382812-6.933594 2.101562-10.390626-13.109375-19.875-34.289062-28.949218-48.503906-28.878906-23.523438.121094-40.589844 17.257813-41.25 17.933594l-99.230469 99.226562c-13.957031 13.960938-31.921875 48.792969 0 80.714844 31.925781 31.921875 66.757813 13.957032 80.714844 0l53.191406-53.191406c28.554687 10.464844 59.9375 11.074219 88.820313 1.816406zm0 0"/></svg>