<svg height="512pt" viewBox="0 -44 512.00322 512" width="512pt" xmlns="http://www.w3.org/2000/svg"><path d="m487.417969 82.371094c-11.644531 19.820312-30.851563 34.050781-53.199219 39.421875-11.164062 2.683593-22.757812-2.292969-28.496094-12.234375-5.738281-9.941406-4.253906-22.472656 3.652344-30.792969 15.828125-16.671875 37.753906-26.1875 60.742188-26.363281 15.445312-.117188 25.125 16.648437 17.300781 29.96875zm0 0" fill="#7397da"/><path d="m497.265625 150.695312c-17.722656 14.644532-40.636719 21.445313-63.476563 18.851563-11.40625-1.296875-20.597656-9.941406-22.589843-21.242187-1.992188-11.304688 3.6875-22.570313 13.960937-27.691407 20.574219-10.25 44.433594-11.691406 66.097656-3.996093 14.554688 5.171874 17.917969 24.242187 6.007813 34.078124zm0 0" fill="#7397da"/><path d="m466.867188 156.59375c-2.328126 143.984375-119.773438 259.984375-264.3125 259.984375-73.589844 0-140.152344-30.070313-188.078126-78.597656-15.117187-15.304688-3.910156-41.113281 17.605469-41.019531h.632813c79.929687 0 144.730468-64.796876 144.730468-144.730469 0-80.203125 65.238282-145.171875 145.546876-144.726563 80.578124.445313 145.179687 68.523438 143.875 149.089844zm0 0" fill="#80bbe6"/><path d="m156.757812 226.828125c-25.324218 42.023437-71.398437 70.132813-124.042968 70.132813-.210938 0-.421875 0-.632813 0-21.511719-.09375-32.722656 25.714843-17.605469 41.023437 47.925782 48.523437 114.488282 78.59375 188.082032 78.59375 61.496094 0 118.082031-21.007813 162.992187-56.230469-140.523437 20.046875-197.179687-53.476562-208.792969-133.519531zm0 0" fill="#76acd4"/><path d="m239.957031 165.664062c-13.492187-13.507812-31.519531-19.722656-49.183593-18.65625-7.765626.472657-15.601563-.363281-22.835938-3.21875-23.722656-9.375-40.507812-32.507812-40.507812-59.566406 0-.09375 0-.1875 0-.28125.039062-9.507812-11.304688-14.535156-18.074219-7.859375-21.511719 21.207031-34.84375 50.683594-34.84375 83.277344 0 6.3125.503906 12.503906 1.46875 18.542969-6.191407-3.027344-11.996094-7.113282-17.144531-12.261719-.066407-.066406-.132813-.128906-.195313-.195313-6.695313-6.75-18.273437-2.285156-18.339844 7.222657-.214843 30.203125 11.199219 60.476562 34.246094 83.523437 44.910156 44.910156 117.261719 45.660156 163.085937 2.242188 26.40625-25.015625 28.03125-67.039063 2.324219-92.769532zm0 0" fill="#7397da"/><path d="m403.136719 146.882812c0-19.25-19.59375-34.859374-43.769531-34.859374-24.171876 0-43.769532 15.609374-43.769532 34.859374s19.597656 34.855469 43.769532 34.855469c24.175781 0 43.769531-15.605469 43.769531-34.855469zm0 0" fill="#fff"/><path d="m237.632812 258.433594c1.804688-1.710938 3.484376-3.503906 5.054688-5.363282-112.183594 35.820313-162.511719-80.136718-152.945312-151.449218-9.691407 17.035156-15.230469 36.738281-15.230469 57.738281 0 6.3125.503906 12.503906 1.46875 18.542969-6.191407-3.027344-11.996094-7.113282-17.144531-12.257813-.066407-.066406-.132813-.132812-.195313-.199219-6.695313-6.75-18.273437-2.285156-18.339844 7.222657-.214843 30.207031 11.199219 60.476562 34.246094 83.523437 44.910156 44.914063 117.261719 45.660156 163.085937 2.242188zm0 0" fill="#6988c4"/><path d="m511.570312 130.605469c-1.730468-9.839844-8.390624-17.710938-17.804687-21.054688-4.957031-1.761719-10.03125-3.066406-15.1875-3.953125 5.949219-5.765625 11.121094-12.3125 15.304687-19.429687 5.058594-8.613281 5.101563-18.917969.105469-27.570313-4.957031-8.589844-13.808593-13.695312-23.710937-13.695312-.074219 0-.148438 0-.222656 0-11.722657.089844-23.488282 2.484375-34.371094 6.957031-1.832032-2.078125-3.71875-4.121094-5.675782-6.117187-28.640624-29.273438-66.632812-45.515626-106.976562-45.73828175-.285156-.00390625-.570312-.00390625-.859375-.00390625-39.449219 0-76.820313 15.007812-105.308594 42.3125-26.351562 25.257812-42.519531 58.535156-46.128906 94.515625-.011719-.007813-.027344-.011719-.042969-.015625-21.726562-8.585938-35.765625-29.226562-35.765625-52.589844v-.25c.03125-7.445312-4.371093-14.121094-11.222656-17.003906-6.824219-2.875-14.34375-1.429688-19.617187 3.769531-23.910157 23.578125-37.078126 55.046875-37.078126 88.621094 0 1.234375.019532 2.472656.058594 3.707031-1.019531-.882812-2.007812-1.804687-2.96875-2.765625l-.136718-.136719c-5.242188-5.289062-13.078126-6.894531-19.957032-4.089843-6.859375 2.792969-11.152344 9.132812-11.207031 16.539062-.238281 33.574219 12.703125 65.140625 36.445313 88.882813 6.042968 6.042968 12.609374 11.382812 19.589843 15.992187-17.554687 7.859375-36.714843 11.972657-56.121093 11.972657l-.597657-.003907h-.148437c-13.089844 0-24.355469 7.476563-29.429688 19.542969-5.011718 11.929688-2.4804685 25.050781 6.601563 34.25 10.261719 10.390625 21.4375 20.023438 33.21875 28.628906 1.335937.976563 2.882812 1.445313 4.417969 1.445313 2.3125 0 4.59375-1.066407 6.0625-3.074219 2.441406-3.347656 1.714843-8.039062-1.628907-10.480469-11.136719-8.136719-21.699219-17.238281-31.394531-27.058593-4.820312-4.878907-6.109375-11.570313-3.449219-17.898438 2.109375-5.011719 7.3125-10.351562 15.601563-10.351562h.746094c25.171874 0 49.976562-6.25 72.007812-18.09375 15.773438 7.351562 33.058594 11.34375 50.933594 11.570312.539062.007812 1.074218.011719 1.613281.011719 31.980469-.003907 62.300781-12.066407 85.523437-34.070313 18.84375-17.851562 26.992188-44.488281 21.269532-69.515625-.921875-4.039062-4.945313-6.5625-8.980469-5.640625-4.039063.925782-6.5625 4.945313-5.640625 8.984375 4.546875 19.878907-1.953125 41.058594-16.960938 55.28125-20.769531 19.675781-47.960937 30.332031-76.632812 29.949219-16.835938-.214844-33.078125-4.222656-47.730469-11.59375-.179687-.097656-.363281-.1875-.546875-.269531-10.121094-5.164063-19.46875-11.9375-27.714844-20.183594-20.882812-20.878906-32.265624-48.640625-32.054687-78.171875.011719-1.652344 1.023437-2.410156 1.867187-2.757812.617188-.25 2.214844-.683594 3.648438.761718 0 .007813.070312.074219.074219.078125l.144531.144531c5.621094 5.621094 12.0625 10.226563 19.152344 13.695313 2.515625 1.226563 5.507812.953125 7.753906-.710937 2.253906-1.664063 3.386719-4.445313 2.945312-7.210938-.914062-5.726562-1.375-11.566406-1.375-17.359375 0-29.527344 11.582032-57.207031 32.609376-77.9375 1.179687-1.160156 2.425781-.984375 3.269531-.628906.617187.257812 2.050781 1.082031 2.042969 3.148437l-.003907.28125c0 29.558594 17.765625 55.679688 45.253907 66.539063 7.730468 3.054687 16.496093 4.3125 26.042968 3.734375 16.15625-.980469 31.992188 5.023437 43.429688 16.46875 2.925781 2.929687 7.675781 2.933594 10.605468.003906 2.929688-2.925781 2.933594-7.675781.003907-10.605469-14.46875-14.480469-34.480469-22.070312-54.941407-20.839843-1.636718.101562-3.230468.121093-4.789062.085937 2.996094-32.917969 17.644531-63.402344 41.714844-86.46875 25.679687-24.613281 59.359375-38.140625 94.929687-38.140625.257813 0 .519531 0 .773438.003906 36.308593.199219 70.523437 14.839844 96.339843 41.226563 2.910157 2.972656 5.664063 6.058593 8.277344 9.230469.179688.246093.367188.480468.574219.699218 11.148437 13.71875 19.488281 29.1875 24.730469 45.710938.085937.515625.230468 1.027344.425781 1.523437.117187.527344.28125 1.03125.496094 1.507813 3.898437 13.332031 5.808593 27.304687 5.578125 41.570312-.058594 3.375-.195313 6.738282-.378906 10.089844 0 .039062-.003907.082031-.003907.121094-3.53125 63.863281-30.351562 123.386718-76.210937 168.554687-48.347656 47.617188-112.351563 73.839844-180.222656 73.839844-42.75 0-85.074219-10.710937-122.390626-30.980469-3.640624-1.976562-8.195312-.628906-10.171874 3.011719-1.976563 3.640625-.628907 8.191406 3.011718 10.171875 39.507813 21.457031 84.308594 32.796875 129.554688 32.796875 71.832031 0 139.574218-27.753906 190.746094-78.152344 47.359374-46.644531 75.53125-107.757812 80.34375-173.488281 10.371093-3.597656 19.90625-8.945312 28.394531-15.957031 7.699219-6.363281 11.265625-16.035157 9.527343-25.875zm-47.503906-32.097657c-4.675781-12.113281-10.898437-23.640624-18.570312-34.332031 7.933594-2.742187 16.316406-4.210937 24.675781-4.273437 4.554687-.046875 8.566406 2.28125 10.828125 6.195312 2.257812 3.914063 2.242188 8.574219-.050781 12.472656-4.421875 7.527344-10.171875 14.296876-16.882813 19.9375zm28.421875 46.40625c-5.53125 4.570313-11.605469 8.28125-18.117187 11.128907.148437-12.402344-1.164063-24.601563-3.855469-36.40625 6.21875.605469 12.324219 1.949219 18.230469 4.046875 4.257812 1.515625 7.269531 5.074218 8.054687 9.527344.785157 4.449218-.828125 8.824218-4.3125 11.703124zm-120.945312-35.960937c0-7.355469 5.984375-13.335937 13.335937-13.335937 7.351563 0 13.332032 5.980468 13.332032 13.335937 0 4.140625 3.355468 7.496094 7.5 7.496094 4.140624 0 7.5-3.355469 7.5-7.496094 0-15.625-12.710938-28.335937-28.332032-28.335937-15.625 0-28.335937 12.710937-28.335937 28.335937 0 4.140625 3.359375 7.496094 7.5 7.496094 4.144531 0 7.5-3.355469 7.5-7.496094zm0 0"/></svg>