<svg id="Capa_1" enable-background="new 0 0 512 512" height="512" viewBox="0 0 512 512" width="512" xmlns="http://www.w3.org/2000/svg"><g><g><path d="m373.794 7.5h-235.588c-51.64 0-93.503 41.863-93.503 93.503v309.995c0 51.64 41.862 93.503 93.503 93.503h235.587c51.64 0 93.503-41.862 93.503-93.503v-309.995c0-51.64-41.862-93.503-93.502-93.503z" fill="#5b596e"/><path d="m118.044 280.01c0-193.825 58.396-256.819 172.257-272.51h-152.095c-51.64 0-93.503 41.863-93.503 93.503v309.995c0 51.64 41.862 93.502 93.503 93.502h61.553c-54.151-46.085-81.715-121.839-81.715-224.49z" fill="#4f4d5f"/><path d="m138.207 174.5c-23.987 0-43.502-19.516-43.502-43.503v-29.995c0-23.987 19.515-43.502 43.502-43.502h235.587c23.987 0 43.502 19.515 43.502 43.502v29.995c0 23.987-19.515 43.503-43.502 43.503z" fill="#9ee4d4"/><g fill="#d0cee7"><ellipse cx="256" cy="248" rx="56.351" ry="43.135"/><path d="m267.774 322.225h-23.549c-14.839 0-26.868 12.029-26.868 26.868 0 14.839 12.029 26.868 26.868 26.868h23.549c14.839 0 26.868-12.029 26.868-26.868 0-14.839-12.029-26.868-26.868-26.868z"/><path d="m149.134 322.225h-23.549c-14.839 0-26.868 12.029-26.868 26.868 0 14.839 12.029 26.868 26.868 26.868h23.549c14.839 0 26.868-12.029 26.868-26.868 0-14.839-12.029-26.868-26.868-26.868z"/><path d="m362.866 322.225h23.549c14.839 0 26.868 12.029 26.868 26.868 0 14.839-12.029 26.868-26.868 26.868h-23.549c-14.839 0-26.868-12.029-26.868-26.868 0-14.839 12.029-26.868 26.868-26.868z"/><path d="m267.774 407.05h-23.549c-14.839 0-26.868 12.029-26.868 26.868 0 14.839 12.029 26.868 26.868 26.868h23.549c14.839 0 26.868-12.029 26.868-26.868 0-14.839-12.029-26.868-26.868-26.868z"/><path d="m149.134 407.05h-23.549c-14.839 0-26.868 12.029-26.868 26.868 0 14.839 12.029 26.868 26.868 26.868h23.549c14.839 0 26.868-12.029 26.868-26.868 0-14.839-12.029-26.868-26.868-26.868z"/><path d="m362.866 407.05h23.549c14.839 0 26.868 12.029 26.868 26.868 0 14.839-12.029 26.868-26.868 26.868h-23.549c-14.839 0-26.868-12.029-26.868-26.868 0-14.839 12.029-26.868 26.868-26.868z"/><path d="m157.449 268.737c-1.843-6.722-2.799-13.678-2.799-20.737 0-5.159.514-10.261 1.51-15.258.876-4.391-2.456-8.594-6.933-8.61-.031 0-.062 0-.092 0h-23.549c-14.839 0-26.868 12.029-26.868 26.868 0 14.839 12.029 26.868 26.868 26.868h23.549c.628 0 1.251-.022 1.869-.064 4.506-.311 7.64-4.709 6.445-9.067z"/><path d="m354.551 268.737c1.843-6.722 2.799-13.678 2.799-20.737 0-5.159-.514-10.261-1.51-15.258-.876-4.391 2.456-8.594 6.933-8.61h.092 23.549c14.839 0 26.868 12.029 26.868 26.868 0 14.839-12.029 26.868-26.868 26.868h-23.549c-.628 0-1.251-.022-1.869-.064-4.506-.311-7.64-4.709-6.445-9.067z"/></g><path d="m136.355 407.05h-10.77c-14.839 0-26.868 12.029-26.868 26.868 0 14.839 12.029 26.868 26.868 26.868h23.549c3.962 0 7.72-.865 11.105-2.404-9.586-15.382-17.552-32.507-23.884-51.332z" fill="#beb9dd"/><path d="m119.784 322.86c-12.049 2.653-21.067 13.387-21.067 26.233 0 14.839 12.029 26.868 26.868 26.868h2.146c-3.719-16.617-6.371-34.322-7.947-53.101z" fill="#beb9dd"/><path d="m119.862 224.749c-12.088 2.624-21.145 13.377-21.145 26.251 0 12.223 8.165 22.533 19.336 25.79.063-18.53.666-35.855 1.809-52.041z" fill="#beb9dd"/><path d="m177.361 57.5h-39.155c-23.987 0-43.502 19.515-43.502 43.502v29.995c0 19.763 13.252 36.479 31.333 41.758 9.215-52.529 26.373-89.529 51.324-115.255z" fill="#7cdac2"/></g><g><path d="m467.296 213.043c-4.142 0-7.5 3.358-7.5 7.5v190.455c0 47.422-38.581 86.002-86.002 86.002h-235.588c-47.422 0-86.002-38.581-86.002-86.002v-46.608c0-4.142-3.358-7.5-7.5-7.5s-7.5 3.358-7.5 7.5v46.608c0 55.692 45.309 101.002 101.002 101.002h235.587c55.693 0 101.002-45.31 101.002-101.002v-190.455c.001-4.142-3.357-7.5-7.499-7.5z"/><path d="m373.794 0h-235.588c-55.693 0-101.002 45.31-101.002 101.003v233.386c0 4.142 3.358 7.5 7.5 7.5s7.5-3.358 7.5-7.5v-233.386c0-47.422 38.58-86.003 86.002-86.003h235.587c47.422 0 86.002 38.581 86.002 86.003v89.54c0 4.142 3.358 7.5 7.5 7.5s7.5-3.358 7.5-7.5v-89.54c.001-55.693-45.308-101.003-101.001-101.003z"/><path d="m424.796 101.002c0-28.123-22.879-51.002-51.002-51.002h-235.588c-28.123 0-51.002 22.879-51.002 51.002v29.995c0 28.123 22.879 51.003 51.002 51.003h235.587c28.123 0 51.002-22.88 51.002-51.003v-29.995zm-15 29.996c0 19.852-16.15 36.003-36.002 36.003h-235.588c-19.852 0-36.002-16.151-36.002-36.003v-29.995c0-19.852 16.15-36.002 36.002-36.002h235.587c19.852 0 36.002 16.151 36.002 36.002v29.995z"/><path d="m176.002 98.515c-4.142 0-7.5 3.358-7.5 7.5v15.372c0 4.142 3.358 7.5 7.5 7.5s7.5-3.358 7.5-7.5v-15.372c0-4.142-3.358-7.5-7.5-7.5z"/><path d="m335.998 98.515c-4.142 0-7.5 3.358-7.5 7.5v15.372c0 4.142 3.358 7.5 7.5 7.5s7.5-3.358 7.5-7.5v-15.372c0-4.142-3.358-7.5-7.5-7.5z"/><path d="m282.018 115.275c-3.122-2.721-7.86-2.396-10.582.727-3.896 4.472-9.523 7.036-15.437 7.036s-11.54-2.564-15.437-7.036c-2.721-3.123-7.459-3.449-10.582-.727-3.123 2.721-3.448 7.458-.727 10.582 6.746 7.741 16.494 12.181 26.745 12.181s20-4.44 26.746-12.181c2.723-3.123 2.397-7.86-.726-10.582z"/><path d="m319.851 248c0-27.92-28.644-50.635-63.851-50.635s-63.851 22.715-63.851 50.635 28.643 50.636 63.851 50.636 63.851-22.716 63.851-50.636zm-63.851 35.636c-26.937 0-48.851-15.986-48.851-35.636s21.914-35.635 48.851-35.635 48.851 15.986 48.851 35.635-21.915 35.636-48.851 35.636z"/><path d="m267.774 314.725h-23.549c-18.95 0-34.368 15.417-34.368 34.368s15.417 34.368 34.368 34.368h23.549c18.951 0 34.368-15.417 34.368-34.368s-15.417-34.368-34.368-34.368zm0 53.736h-23.549c-10.679 0-19.368-8.688-19.368-19.368s8.688-19.368 19.368-19.368h23.549c10.68 0 19.368 8.688 19.368 19.368s-8.688 19.368-19.368 19.368z"/><path d="m149.134 314.725h-23.549c-18.951 0-34.368 15.417-34.368 34.368s15.417 34.368 34.368 34.368h23.549c18.95 0 34.368-15.417 34.368-34.368s-15.418-34.368-34.368-34.368zm0 53.736h-23.549c-10.68 0-19.368-8.688-19.368-19.368s8.688-19.368 19.368-19.368h23.549c10.679 0 19.368 8.688 19.368 19.368s-8.689 19.368-19.368 19.368z"/><path d="m386.415 314.725h-23.549c-18.951 0-34.368 15.417-34.368 34.368s15.417 34.368 34.368 34.368h23.549c18.951 0 34.368-15.417 34.368-34.368s-15.418-34.368-34.368-34.368zm0 53.736h-23.549c-10.68 0-19.368-8.688-19.368-19.368s8.688-19.368 19.368-19.368h23.549c10.68 0 19.368 8.688 19.368 19.368s-8.689 19.368-19.368 19.368z"/><path d="m267.774 399.55h-23.549c-18.95 0-34.368 15.417-34.368 34.368s15.417 34.368 34.368 34.368h23.549c18.951 0 34.368-15.417 34.368-34.368s-15.417-34.368-34.368-34.368zm0 53.736h-23.549c-10.679 0-19.368-8.688-19.368-19.368s8.688-19.368 19.368-19.368h23.549c10.68 0 19.368 8.688 19.368 19.368s-8.688 19.368-19.368 19.368z"/><path d="m149.134 399.55h-23.549c-18.951 0-34.368 15.417-34.368 34.368s15.417 34.368 34.368 34.368h23.549c18.95 0 34.368-15.417 34.368-34.368s-15.418-34.368-34.368-34.368zm0 53.736h-23.549c-10.68 0-19.368-8.688-19.368-19.368s8.688-19.368 19.368-19.368h23.549c10.679 0 19.368 8.688 19.368 19.368s-8.689 19.368-19.368 19.368z"/><path d="m386.415 399.55h-23.549c-18.951 0-34.368 15.417-34.368 34.368s15.417 34.368 34.368 34.368h23.549c18.951 0 34.368-15.417 34.368-34.368s-15.418-34.368-34.368-34.368zm0 53.736h-23.549c-10.68 0-19.368-8.688-19.368-19.368s8.688-19.368 19.368-19.368h23.549c10.68 0 19.368 8.688 19.368 19.368s-8.689 19.368-19.368 19.368z"/><path d="m149.134 216.632h-23.549c-18.951 0-34.368 15.417-34.368 34.368s15.417 34.368 34.368 34.368c24.677-.027 23.823.062 25.933-.082 9.236-.637 15.611-9.608 13.164-18.532-2.829-10.313-3.388-21.411-1.167-32.545 1.791-8.982-5.008-17.577-14.381-17.577zm-23.549 53.736c-10.68 0-19.368-8.688-19.368-19.368s8.688-19.368 19.368-19.368h23.149c-2.502 12.831-2.04 26.022 1.379 38.711-.917.046.15.017-24.528.025z"/><path d="m386.415 216.632h-23.549c-.008 0-.109 0-.118 0-9.18.031-16.066 8.536-14.263 17.576 2.083 10.45 1.848 21.55-1.167 32.545-1.166 4.25-.365 8.759 2.196 12.368 3.313 4.668 7.904 6.247 13.352 6.247h23.549c18.951 0 34.368-15.417 34.368-34.368s-15.418-34.368-34.368-34.368zm0 53.736c-24.721-.008-23.631.02-24.528-.024 3.413-12.67 3.884-25.862 1.379-38.712h23.149c10.68 0 19.368 8.688 19.368 19.368s-8.689 19.368-19.368 19.368z"/></g></g></svg>