<svg height="511pt" viewBox="0 -36 511.99888 511" width="511pt" xmlns="http://www.w3.org/2000/svg"><path d="m427.523438 330.484375-23.789063 23.789063s16.710937 35.398437 49.5625 68.25c11.730469 11.730468 30.746094 11.730468 42.476563 0 11.730468-11.730469 11.730468-30.75 0-42.480469-32.851563-32.851563-68.25-49.558594-68.25-49.558594zm0 0" fill="#87cde9"/><path d="m477.65625 51.246094c-34.074219-18.839844-71.476562-28.390625-111.160156-28.390625-48.464844 0-89.230469 14.484375-111.296875 24.300781-22.070313-9.816406-62.839844-24.300781-111.296875-24.300781-39.6875 0-77.085938 9.550781-111.1875 28.402343-15.597656 8.640626-25.285156 25.09375-25.285156 42.9375v186.8125c0 27.078126 22.007812 49.109376 49.0625 49.109376 7.089843 0 13.972656-1.511719 20.457031-4.5 20.722656-9.539063 43.246093-14.375 66.949219-14.375 51.019531 0 91.546874 22.320312 93.710937 23.539062 10.636719 6.570312 24.054687 6.664062 34.785156.234375l.367188-.222656c1.859375-1.046875 42.515625-23.550781 93.738281-23.550781 23.703125 0 46.226562 4.835937 66.949219 14.378906 6.484375 2.984375 13.367187 4.496094 20.457031 4.496094 12.800781 0 24.9375-4.933594 34.175781-13.890626 9.601563-9.3125 14.886719-21.820312 14.886719-35.21875v-186.816406c0-17.839844-9.6875-34.292968-25.3125-42.945312zm0 0" fill="#fb7073"/><path d="m460.808594 31.972656c-102.164063-56.480468-205.609375 4.257813-205.609375 4.257813l-106.472657 120.09375 106.472657 148.394531s94.988281-55.773438 192.8125-10.738281c9.40625 4.328125 20.128906-2.625 20.128906-12.972657v-236.566406c0-5.175781-2.804687-9.960937-7.332031-12.46875zm0 0" fill="#d9d7d8"/><path d="m255.199219 36.230469v268.488281s-94.988281-55.773438-192.8125-10.738281c-9.40625 4.328125-20.132813-2.625-20.132813-12.972657v-236.566406c0-5.175781 2.808594-9.960937 7.335938-12.46875 102.160156-56.480468 205.609375 4.257813 205.609375 4.257813zm0 0" fill="#efedee"/><path d="m427.523438 330.484375-23.789063 23.789063s5.945313 12.585937 17.703125 29.710937c7.167969-4.429687 13.871094-9.714844 19.976562-15.820313 6.105469-6.105468 11.394532-12.8125 15.820313-19.976562-17.125-11.761719-29.710937-17.703125-29.710937-17.703125zm0 0" fill="#7ab7d1"/><path d="m443.421875 290.871094c0 43.792968-35.503906 79.296875-79.300781 79.296875-43.792969 0-79.296875-35.503907-79.296875-79.296875 0-43.796875 35.503906-79.296875 79.296875-79.296875 43.796875 0 79.300781 35.5 79.300781 79.296875zm0 0" fill="#596673"/><path d="m410.601562 290.871094c0 25.667968-20.808593 46.476562-46.480468 46.476562-25.667969 0-46.476563-20.808594-46.476563-46.476562 0-25.667969 20.808594-46.476563 46.476563-46.476563 25.671875 0 46.480468 20.808594 46.480468 46.476563zm0 0" fill="#b6e3f4"/><path d="m351.265625 313.734375c-18.152344-18.152344-18.152344-47.578125 0-65.730469.871094-.871094 1.777344-1.691406 2.699219-2.480468-8.320313 1.855468-16.230469 6.007812-22.707032 12.484374-18.148437 18.148438-18.148437 47.578126 0 65.726563 17.277344 17.277344 44.769532 18.097656 63.027344 2.480469-15.003906 3.34375-31.34375-.804688-43.019531-12.480469zm0 0" fill="#87cde9"/><path d="m104.609375 82.203125v-9.355469c0-4.140625-3.355469-7.5-7.5-7.5s-7.503906 3.359375-7.503906 7.5v9.355469c0 4.144531 3.359375 7.503906 7.503906 7.503906s7.5-3.359375 7.5-7.503906zm0 0"/><path d="m207.996094 82.203125v-9.355469c0-4.140625-3.359375-7.5-7.503906-7.5-4.140626 0-7.5 3.359375-7.5 7.5v9.355469c0 4.144531 3.359374 7.503906 7.5 7.503906 4.144531 0 7.503906-3.359375 7.503906-7.503906zm0 0"/><path d="m148.800781 94.699219c7.136719 0 13.847657-2.992188 18.40625-8.207031 2.726563-3.121094 2.410157-7.859376-.710937-10.585938-3.117188-2.726562-7.859375-2.410156-10.585938.710938-1.710937 1.957031-4.300781 3.078124-7.109375 3.078124-2.804687 0-5.398437-1.121093-7.109375-3.078124-2.726562-3.121094-7.464844-3.4375-10.585937-.710938-3.121094 2.726562-3.4375 7.464844-.710938 10.585938 4.558594 5.214843 11.269531 8.207031 18.40625 8.207031zm0 0"/><path d="m79.351562 137.324219c1.789063 3.738281 6.273438 5.3125 10.007813 3.519531 14.65625-7.03125 36.324219-11.066406 59.441406-11.066406 23.121094 0 44.785157 4.035156 59.445313 11.066406 3.683594 1.769531 8.238281.171875 10.007812-3.515625 1.792969-3.738281.21875-8.21875-3.519531-10.011719-16.613281-7.96875-40.644531-12.542968-65.933594-12.542968-25.285156 0-49.320312 4.570312-65.933593 12.542968-3.734376 1.792969-5.308594 6.273438-3.515626 10.007813zm0 0"/><path d="m214.734375 174.628906c-16.613281-7.972656-40.644531-12.542968-65.933594-12.542968-25.289062 0-49.320312 4.570312-65.933593 12.542968-3.734376 1.789063-5.3125 6.273438-3.519532 10.007813 1.792969 3.734375 6.273438 5.3125 10.007813 3.519531 14.660156-7.03125 36.324219-11.066406 59.445312-11.066406 23.117188 0 44.785157 4.035156 59.441407 11.066406 3.6875 1.773438 8.238281.171875 10.007812-3.515625 1.796875-3.738281.222656-8.21875-3.515625-10.011719zm0 0"/><path d="m214.734375 221.9375c-16.613281-7.972656-40.644531-12.542969-65.933594-12.542969-25.289062 0-49.320312 4.570313-65.933593 12.542969-3.734376 1.792969-5.3125 6.273438-3.519532 10.011719 1.792969 3.734375 6.273438 5.308593 10.011719 3.519531 14.65625-7.035156 36.320313-11.066406 59.441406-11.066406 23.117188 0 44.785157 4.03125 59.441407 11.066406 3.597656 1.726562 8.214843.21875 10.011718-3.519531 1.792969-3.738281.21875-8.21875-3.519531-10.011719zm0 0"/><path d="m299.0625 88.84375c1.085938 0 2.191406-.234375 3.238281-.738281 14.660157-7.03125 36.324219-11.066407 59.445313-11.066407 23.117187 0 44.78125 4.035157 59.441406 11.066407 3.738281 1.792969 8.214844.214843 10.007812-3.519531 1.792969-3.738282.21875-8.21875-3.519531-10.007813-16.613281-7.972656-40.644531-12.546875-65.929687-12.546875-25.289063 0-49.320313 4.574219-65.9375 12.546875-3.734375 1.789063-5.308594 6.273437-3.515625 10.007813 1.289062 2.691406 3.972656 4.261718 6.769531 4.257812zm0 0"/><path d="m299.0625 136.15625c1.085938 0 2.191406-.238281 3.238281-.738281 14.660157-7.035157 36.324219-11.066407 59.445313-11.066407 23.117187 0 44.78125 4.03125 59.441406 11.0625 3.738281 1.792969 8.214844.21875 10.007812-3.515624 1.792969-3.738282.21875-8.21875-3.519531-10.011719-16.613281-7.96875-40.644531-12.542969-65.933593-12.542969-25.285157 0-49.320313 4.574219-65.933594 12.542969-3.734375 1.792969-5.3125 6.273437-3.519532 10.011719 1.292969 2.6875 3.976563 4.257812 6.773438 4.257812zm0 0"/><path d="m326.027344 329.117188c10.195312 10.195312 23.75 15.8125 38.171875 15.8125 14.417969 0 27.972656-5.617188 38.167969-15.8125 21.046874-21.046876 21.046874-55.289063 0-76.335938-10.195313-10.195312-23.75-15.8125-38.167969-15.8125-14.421875 0-27.976563 5.613281-38.171875 15.8125-21.046875 21.042969-21.046875 55.289062 0 76.335938zm10.609375-65.726563c7.363281-7.363281 17.152343-11.417969 27.5625-11.417969 10.410156 0 20.195312 4.054688 27.558593 11.417969 15.195313 15.195313 15.195313 39.921875 0 55.117187-7.363281 7.359376-17.148437 11.414063-27.558593 11.414063-10.410157 0-20.199219-4.054687-27.5625-11.414063-15.195313-15.195312-15.195313-39.921874 0-55.117187zm0 0"/><path d="m95.351562 6.222656c-17.121093 4.152344-33.714843 10.632813-49.324218 19.265625-6.066406 3.359375-10.113282 9.390625-11.007813 16.167969-2.101562 1.078125-4.019531 2.097656-5.867187 3.117188-17.980469 9.960937-29.152344 28.925781-29.152344 49.496093v186.816407c0 31.214843 25.375 56.609374 56.5625 56.609374 8.183594 0 16.121094-1.742187 23.597656-5.183593 19.730469-9.085938 41.199219-13.691407 63.8125-13.691407 48.386719 0 87.011719 20.898438 89.917969 22.511719 6.4375 3.9375 13.828125 6.019531 21.378906 6.019531 7.414063 0 14.695313-2.011718 21.050781-5.820312l.277344-.164062c.675782-.378907 5.328125-2.929688 12.960938-6.175782 3.625 6.144532 8.042968 11.914063 13.261718 17.132813 16.394532 16.394531 38.191407 25.421875 61.375 25.421875 13.679688 0 26.863282-3.164063 38.75-9.105469 7.710938 13.480469 22.761719 36.90625 45.117188 59.265625 14.464844 14.464844 38.640625 14.449219 53.089844 0 14.46875-14.472656 14.457031-38.636719 0-53.089844-16.242188-16.242187-33.046875-28.625-46.199219-37.144531 14.402344-.242187 28.015625-5.890625 38.421875-15.984375 11.074219-10.738281 17.167969-25.15625 17.167969-40.601562v-186.816407c0-20.566406-11.179688-39.539062-29.183594-49.511719-1.839844-1.019531-3.746094-2.03125-5.832031-3.101562-.898438-6.777344-4.945313-12.8125-11.015625-16.171875-54.792969-30.292969-109.796875-27.503906-146.289063-19.828125-31.25 6.574219-54.230468 17.53125-62.941406 22.097656-14.300781-7.53125-66.734375-32.179687-130.574219-26.378906-4.128906.375-7.167969 4.023438-6.792969 8.152344.375 4.125 4.019532 7.164062 8.148438 6.789062 58.507812-5.316406 108.082031 17.472656 121.707031 24.472656v251.734376c-18.238281-8.566407-56.828125-23.535157-103.796875-23.535157-29.09375 0-58.199218 6.082031-84.652344 18.257813-4.351562 2-9.488281-1.386719-9.488281-6.160156v-236.566407c0-2.460937 1.328125-4.722656 3.460938-5.90625 14.433593-7.980469 29.773437-13.972656 45.59375-17.808593 4.027343-.976563 6.5-5.035157 5.523437-9.058594-.976562-4.027344-5.03125-6.5-9.058594-5.523438zm173.800782 322.113282c-4.3125 2.429687-8.878906 4.015624-13.882813 4.015624-5.058593 0-9.554687-1.589843-13.914062-4.035156-1.78125-1-44.246094-24.496094-97.382813-24.496094-24.796875 0-48.375 5.066407-70.085937 15.0625-5.492188 2.527344-11.324219 3.808594-17.324219 3.808594-22.914062 0-41.558594-18.664062-41.558594-41.605468v-186.816407c0-14.5 7.550782-27.914062 19.824219-35.441406v222.257813c0 15.046874 17.097656 26.09375 30.769531 19.789062 40.515625-18.652344 80.578125-18.945312 111.070313-14.3125 43.605469 6.746094 74.394531 24.460938 74.804687 24.703125 2.261719 1.316406 5.289063 1.359375 7.558594.019531 6.046875-3.492187 19.035156-9.070312 19.113281-9.105468.875 6.65625 2.515625 13.214843 4.878907 19.484374-8.242188 3.539063-13.207032 6.296876-13.871094 6.671876zm227.992187 73.023437c0 6.019531-2.34375 11.679687-6.601562 15.933594-8.691407 8.691406-23.1875 8.683593-31.871094 0-21.402344-21.402344-35.71875-43.828125-42.925781-56.488281 3.472656-2.578126 6.769531-5.421876 9.828125-8.480469 3.011719-3.011719 5.910156-6.367188 8.476562-9.828125 12.660157 7.207031 35.089844 21.527344 56.492188 42.929687 4.257812 4.257813 6.601562 9.914063 6.601562 15.933594zm-1.601562-307.089844v186.816407c0 11.347656-4.480469 21.945312-12.613281 29.832031-9.832032 9.535156-24.15625 13.746093-37.566407 10.855469 2.339844-6.167969 3.96875-12.613282 4.851563-19.238282-.035156.242188 4.703125.3125 5.253906.277344.019531 0 .035156-.003906.054688-.003906 11.128906-.902344 20.195312-10.523438 20.195312-21.722656v-222.253907c12.273438 7.539063 19.824219 20.949219 19.824219 35.4375zm-174.230469-73.929687c49.453125-10.398438 95.191406-4.25 135.9375 18.273437 2.136719 1.183594 3.464844 3.445313 3.464844 5.90625v236.566407c0 2.367187-1.246094 4.546874-3.257813 5.78125-2.066406 1.246093-4.398437 1.21875-6.554687.230468-1.046875-24.167968-12.59375-47.34375-31.148438-62.847656-30-25.074219-73.234375-27.144531-105.664062-4.167969-3.378906 2.394531-4.175782 7.078125-1.78125 10.460938 2.394531 3.378906 7.078125 4.175781 10.457031 1.78125 8.644531-6.125 18.625-10.320313 29.058594-12.15625 22.414062-3.945313 46.074219 2.949219 63.140625 20.015625 21.65625 21.65625 26.761718 56.953125 12.835937 84.089844-12.046875 23.484374-37.324219 38.472656-63.605469 38.472656-19.175781 0-37.207031-7.46875-50.765624-21.03125-23.601563-23.597656-27.605469-62.289063-9.265626-90.171875 2.394532-3.636719 1.050782-8.769531-2.808593-10.78125-.03125-.015625-.0625-.023438-.09375-.042969-3.332031-1.679688-7.582031-.542969-9.632813 2.578125-1.445312 2.199219-2.761718 4.476563-4.023437 6.785156-5.960938 11.15625-9.398438 23.457031-10.074219 36.175781-4.988281 1.9375-9.914062 4.023438-14.757812 6.292969v-251.773437c8.269531-4.273438 29.769531-14.386719 58.539062-20.4375zm0 0"/></svg>