<svg height="512pt" viewBox="0 -69 512 512" width="512pt" xmlns="http://www.w3.org/2000/svg"><path d="m487.117188 54.179688c-5.1875-1.703126-11.402344-2.957032-18.457032-2.957032h-425.320312c-7.054688 0-13.269532 1.253906-18.457032 2.957032-10.410156 3.417968-17.382812 13.21875-17.382812 24.175781l.011719 232.160156c0 25.636719 20.847656 46.492187 46.472656 46.492187 8.023437 0 15.96875-2.113281 22.949219-6.09375 14.105468-8.023437 38.175781-17.585937 72.742187-17.585937 51.675781 0 79.480469 21.566406 82.453125 24 13.03125 12.527344 33.527344 12.839844 46.9375.722656l.964844-.875c.265625-.238281 28.789062-23.847656 82.304688-23.847656 34.558593 0 58.625 9.5625 72.71875 17.578125 7.007812 3.992188 14.949218 6.101562 22.96875 6.101562 12.0625 0 23.511718-4.617187 32.234374-13 9.183594-8.824218 14.242188-20.722656 14.242188-33.492187v-232.160156c0-10.957031-6.972656-20.757813-17.382812-24.175781zm0 0" fill="#da5b65"/><path d="m487.117188 54.179688c-5.1875-1.703126-11.402344-2.957032-18.457032-2.957032h-425.320312c-7.054688 0-13.269532 1.253906-18.457032 2.957032-.519531.171874-1.027343.371093-1.53125.574218v255.761719c0 16.898437 13.742188 30.652344 30.632813 30.652344 5.277344 0 10.511719-1.394531 15.117187-4.023438 15.769532-8.964843 42.546876-19.65625 80.574219-19.65625 57.742188 0 89.003907 24.660157 92.703125 27.757813l.199219.199218c7.550781 7.550782 19.839844 7.402344 27.207031-.332031 4.359375-3.601562 35.566406-27.625 92.550782-27.625 38.023437 0 64.796874 10.691407 80.558593 19.652344 4.625 2.632813 9.855469 4.027344 15.128907 4.027344h.003906c7.949218 0 15.5-3.046875 21.257812-8.582031 6.046875-5.808594 9.375-13.648438 9.375-22.070313v-255.761719c-.507812-.203125-1.015625-.402344-1.542968-.574218zm0 0" fill="#c0344a"/><path d="m459.035156 33.523438c-15.085937-9.714844-47.730468-26.050782-96.699218-26.050782-69.71875 0-106.335938 33.097656-106.335938 33.097656l-32.503906 128.460938 32.503906 161.554688s36.617188-33.097657 106.335938-33.097657c43.050781 0 73.472656 12.617188 90.449218 22.273438 7.085938 4.035156 15.875-1.097657 15.875-9.246094v-259.296875c0-7.144531-3.617187-13.824219-9.625-17.695312zm0 0" fill="#d4d2d3"/><path d="m256 40.570312v290.015626s-36.609375-33.097657-106.324219-33.097657c-43.050781 0-73.484375 12.617188-90.460937 22.273438-7.078125 4.035156-15.863282-1.097657-15.863282-9.246094v-259.296875c0-7.148438 3.605469-13.824219 9.625-17.695312 15.085938-9.714844 47.71875-26.050782 96.699219-26.050782 69.714844 0 106.324219 33.097656 106.324219 33.097656zm0 0" fill="#efedee"/><path d="m307.652344 83.195312c.863281 0 1.742187-.148437 2.601562-.46875 15.988282-5.910156 33.511719-8.90625 52.082032-8.90625 18.566406 0 36.085937 2.996094 52.074218 8.90625 3.886719 1.4375 8.199219-.550781 9.636719-4.433593 1.433594-3.886719-.550781-8.199219-4.433594-9.636719-17.660156-6.527344-36.929687-9.835938-57.277343-9.835938-20.351563 0-39.625 3.308594-57.285157 9.835938-3.882812 1.4375-5.871093 5.75-4.433593 9.636719 1.117187 3.027343 3.984374 4.902343 7.035156 4.902343zm0 0"/><path d="m307.652344 124.835938c.863281 0 1.742187-.148438 2.601562-.464844 15.984375-5.910156 33.507813-8.910156 52.082032-8.910156 18.566406 0 36.085937 3 52.074218 8.90625 3.886719 1.4375 8.199219-.546876 9.636719-4.433594 1.433594-3.882813-.550781-8.199219-4.433594-9.632813-17.660156-6.53125-36.929687-9.839843-57.277343-9.839843-20.355469 0-39.625 3.3125-57.285157 9.839843-3.882812 1.433594-5.871093 5.75-4.433593 9.632813 1.117187 3.03125 3.984374 4.902344 7.035156 4.902344zm0 0"/><path d="m307.652344 166.464844c.871094.007812 1.75-.136719 2.601562-.453125 15.984375-5.910157 33.507813-8.90625 52.082032-8.90625 18.566406 0 36.085937 2.996093 52.074218 8.90625 3.886719 1.4375 8.199219-.546875 9.636719-4.433594 1.433594-3.886719-.550781-8.199219-4.4375-9.636719-17.65625-6.527344-36.925781-9.835937-57.273437-9.835937-20.355469 0-39.625 3.308593-57.285157 9.839843-3.886719 1.433594-5.871093 5.75-4.433593 9.632813 1.101562 2.976563 4.003906 4.855469 7.035156 4.886719zm0 0"/><path d="m307.652344 208.121094c.863281 0 1.742187-.148438 2.601562-.464844 15.988282-5.914062 33.511719-8.910156 52.082032-8.910156 18.566406 0 36.085937 2.996094 52.074218 8.90625 3.886719 1.4375 8.199219-.546875 9.636719-4.433594 1.433594-3.882812-.550781-8.199219-4.433594-9.632812-17.660156-6.527344-36.929687-9.839844-57.277343-9.839844-20.351563 0-39.625 3.3125-57.285157 9.839844-3.882812 1.4375-5.871093 5.75-4.433593 9.636718 1.117187 3.023438 3.984374 4.898438 7.035156 4.898438zm0 0"/><path d="m424.046875 244.859375c1.433594-3.882813-.550781-8.199219-4.4375-9.632813-17.65625-6.527343-36.925781-9.835937-57.273437-9.835937-20.355469 0-39.625 3.308594-57.285157 9.835937-3.886719 1.4375-5.871093 5.75-4.433593 9.636719 1.117187 3.027344 3.984374 4.898438 7.035156 4.898438.863281 0 1.742187-.148438 2.601562-.464844 15.984375-5.910156 33.507813-8.910156 52.082032-8.910156 18.566406 0 36.085937 3 52.074218 8.910156 3.886719 1.433594 8.199219-.550781 9.636719-4.4375zm0 0"/><path d="m87.960938 161.578125c1.121093 3.027344 3.984374 4.902344 7.035156 4.902344.863281 0 1.742187-.152344 2.601562-.46875 15.988282-5.910157 33.507813-8.90625 52.082032-8.90625 18.566406 0 36.085937 2.996093 52.074218 8.90625 3.882813 1.4375 8.199219-.550781 9.636719-4.433594 1.433594-3.886719-.550781-8.199219-4.4375-9.636719-17.65625-6.527344-36.925781-9.835937-57.273437-9.835937-20.355469 0-39.625 3.308593-57.285157 9.835937-3.882812 1.4375-5.871093 5.753906-4.433593 9.636719zm0 0"/><path d="m206.953125 193.585938c-17.65625-6.527344-36.925781-9.839844-57.273437-9.839844-20.355469 0-39.625 3.3125-57.285157 9.839844-3.882812 1.4375-5.871093 5.75-4.433593 9.636718 1.117187 3.023438 3.984374 4.898438 7.035156 4.898438.863281 0 1.742187-.148438 2.601562-.464844 15.988282-5.914062 33.511719-8.910156 52.082032-8.910156 18.566406 0 36.085937 2.996094 52.074218 8.90625 3.886719 1.4375 8.199219-.546875 9.636719-4.433594 1.433594-3.882812-.550781-8.199219-4.4375-9.632812zm0 0"/><path d="m206.953125 235.226562c-17.65625-6.527343-36.925781-9.835937-57.273437-9.835937-20.355469 0-39.625 3.308594-57.285157 9.835937-3.882812 1.4375-5.871093 5.75-4.433593 9.636719 1.117187 3.027344 3.984374 4.898438 7.035156 4.898438.863281 0 1.742187-.148438 2.601562-.464844 15.988282-5.910156 33.507813-8.910156 52.082032-8.910156 18.566406 0 36.089843 3 52.074218 8.910156 3.886719 1.433594 8.199219-.550781 9.636719-4.4375 1.433594-3.882813-.550781-8.199219-4.4375-9.632813zm0 0"/><path d="m97.984375 89.4375v-10.710938c0-4.144531-3.355469-7.5-7.5-7.5-4.140625 0-7.5 3.355469-7.5 7.5v10.710938c0 4.140625 3.359375 7.5 7.5 7.5 4.144531 0 7.5-3.359375 7.5-7.5zm0 0"/><path d="m216.363281 89.4375v-10.710938c0-4.144531-3.355469-7.5-7.5-7.5-4.140625 0-7.5 3.355469-7.5 7.5v10.710938c0 4.140625 3.359375 7.5 7.5 7.5 4.144531 0 7.5-3.359375 7.5-7.5zm0 0"/><path d="m149.675781 102.65625c7.855469 0 15.238281-3.292969 20.253907-9.027344 2.726562-3.121094 2.410156-7.859375-.710938-10.585937-3.117188-2.726563-7.855469-2.40625-10.582031.710937-2.164063 2.480469-5.433594 3.898438-8.960938 3.898438-3.53125 0-6.796875-1.417969-8.960937-3.898438-2.730469-3.117187-7.464844-3.4375-10.585938-.710937-3.117187 2.726562-3.4375 7.464843-.710937 10.585937 5.015625 5.734375 12.398437 9.027344 20.257812 9.027344zm0 0"/><path d="m489.457031 47.078125c-4.628906-1.519531-9.382812-2.511719-14.199219-2.992187-1.761718-6.875-6.039062-12.894532-12.164062-16.839844-15.792969-10.175782-49.886719-27.246094-100.757812-27.246094-37.378907 0-65.476563 9.375-82.464844 17.242188-7.789063 3.609374-14.957032 7.644531-21.304688 12-.941406.644531-1.792968 1.238281-2.574218 1.792968-12.589844-9.222656-48.472657-31.035156-106.316407-31.035156-11.945312 0-23.746093.957031-35.074219 2.839844-4.085937.679687-6.847656 4.542968-6.167968 8.628906.679687 4.085938 4.546875 6.847656 8.628906 6.167969 10.515625-1.75 21.488281-2.636719 32.613281-2.636719 55.863281 0 89.75 22.339844 98.824219 29.1875v271.816406c-14.210938-8.839844-40.363281-21.433594-77.9375-25.003906-39.210938-3.765625-80.550781 2.640625-115.0625 22.269531-2.058594 1.171875-4.648438-.402343-4.648438-2.730469v-259.292968c0-4.640625 2.308594-8.898438 6.1875-11.390625 6.3125-4.066407 16.859376-9.960938 31.246094-14.949219 3.914063-1.355469 5.988282-5.628906 4.632813-9.542969-1.355469-3.914062-5.628907-5.984375-9.542969-4.628906-15.792969 5.472656-27.457031 12-34.453125 16.507813-6.132813 3.941406-10.410156 9.960937-12.171875 16.84375-4.820312.480468-9.578125 1.472656-14.207031 2.992187-13.484375 4.429687-22.542969 17.011719-22.542969 31.304687l.0078125 232.15625c0 29.773438 24.2148435 53.992188 53.9726565 53.992188 9.328125 0 18.546875-2.445312 26.660156-7.070312 13.320313-7.574219 36.105469-16.605469 69.035156-16.605469 48.023438 0 73.824219 19.191406 77.496094 22.136719 8.035156 7.601562 18.421875 11.417968 28.820313 11.417968 10.84375 0 20.957031-4.308594 28.941406-11.527344 1.507812-1.203124 28.417968-22.027343 77.402344-22.027343 17.5625 0 34.035156 2.578125 48.953124 7.660156 3.921876 1.335937 8.183594-.757813 9.519532-4.679687 1.335937-3.921876-.761719-8.183594-4.679688-9.519532-16.480468-5.613281-34.578125-8.460937-53.792968-8.460937-57.199219 0-87.046876 25.519531-87.332032 25.78125-10.601562 9.570312-26.890625 10.675781-37.675781.3125-6.789063-6.519531-16.769531-10.914063-25.296875-14.4375-18.714844-7.734375-39.695312-11.65625-62.355469-11.65625-36.207031 0-61.558593 10.09375-76.457031 18.570312-5.859375 3.339844-12.511719 5.105469-19.234375 5.105469-21.492187 0-38.972656-17.492188-38.972656-38.992188l-.011719-232.15625c0-7.796874 4.910156-14.652343 12.222656-17.054687 2.824219-.925781 5.707032-1.605469 8.628906-2.035156v251.246093c0 6.539063 3.375 12.40625 9.027344 15.6875 5.484375 3.1875 12.53125 3.214844 18.042969.078126 34.421875-19.585938 76.234375-24.753907 115.082031-19.292969.121094.019531.242188.035156.363282.054687 45.363281 6.628906 70.328124 27.164063 72.453124 28.976563 3.039063 2.597656 7.519532 2.816406 10.46875-.089844 2.65625-2.238281 25.753907-20.828125 67.25-28.070313 40.367188-6.992187 84.574219-2.03125 120.535157 18.421876 9.3125 5.296874 22.003906.835937 25.851562-9.175782.800781-2.089844 1.234375-4.347656 1.234375-6.589844v-251.246093c2.914063.429687 5.796875 1.109375 8.617188 2.035156 7.3125 2.402344 12.222656 9.257813 12.222656 17.054687v232.15625c0 10.714844-4.242188 20.691407-11.941406 28.089844-7.316406 7.03125-16.917969 10.902344-27.035156 10.902344-5.039063 0-9.976563-.972656-14.683594-2.894531-3.835938-1.566407-8.210938.273437-9.777344 4.109375-1.566406 3.835937.273438 8.214844 4.109375 9.777344 6.515625 2.660156 13.363281 4.007812 20.351563 4.007812 14.011718 0 27.304687-5.359375 37.429687-15.089844 10.667969-10.25 16.546875-24.066406 16.546875-38.902344v-232.15625c0-14.292968-9.058594-26.875-22.542969-31.304687zm-127.121093 242.851563c-34.210938.019531-69.453126 7.875-98.726563 26.042968-.035156.019532-.074219.042969-.109375.066406v-271.847656c9.101562-6.871094 42.988281-29.191406 98.835938-29.191406 47.03125 0 78.226562 15.574219 92.636718 24.855469 3.875 2.496093 6.1875 6.753906 6.1875 11.390625v259.292968c0 2.347657-2.617187 3.894532-4.664062 2.726563-28.394532-16.175781-61.65625-23.355469-94.160156-23.335937zm0 0"/></svg>