<?xml version="1.0"?>
<svg xmlns="http://www.w3.org/2000/svg" id="Capa_1" enable-background="new 0 0 512 512" height="512px" viewBox="0 0 512 512" width="512px" class=""><g><g><g><path d="m228.463 404.026v90.739c0 7.915 8.955 12.51 15.385 7.894l27.295-19.594 27.295 19.594c6.43 4.616 15.385.02 15.385-7.894v-90.739z" fill="#ff8a98" data-original="#FF8A98" class="active-path" style="fill:#BD9CDE" data-old_color="#ff8a98"/><path d="m140.711 17.514h-22.282c-32.656 0-59.134 26.478-59.134 59.134v297.053c0 32.656 26.478 59.134 59.134 59.134h22.282l33.174-209.163z" fill="#a57cd2" data-original="#A57CD2" class="" style="fill:#A57CD2" data-old_color="#a57cd2"/><path d="m228.463 404.026h85.359v58.81h-85.359z" fill="#ff6e80" data-original="#FF6E80" style="fill:#A57CD2" class="" data-old_color="#ff6e80"/><path d="m140.711 17.514h301.98v415.321h-301.98z" fill="#bd9cde" data-original="#BD9CDE" class="" style="fill:#BD9CDE" data-old_color="#bd9cde"/><path d="m442.691 17.514h-121.633c-.043.776-.068 1.557-.068 2.343v15.342c0 23.356 19.001 42.357 42.357 42.357h19.301v19.311c0 23.356 19.002 42.357 42.357 42.357h15.342c.787 0 1.567-.025 2.343-.068v-121.642z" fill="#a57cd2" data-original="#A57CD2" class="" style="fill:#A57CD2" data-old_color="#a57cd2"/><path d="m452.705 37.736v59.132c0 6.825-5.533 12.357-12.357 12.357h-15.342c-6.825 0-12.357-5.533-12.357-12.357v-36.595c0-7.023-5.693-12.716-12.716-12.716h-36.584c-6.825 0-12.357-5.533-12.357-12.357v-15.343c0-6.825 5.533-12.357 12.357-12.357h59.122c16.697 0 30.234 13.537 30.234 30.236z" fill="#f9ee80" data-original="#F9EE80" class="" style="fill:#F9EE80"/><path d="m442.691 311.197c-.776-.042-1.557-.068-2.343-.068h-15.342c-23.355 0-42.357 19.001-42.357 42.357v19.311h-19.301c-23.356 0-42.357 19.001-42.357 42.357v15.342c0 .785.025 1.564.068 2.339h121.633v-121.638z" fill="#a57cd2" data-original="#A57CD2" class="" style="fill:#A57CD2" data-old_color="#a57cd2"/><path d="m452.705 412.618v-59.132c0-6.825-5.533-12.357-12.357-12.357h-15.342c-6.825 0-12.357 5.533-12.357 12.357v36.594c0 7.023-5.693 12.716-12.716 12.716h-36.584c-6.825 0-12.357 5.533-12.357 12.357v15.342c0 6.825 5.533 12.357 12.357 12.357h59.122c16.697.002 30.234-13.535 30.234-30.234z" fill="#f9ee80" data-original="#F9EE80" class="" style="fill:#F9EE80"/><path d="m349.937 89.88h-116.472c-12.16 0-22.017 9.857-22.017 22.017v44.388c0 12.16 9.857 22.017 22.017 22.017h116.472c12.16 0 22.017-9.857 22.017-22.017v-44.388c0-12.16-9.857-22.017-22.017-22.017z" fill="#ececec" data-original="#ECECEC" class="" style="fill:#ECECEC"/></g><g><path d="m379.452 111.895c0-16.276-13.241-29.517-29.517-29.517h-116.47c-16.276 0-29.517 13.241-29.517 29.517v44.387c0 16.276 13.241 29.517 29.517 29.517h116.47c16.276 0 29.517-13.241 29.517-29.517zm-15 44.388c0 8.005-6.512 14.517-14.517 14.517h-116.47c-8.005 0-14.517-6.512-14.517-14.517v-44.387c0-8.005 6.512-14.517 14.517-14.517h116.47c8.005 0 14.517 6.512 14.517 14.517z" data-original="#000000" class="" style="fill:#000000"/><path d="m335.959 112.569h-88.518c-4.142 0-7.5 3.357-7.5 7.5 0 4.142 3.358 7.5 7.5 7.5h88.518c4.142 0 7.5-3.358 7.5-7.5s-3.358-7.5-7.5-7.5z" data-original="#000000" class="" style="fill:#000000"/><path d="m335.959 139.607h-88.518c-4.142 0-7.5 3.358-7.5 7.5 0 4.143 3.358 7.5 7.5 7.5h88.518c4.142 0 7.5-3.357 7.5-7.5 0-4.142-3.358-7.5-7.5-7.5z" data-original="#000000" class="" style="fill:#000000"/><path d="m203.948 254.382v15.421c0 4.142 3.358 7.5 7.5 7.5s7.5-3.358 7.5-7.5v-15.421c0-4.142-3.358-7.5-7.5-7.5s-7.5 3.358-7.5 7.5z" data-original="#000000" class="" style="fill:#000000"/><path d="m364.452 254.382v15.421c0 4.142 3.358 7.5 7.5 7.5s7.5-3.358 7.5-7.5v-15.421c0-4.142-3.358-7.5-7.5-7.5s-7.5 3.358-7.5 7.5z" data-original="#000000" class="" style="fill:#000000"/><path d="m307.204 264.416c-3.914 4.491-9.565 7.067-15.505 7.067s-11.59-2.576-15.504-7.066c-2.722-3.123-7.459-3.448-10.581-.727-3.123 2.721-3.448 7.459-.727 10.581 6.763 7.761 16.536 12.211 26.812 12.211s20.048-4.451 26.812-12.211c2.722-3.122 2.396-7.86-.726-10.581s-7.859-2.397-10.581.726z" data-original="#000000" class="" style="fill:#000000"/><path d="m118.432 440.327h102.532v54.429c0 14.011 15.874 22.159 27.258 13.987l22.921-16.454 22.921 16.454c11.359 8.156 27.258.055 27.258-13.987v-54.429h24.799c3.427 5.975 9.857 10.018 17.225 10.018h59.121c20.807 0 37.735-16.927 37.735-37.735v-59.13c0-7.366-4.041-13.795-10.014-17.222v-139.089c0-4.142-3.358-7.5-7.5-7.5s-7.5 3.358-7.5 7.5v136.455h-10.185c-.684 0-1.361.035-2.028.103-10 1.019-17.83 9.49-17.83 19.755v36.594c0 2.876-2.34 5.216-5.216 5.216h-36.584c-10.949 0-19.857 8.908-19.857 19.857v10.181h-195.275v-75.992c0-4.142-3.358-7.5-7.5-7.5s-7.5 3.358-7.5 7.5v75.992h-14.781c-28.471 0-51.633-23.163-51.633-51.633v-297.05c0-28.471 23.163-51.633 51.633-51.633h14.781v294.323c0 4.142 3.358 7.5 7.5 7.5s7.5-3.358 7.5-7.5v-294.323h195.276v10.185c0 10.95 8.908 19.857 19.857 19.857h36.584c2.876 0 5.216 2.34 5.216 5.216v36.594c0 10.949 8.908 19.857 19.857 19.857h10.185v50.446c0 4.142 3.358 7.5 7.5 7.5s7.5-3.358 7.5-7.5v-53.081c5.973-3.428 10.014-9.856 10.014-17.222v-59.131c-.001-20.808-16.929-37.735-37.736-37.735h-59.121c-7.366 0-13.795 4.041-17.222 10.014h-227.691c-36.742 0-66.633 29.892-66.633 66.633v297.048c0 36.741 29.891 66.632 66.633 66.632zm326.77-27.716c0 12.536-10.199 22.735-22.735 22.735h-59.121c-2.339 0-4.297-1.663-4.755-3.869-.004-.02-.004-.04-.008-.06-.063-.332-.094-.636-.094-.929v-15.342c0-2.678 2.179-4.857 4.858-4.857h36.583c11.147 0 20.216-9.069 20.216-20.216v-36.593c0-2.344 1.668-4.305 3.88-4.759.316-.064.643-.099.977-.099h15.342c.075 0 .145.019.219.022.23.011.463.024.713.072.019.003.037.004.056.007 2.206.458 3.87 2.415 3.87 4.755v59.133zm-138.88 27.716v54.429c0 1.824-2.035 2.861-3.511 1.802l-27.294-19.594c-2.613-1.876-6.134-1.876-8.747 0l-27.294 19.594c-1.476 1.06-3.511.022-3.511-1.802v-54.429zm57.024-425.327h59.121c12.536 0 22.735 10.199 22.735 22.735v59.131c0 2.34-1.664 4.299-3.871 4.756-.018.003-.035.004-.053.007-.235.046-.48.063-.726.073-.067.003-.142.021-.208.021h-15.342c-2.678 0-4.857-2.179-4.857-4.857v-36.594c0-11.147-9.069-20.216-20.216-20.216h-36.583c-2.679 0-4.858-2.179-4.858-4.857v-15.342c0-.291.032-.603.094-.927.004-.021.005-.042.009-.063.459-2.205 2.416-3.867 4.755-3.867z" data-original="#000000" class="" style="fill:#000000"/></g></g></g> </svg>
