<svg id="Capa_1" enable-background="new 0 0 512 512" height="512" viewBox="0 0 512 512" width="512" xmlns="http://www.w3.org/2000/svg"><g><path d="m480.114 214.527h-448.228c-13.468 0-24.386 10.918-24.386 24.386v200.262c0 13.468 10.918 24.386 24.386 24.386h448.229c13.468 0 24.386-10.918 24.386-24.386v-200.262c-.001-13.468-10.919-24.386-24.387-24.386z" fill="#8eafe2"/><path d="m211.334 387.719h89.332v75.842h-89.332z" fill="#7c93dd"/><path d="m65.068 186.647c54.78-21.249 128.763-20.447 190.932 14.619v193.831c-70.832-39.952-156.999-35.426-212.628-4.485v-172.042c0-14.084 8.565-26.829 21.696-31.923z" fill="#fae0bd"/><path d="m446.932 186.647c-54.78-21.249-128.763-20.447-190.932 14.619v193.831c70.832-39.952 156.999-35.426 212.628-4.485v-172.042c0-14.084-8.565-26.829-21.696-31.923z" fill="#fbf1cf"/><path d="m256 395.097c-70.832-39.952-156.999-35.426-212.628-4.485v23.716c0 7.379 5.982 13.361 13.361 13.361h398.534c7.379 0 13.361-5.982 13.361-13.361v-23.716c-55.629-30.942-141.796-35.467-212.628 4.485z" fill="#e0b799"/><path d="m425.924 230.84h-22.152c0-81.492-66.29-147.782-147.772-147.782s-147.772 66.29-147.772 147.782h-22.152c-7.012 0-12.504-5.965-12.011-12.96 6.668-94.548 85.72-169.441 181.935-169.441s175.267 74.893 181.935 169.441c.494 6.995-4.999 12.96-12.011 12.96z" fill="#eda1ab"/><path d="m165.352 72.606c-51.247 29.476-86.904 83.128-91.288 145.274-.493 6.995 4.999 12.96 12.011 12.96h22.152c0-47.564 22.588-89.941 57.593-116.989-3.187-14.523-3.438-29.008-.468-41.245z" fill="#e58996"/><path d="m403.772 230.84h-34.619c0-62.403-50.761-113.163-113.154-113.163s-113.153 50.76-113.153 113.163h-34.619c0-81.492 66.29-147.782 147.772-147.782 81.483 0 147.773 66.29 147.773 147.782z" fill="#f6ee86"/><path d="m369.154 230.84h-22.065c-6.655 0-12.418-4.819-13.376-11.404-5.523-37.977-38.213-67.14-77.713-67.14s-72.191 29.164-77.713 67.14c-.958 6.585-6.721 11.404-13.376 11.404h-22.064c0-62.403 50.761-113.163 113.154-113.163s113.153 50.76 113.153 113.163z" fill="#8ee2e1"/><path d="m165.821 113.851c-35.005 27.048-57.593 69.426-57.593 116.989h34.619c0-32.735 13.974-62.261 36.263-82.942-6.228-10.581-10.715-22.317-13.289-34.047z" fill="#f2d98d"/><path d="m142.846 230.84h22.064c6.655 0 12.418-4.819 13.376-11.404 2.577-17.72 11.072-33.518 23.411-45.333-9.044-6.965-16.613-16.052-22.588-26.205-22.288 20.681-36.263 50.207-36.263 82.942z" fill="#6ad7be"/><path d="m319.451 276.768c0 4.142 3.357 7.5 7.5 7.5h84.405c4.143 0 7.5-3.358 7.5-7.5s-3.357-7.5-7.5-7.5h-84.405c-4.142 0-7.5 3.357-7.5 7.5zm-218.807 7.5h84.405c4.143 0 7.5-3.358 7.5-7.5s-3.357-7.5-7.5-7.5h-84.405c-4.143 0-7.5 3.358-7.5 7.5s3.357 7.5 7.5 7.5zm379.47-77.241h-5.633c-3.56-12.311-12.659-22.648-24.838-27.373-3.887-1.507-7.932-2.924-12.066-4.233-8.081-26.315-21.86-50.857-40.439-71.499-2.772-3.08-7.514-3.328-10.592-.557s-3.328 7.513-.557 10.592c25.956 28.839 41.747 65.934 44.464 104.451.188 2.675-1.887 4.932-4.529 4.932h-14.836c-3.926-82.153-71.985-147.782-155.088-147.782s-151.162 65.629-155.088 147.782h-14.837c-2.639 0-4.718-2.254-4.529-4.932 6.402-90.767 82.298-162.469 174.454-162.469 38.153 0 74.434 12.121 104.917 35.054 3.31 2.489 8.012 1.824 10.502-1.485 2.49-3.31 1.825-8.012-1.484-10.502-33.104-24.903-72.502-38.067-113.935-38.067-85.376 0-157.902 56.66-181.647 134.503-4.11 1.302-8.131 2.713-11.997 4.212-12.178 4.724-21.277 15.061-24.837 27.372h-5.633c-17.582.001-31.886 14.305-31.886 31.887v200.262c0 17.582 14.304 31.886 31.886 31.886h27.417c4.143 0 7.5-3.358 7.5-7.5s-3.357-7.5-7.5-7.5h-27.417c-9.311 0-16.886-7.575-16.886-16.886v-200.262c0-9.311 7.575-16.886 16.886-16.886h3.986v192.301c0 11.503 9.358 20.861 20.861 20.861h147.101v20.871h-107.611c-4.143 0-7.5 3.358-7.5 7.5s3.357 7.5 7.5 7.5h383.892c17.582 0 31.886-14.304 31.886-31.886v-200.261c-.001-17.582-14.305-31.886-31.887-31.886zm-54.189 31.313c11.407 0 20.288-9.716 19.492-20.987-.582-8.259-1.727-16.456-3.392-24.537.733.273 1.472.543 2.194.824 9.882 3.833 16.909 13.72 16.909 24.931v159.811c-56.52-26.309-133.163-27.382-197.628 4.305v-176.982c15.1-8.101 31.33-14.387 48.363-18.732 7.619 9.698 12.64 21.249 14.428 33.542 1.479 10.162 10.419 17.825 20.798 17.825zm-169.925-78.545c15.856 0 31.197 5.304 43.63 14.992-15.266 4.508-29.884 10.504-43.63 17.915-13.746-7.411-28.364-13.406-43.63-17.915 12.433-9.688 27.774-14.992 43.63-14.992zm-85.135 58.561c-.413 2.841-2.973 4.984-5.954 4.984h-14.295c3.86-54.776 49.648-98.163 105.384-98.163s101.524 43.387 105.384 98.163h-14.295c-2.982 0-5.541-2.143-5.954-4.983-6.102-41.952-42.213-73.561-85.135-73.561-42.891-.001-79.031 31.59-85.135 73.56zm85.135-127.798c74.831 0 136.16 58.904 140.071 132.782h-19.658c-3.886-63.053-56.404-113.163-120.413-113.163s-116.527 50.11-120.413 113.163h-19.658c3.911-73.878 65.24-132.782 140.071-132.782zm-204.905 124.714c1.204-9.653 7.596-18.107 16.685-21.633.711-.276 1.439-.542 2.162-.812-1.64 8.047-2.774 16.234-3.359 24.525-.795 11.266 8.081 20.987 19.492 20.987h78.836c10.379 0 19.319-7.663 20.798-17.825 1.788-12.293 6.809-23.844 14.428-33.541 17.033 4.345 33.264 10.631 48.363 18.732v176.982c-64.332-31.622-140.976-30.675-197.628-4.306.092-173.922-.204-158.811.223-163.109zm5.638 204.917c-3.232 0-5.861-2.629-5.861-5.861v-19.211c55.436-28.826 135.818-30.184 201.478 6.53 2.264 1.263 5.051 1.26 7.334-.017 64.454-36.354 145.427-35.641 201.443-6.513v19.211c0 3.232-2.629 5.861-5.86 5.861zm236.433 35.871h-74.332v-20.871h74.332zm203.834-16.885c0 9.311-7.575 16.886-16.886 16.886h-171.948v-20.871h147.102c11.502 0 20.86-9.358 20.86-20.861v-192.302h3.986c9.311 0 16.886 7.575 16.886 16.886zm-304.451-127.175c0-4.142-3.357-7.5-7.5-7.5h-84.405c-4.143 0-7.5 3.358-7.5 7.5s3.357 7.5 7.5 7.5h84.405c4.142 0 7.5-3.358 7.5-7.5z"/></g></svg>