<svg id="Layer_1" enable-background="new 0 0 511.452 511.452" height="512" viewBox="0 0 511.452 511.452" width="512" xmlns="http://www.w3.org/2000/svg"><path d="m399.489 32.995h-290.587c-27.045 0-48.97 21.874-48.97 48.857v372.403c0 26.983 21.925 48.857 48.97 48.857h290.588v-470.117z" fill="#fef2d3"/><path d="m59.931 81.853v372.403c0 26.983 21.924 48.857 48.97 48.857h157.396c-51.333-59.135-82.178-134.769-98.191-211.724-17.627-84.713-18.637-171.857-19.33-258.393h-39.875c-27.045 0-48.97 21.874-48.97 48.857z" fill="#fee2c1"/><path d="m151.772 140.963-16.526-15.04-16.526 15.04c-7.978 7.261-20.704 1.545-20.704-9.3v-99.986c0-13.643 10.954-24.702 24.467-24.702h25.526c13.513 0 24.467 11.06 24.467 24.702v99.986c0 10.845-12.726 16.561-20.704 9.3z" fill="#ef7d92"/><path d="m237.898 460.319h-82.68c-22 0-40-18-40-40v-44.246c0-22 18-40 40-40h82.68c22 0 40 18 40 40v44.246c0 22-18 40-40 40z" fill="#fff"/><path d="m179.188 336.073h-24.185c-21.882 0-39.786 17.886-39.786 39.747v44.752c0 21.861 17.904 39.747 39.786 39.747h79.055c-24.348-38.037-42.277-80.433-54.87-124.246z" fill="#fffdde"/><path d="m450.248 65.08c0-17.72-14.398-32.085-32.159-32.085h-193.497l151.296 470.117h42.201c17.761 0 32.159-14.365 32.159-32.085z" fill="#e7bb9f"/><path d="m137.848 78.544c-7.928-21.831-12.201-48.643-8.616-71.57h-6.748c-13.513 0-24.467 11.06-24.467 24.702v99.986c0 10.844 12.726 16.56 20.704 9.3l16.526-15.04 16.526 15.04c7.864 7.157 20.332 1.702 20.687-8.841-15.262-16.643-26.265-30.592-34.612-53.577z" fill="#eb6773"/><path d="m360.775 94.412 10.774 19.68c.49.894 1.225 1.629 2.121 2.119l19.699 10.763c3.7 2.022 3.7 7.33 0 9.352l-19.699 10.763c-.895.489-1.631 1.224-2.121 2.119l-10.774 19.68c-2.023 3.696-7.337 3.696-9.361 0l-10.774-19.68c-.49-.894-1.225-1.629-2.121-2.119l-19.699-10.763c-3.7-2.022-3.7-7.33 0-9.352l19.699-10.763c.895-.489 1.631-1.224 2.121-2.119l10.774-19.68c2.023-3.696 7.337-3.696 9.361 0z" fill="#fff"/><ellipse cx="376.204" cy="258.209" fill="#f9ef90" rx="28.861" ry="28.833"/><path d="m450.37 394.856c4.143 0 7.5-3.358 7.5-7.5v-321.292c0-21.821-17.753-39.574-39.574-39.574h-238.61c-2.666-15.033-15.818-26.49-31.604-26.49h-25.671c-16.991 0-30.933 13.27-32.028 29.989-21.463 7.962-36.8 28.643-36.8 52.842v372.281c0 31.066 25.274 56.341 56.341 56.341h308.372c21.821 0 39.574-17.753 39.574-39.575v-54.391c0-4.142-3.357-7.5-7.5-7.5s-7.5 3.358-7.5 7.5v54.391c0 13.55-11.024 24.575-24.574 24.575h-36.62l-146.082-454.963h182.701c13.55 0 24.574 11.024 24.574 24.574v321.292c.001 4.143 3.358 7.5 7.501 7.5zm-327.959-379.856h25.671c9.432 0 17.105 7.674 17.105 17.106v99.596c0 4.242-5.13 6.55-8.3 3.692l-16.62-14.981c-2.817-2.539-7.226-2.539-10.043 0l-16.619 14.981c-3.17 2.855-8.3.551-8.3-3.692v-99.596c0-9.432 7.674-17.106 17.106-17.106zm243.511 481.452h-255.999c-22.795 0-41.341-18.545-41.341-41.341v-372.281c0-15.7 8.799-29.382 21.723-36.38v85.252c0 8.002 4.542 14.994 11.854 18.247 7.311 3.253 15.547 1.944 21.489-3.413l11.598-10.455 11.599 10.455c6.396 5.766 15.8 6.748 23.287 2.507 6.227-3.526 10.055-10.196 10.055-17.341v-90.212h39.653z"/><path d="m155.39 328.348c-26.191 0-47.5 21.309-47.5 47.5v45.037c0 26.191 21.309 47.5 47.5 47.5h83.556c26.191 0 47.5-21.309 47.5-47.5v-45.037c0-26.191-21.309-47.5-47.5-47.5zm116.056 47.5v45.037c0 17.92-14.579 32.5-32.5 32.5h-83.556c-17.921 0-32.5-14.58-32.5-32.5v-45.037c0-17.92 14.579-32.5 32.5-32.5h83.556c17.921 0 32.5 14.58 32.5 32.5z"/><path d="m158.832 371.113c-4.143 0-7.5 3.358-7.5 7.5s3.357 7.5 7.5 7.5h78.147c4.143 0 7.5-3.358 7.5-7.5s-3.357-7.5-7.5-7.5z"/><path d="m236.979 410.62h-78.147c-4.143 0-7.5 3.358-7.5 7.5s3.357 7.5 7.5 7.5h78.147c4.143 0 7.5-3.358 7.5-7.5s-3.357-7.5-7.5-7.5z"/><path d="m356.094 83.95c-5.006 0-9.607 2.729-12.01 7.121l-10.101 18.468-18.47 10.101c-4.392 2.402-7.119 7.004-7.119 12.01s2.728 9.607 7.12 12.01l18.469 10.101 10.101 18.469c2.402 4.392 7.004 7.12 12.01 7.12s9.607-2.729 12.01-7.121l10.101-18.468 18.47-10.101c4.392-2.402 7.119-7.004 7.119-12.01s-2.728-9.607-7.12-12.01l-18.469-10.101-10.101-18.469c-2.402-4.392-7.004-7.12-12.01-7.12zm14.576 38.565 16.702 9.135-16.703 9.135c-2.3 1.258-4.181 3.139-5.44 5.441l-9.135 16.702-9.133-16.699c-1.258-2.302-3.14-4.184-5.443-5.444l-16.702-9.135 16.703-9.135c2.303-1.26 4.185-3.143 5.44-5.441l9.135-16.702 9.136 16.704c1.259 2.299 3.14 4.18 5.44 5.439z"/><path d="m376.204 295.248c20.424 0 37.039-16.616 37.039-37.04 0-20.423-16.615-37.039-37.039-37.039s-37.039 16.616-37.039 37.039c0 20.424 16.615 37.04 37.039 37.04zm0-59.079c12.152 0 22.039 9.887 22.039 22.039 0 12.153-9.887 22.04-22.039 22.04s-22.039-9.887-22.039-22.04c0-12.152 9.886-22.039 22.039-22.039z"/></svg>