<?xml version="1.0" encoding="iso-8859-1"?>
<!-- Generator: Adobe Illustrator 19.0.0, SVG Export Plug-In . SVG Version: 6.00 Build 0)  -->
<svg version="1.1" id="Capa_1" xmlns="http://www.w3.org/2000/svg" xmlns:xlink="http://www.w3.org/1999/xlink" x="0px" y="0px"
	 viewBox="0 0 512.001 512.001" style="enable-background:new 0 0 512.001 512.001;" xml:space="preserve">
<path style="fill:#FFF0C0;" d="M485.233,197.163l13.803-13.08c3.488-3.305,5.464-7.9,5.464-12.705V93.055
	c0-9.033-7.323-16.356-16.356-16.356H378.526c-6.75,0-12.993,3.579-16.404,9.403l-4.607,7.866
	c-2.656,4.535-8.749,5.598-12.784,2.232l-16.076-13.41c-4.718-3.935-10.667-6.091-16.81-6.091H80.46L7.5,149.658v269.289
	c0,9.033,7.323,16.356,16.356,16.356h39.093c5.014,0,9.745-2.324,12.81-6.293l9.261-11.995c2.425-3.141,7.035-3.497,9.913-0.765
	l16.058,15.241c2.579,2.448,6,3.813,9.556,3.813h25.228c6.124,0,11.709-3.503,14.376-9.016l9.552-19.747
	c2.321-4.798,8.929-5.368,12.037-1.039l15.771,21.963c3.533,4.921,9.22,7.838,15.278,7.838h275.356
	c9.033,0,16.356-7.323,16.356-16.356V231.783c0-5.902-2.975-11.407-7.912-14.642l-10.163-6.658
	C481.823,207.468,481.239,200.948,485.233,197.163z"/>
<g>
	<path style="fill:#DC7070;" d="M430.427,218.102c-1.919,0-3.839-0.732-5.304-2.196l-57.433-57.434
		c-2.929-2.93-2.929-7.678,0-10.607c2.93-2.928,7.678-2.928,10.607,0l57.434,57.434c2.929,2.93,2.929,7.678,0,10.607
		C434.266,217.369,432.346,218.102,430.427,218.102z"/>
	<path style="fill:#DC7070;" d="M372.993,218.102c-1.919,0-3.839-0.732-5.304-2.196c-2.929-2.93-2.929-7.678,0-10.607l57.433-57.434
		c2.93-2.928,7.678-2.928,10.608,0c2.929,2.93,2.929,7.678,0,10.607l-57.434,57.434
		C376.832,217.369,374.912,218.102,372.993,218.102z"/>
</g>
<path style="fill:#A28577;" d="M204.068,251.884c-5.496-5.707-9.287-12.826-9.287-20.749v-69.851
	c0-6.862-5.563-12.425-12.425-12.425h-54.198c-6.862,0-12.425,5.563-12.425,12.425v11.019c0,1.987-1.611,3.597-3.597,3.597H94.028
	c-5.857,0-10.604,4.748-10.604,10.604v69.99h118.678C204.511,256.495,205.726,253.606,204.068,251.884z"/>
<path style="opacity:0.1;enable-background:new    ;" d="M107.217,175.9H94.029c-5.857,0-10.605,4.748-10.605,10.604v69.991h66.864
	C117.953,246.888,108.527,198.371,107.217,175.9z"/>
<path style="fill:#DDAF89;" d="M146.206,252.147L146.206,252.147c-4.48-6.038-6.899-13.357-6.899-20.876v-14.894
	c0-5.543-4.494-10.037-10.037-10.037H68.202c-5.543,0-10.037,4.494-10.037,10.037v14.894c0,7.519-2.419,14.838-6.899,20.876l0,0
	c-1.334,1.798-0.051,4.348,2.188,4.348h90.564C146.257,256.495,147.54,253.945,146.206,252.147z"/>
<g style="opacity:0.1;">
	<path d="M143.054,185.931c-4.021,0-7.28-3.259-7.28-7.28v-8.954c0-4.021,3.259-7.28,7.28-7.28s7.28,3.259,7.28,7.28v8.954
		C150.335,182.672,147.076,185.931,143.054,185.931z"/>
	<path d="M170.133,224.047c-4.021,0-7.28-3.259-7.28-7.28v-17.628c0-4.021,3.259-7.28,7.28-7.28s7.28,3.259,7.28,7.28v17.628
		C177.413,220.788,174.154,224.047,170.133,224.047z"/>
	<path d="M105.386,229.748c4.021,0,7.28-3.259,7.28-7.28V206.34H98.105v16.128C98.105,226.488,101.364,229.748,105.386,229.748z"/>
</g>
<path style="fill:#84AC83;" d="M432.225,404.993c4.112,0,7.942-2.107,10.156-5.572c29.903-46.811,11.885-80.145-22.207-80.145
	s-52.11,33.334-22.207,80.145c2.214,3.465,6.044,5.572,10.156,5.572H432.225z"/>
<path style="opacity:0.1;enable-background:new    ;" d="M408.122,404.993h22.163c-27.568-12.469-34.985-61.245-28.891-81.624
	c-20.707,10.252-27.155,38.907-3.427,76.052C400.18,402.886,404.011,404.993,408.122,404.993z"/>
<path style="fill:#84AC83;" d="M272.14,176.581c2.268,0,4.381-1.162,5.602-3.073c16.493-25.82,6.555-44.205-12.249-44.205
	s-28.742,18.386-12.249,44.205c1.221,1.911,3.334,3.073,5.602,3.073H272.14z"/>
<path style="opacity:0.1;enable-background:new    ;" d="M258.845,176.581h9.169c-12.78-6.518-15.135-32.839-12.003-45.43
	c-12.11,5.269-16.185,21.352-2.768,42.356C254.465,175.419,256.578,176.581,258.845,176.581z"/>
<path style="opacity:0.1;enable-background:new    ;" d="M78.122,206.34h-9.919c-5.544,0-10.037,4.494-10.037,10.037v14.894
	c0,7.519-2.419,14.838-6.9,20.876l0,0c-1.334,1.798-0.051,4.348,2.188,4.348h44.104C80.994,244.753,78.493,216.921,78.122,206.34z"
	/>
<path style="opacity:0.1;enable-background:new    ;" d="M131.473,76.699H80.46L7.5,149.658v269.289
	c0,9.033,7.323,16.356,16.356,16.356h39.093c5.014,0,9.745-2.324,12.81-6.293l9.261-11.995c2.425-3.142,7.035-3.497,9.913-0.765
	l16.058,15.241c2.58,2.448,6,3.813,9.556,3.813h25.227c6.125,0,11.71-3.503,14.376-9.016l9.552-19.747
	c2.321-4.798,8.928-5.368,12.037-1.039l15.771,21.963c3.533,4.92,9.22,7.838,15.278,7.838h33.794
	C110.409,309.607,112.177,157.52,131.473,76.699z"/>
<g style="opacity:0.1;">
	<path d="M286.945,404.647c-1.919,0-3.839-0.732-5.304-2.196c-2.929-2.93-2.929-7.678,0-10.607l16.738-16.738
		c2.93-2.928,7.678-2.928,10.607,0c2.929,2.93,2.929,7.678,0,10.607l-16.738,16.738
		C290.784,403.914,288.864,404.647,286.945,404.647z"/>
	<path d="M295.315,369.635c-1.919,0-3.839-0.732-5.303-2.196c-2.93-2.929-2.93-7.678-0.001-10.606l12.432-12.433
		c2.93-2.93,7.679-2.929,10.606-0.001c2.93,2.929,2.93,7.678,0.001,10.606l-12.432,12.433
		C299.153,368.902,297.233,369.635,295.315,369.635z"/>
	<path d="M53.85,326.776c-1.919,0-3.839-0.732-5.304-2.196c-2.929-2.93-2.929-7.678,0-10.607l16.055-16.055
		c2.93-2.928,7.678-2.928,10.607,0c2.929,2.93,2.929,7.678,0,10.607L59.153,324.58C57.688,326.044,55.769,326.776,53.85,326.776z"/>
	<path d="M173.694,117.769c-1.919,0-3.839-0.732-5.304-2.196c-2.929-2.93-2.929-7.678,0-10.607L178.956,94.4
		c2.93-2.928,7.678-2.928,10.607,0c2.929,2.93,2.929,7.678,0,10.607l-10.566,10.566
		C177.533,117.036,175.613,117.769,173.694,117.769z"/>
</g>
<path style="fill:#DDAF89;" d="M65.716,145.959L65.716,145.959c-14.269-3.581-29.203-3.581-43.472,0l-14.744,3.7l0,0
	C7.5,109.365,40.165,76.7,80.46,76.7l0,0l-2.837,14.934c-2.704,14.237-2.704,28.855,0,43.092l0,0
	C78.947,141.694,72.596,147.685,65.716,145.959z"/>
<path d="M130.997,324.487c-3.183,1.97-11.19,8.173-13.389,10.371c-2.925,2.926-2.92,7.657,0,10.588
	c1.463,1.468,3.385,2.201,5.309,2.201c1.916,0,3.833-0.728,5.298-2.182c1.221-1.212,8.221-6.704,10.677-8.225
	c3.522-2.181,4.61-6.803,2.43-10.324C139.142,323.394,134.519,322.31,130.997,324.487z M97.021,357.853
	c-2.268,3.448-4.041,6.796-5.271,9.949c-1.505,3.858,0.402,8.207,4.262,9.713c0.896,0.35,1.817,0.515,2.724,0.515
	c3,0,5.833-1.813,6.989-4.776c0.849-2.177,2.138-4.585,3.83-7.158c2.275-3.461,1.315-8.111-2.146-10.388
	C103.95,353.433,99.298,354.393,97.021,357.853z M504.5,140.584c-4.143,0-7.5,3.357-7.5,7.5v23.294c0,2.734-1.138,5.381-3.123,7.261
	l-13.803,13.081c-3.578,3.391-5.378,8.15-4.938,13.061c0.439,4.909,3.057,9.274,7.18,11.977l10.163,6.657
	c2.831,1.855,4.522,4.983,4.522,8.368v187.165c0,4.883-3.973,8.855-8.855,8.855H212.788c-3.633,0-7.066-1.762-9.186-4.712
	l-15.77-21.964c-3.018-4.201-7.883-6.445-13.052-6.001c-5.154,0.444-9.576,3.49-11.83,8.148l-9.552,19.747
	c-1.404,2.904-4.397,4.781-7.624,4.781h-25.228c-1.643,0-3.203-0.622-4.394-1.752l-16.059-15.242
	c-2.909-2.761-6.882-4.171-10.867-3.856c-3.997,0.309-7.695,2.306-10.146,5.479l-9.261,11.994c-1.633,2.114-4.202,3.377-6.873,3.377
	H23.855c-4.883,0-8.855-3.973-8.855-8.855v-17.464c0-4.143-3.357-7.5-7.5-7.5s-7.5,3.357-7.5,7.5v17.464
	c0,13.154,10.701,23.855,23.855,23.855h39.093c7.285,0,14.293-3.442,18.746-9.21l8.719-11.293l15.414,14.63
	c3.989,3.787,9.217,5.873,14.72,5.873h25.228c8.941,0,17.234-5.201,21.128-13.25l9.207-19.034l15.309,21.32
	c4.929,6.865,12.917,10.964,21.369,10.964h275.356c13.154,0,23.855-10.701,23.855-23.855V231.782
	c0-8.461-4.226-16.279-11.303-20.915l-10.161-6.657c-0.276-0.181-0.431-0.439-0.46-0.767s0.077-0.609,0.316-0.836l13.803-13.08
	c4.96-4.701,7.805-11.316,7.805-18.149v-23.294C512,143.941,508.643,140.584,504.5,140.584z M176.034,300.281
	c-4.95,1.404-18.815,8.031-21.664,10.147c-3.325,2.47-4.019,7.167-1.549,10.492c1.472,1.982,3.734,3.028,6.026,3.028
	c1.524,0,3.061-0.463,4.388-1.422c1.945-1.271,13.4-6.824,16.895-7.816c3.984-1.131,6.298-5.277,5.167-9.263
	C184.166,301.465,180.021,299.149,176.034,300.281z M196.922,302.7c1.027,3.173,3.969,5.19,7.133,5.19
	c0.74,0,1.492-0.11,2.235-0.342c1.803-0.485,12.36-2.176,16.855-2.176h0.005c4.142,0,7.499-3.358,7.5-7.499
	c0.001-4.142-3.357-7.5-7.499-7.501h-0.005c-5.758,0-18.386,1.903-21.401,2.881C197.805,294.53,195.645,298.76,196.922,302.7z
	 M182.355,141.358h-54.198c-10.986,0-19.925,8.938-19.925,19.925v7.116H94.028c-9.982,0-18.104,8.122-18.104,18.105v12.335h-7.722
	c-9.67,0-17.537,7.867-17.537,17.537v14.893c0,5.868-1.926,11.694-5.423,16.407c-2.315,3.121-2.669,7.217-0.922,10.688
	c1.747,3.472,5.247,5.629,9.134,5.629h148.647c4.107,0,7.801-2.442,9.408-6.221c1.608-3.781,0.809-8.135-2.039-11.093
	c-3.28-3.406-7.189-8.867-7.189-15.547V161.28C202.281,150.297,193.343,141.358,182.355,141.358z M61.783,248.995
	c2.532-5.541,3.882-11.619,3.882-17.725v-14.893c0-1.399,1.138-2.537,2.537-2.537h61.067c1.399,0,2.537,1.138,2.537,2.537v14.893
	c0,6.105,1.35,12.184,3.882,17.725H61.783z M153.053,248.995c-0.241-0.453-0.511-0.895-0.824-1.317c0,0,0,0,0-0.001
	c-3.497-4.712-5.423-10.538-5.423-16.406v-14.893c0-9.67-7.867-17.537-17.537-17.537H90.924v-12.335
	c0-1.712,1.393-3.105,3.104-3.105h18.107c6.119,0,11.098-4.978,11.098-11.097v-11.02c0-2.716,2.209-4.925,4.925-4.925h54.198
	c2.716,0,4.926,2.209,4.926,4.925v69.852c0,6.17,1.754,12.22,5.135,17.86L153.053,248.995L153.053,248.995z M399.663,239.542
	c0.381,0.058,0.76,0.086,1.134,0.086c3.646,0,6.843-2.662,7.405-6.377c0.516-3.398,0.852-6.92,1.001-10.469
	c0.174-4.139-3.04-7.635-7.178-7.809c-4.134-0.178-7.635,3.041-7.809,7.178c-0.127,3.011-0.411,5.988-0.845,8.852
	C392.751,235.099,395.567,238.922,399.663,239.542z M373.07,363.856l3.388,3.388c2.112,11.422,7.208,23.722,15.187,36.214
	c3.613,5.657,9.772,9.034,16.477,9.034h24.103c6.703,0,12.862-3.377,16.477-9.034c15.773-24.69,20.288-48.639,12.728-66.516
	l1.408-1.408c2.93-2.929,2.93-7.678,0.001-10.606c-2.696-2.696-6.93-2.904-9.871-0.638c-8.022-8.051-19.48-12.514-32.794-12.514
	c-17.614,0-31.991,7.802-39.443,21.405c-3.027,5.526-4.76,11.74-5.244,18.451c-0.878,0.366-1.702,0.903-2.416,1.617
	C370.142,356.179,370.142,360.927,373.07,363.856z M393.886,340.389c4.809-8.778,14.145-13.612,26.288-13.612
	c9.275,0,16.904,2.828,22.137,8.072l-6.857,6.857c-2.93,2.929-2.93,7.678-0.001,10.606c1.465,1.465,3.384,2.197,5.304,2.197
	c1.919,0,3.839-0.732,5.303-2.196l3.396-3.396c2.385,12.633-2.244,29.011-13.394,46.466c-0.844,1.32-2.277,2.109-3.836,2.109
	h-24.103c-1.558,0-2.991-0.788-3.835-2.108c-3.62-5.668-6.547-11.22-8.776-16.569c0.646-0.342,1.254-0.784,1.798-1.327
	c2.929-2.93,2.929-7.678,0-10.607l-6.807-6.807C389.768,352.583,390.868,345.896,393.886,340.389z M385.243,254.915
	c-1.418,3.213-7.838,10.933-9.596,12.839c-2.821,3.027-2.658,7.769,0.366,10.595c1.446,1.351,3.284,2.02,5.118,2.02
	c2.005,0,4.005-0.799,5.482-2.38c0.092-0.098,9.462-10.47,12.352-17.015c1.673-3.79-0.043-8.218-3.832-9.891
	C391.343,249.411,386.916,251.127,385.243,254.915z M288.978,133.375c-4.958-7.379-13.38-11.572-23.486-11.572
	c-3.4,0-6.609,0.476-9.562,1.385c-0.847-0.332-1.766-0.52-2.731-0.52c-3.724,0-6.805,2.716-7.391,6.274
	c-1.981,1.826-3.68,3.966-5.021,6.414c-6.106,11.147-3.87,26.524,6.137,42.188c2.613,4.093,7.07,6.536,11.922,6.536h13.294
	c4.852,0,9.309-2.443,11.922-6.536c6.581-10.302,9.778-20.471,9.474-29.404l2.087-2.088c2.929-2.93,2.929-7.678,0-10.607
	C293.815,133.64,291.316,132.952,288.978,133.375z M271.667,169.081h-12.35c-4.943-7.858-7.319-15.321-6.876-21.115
	c0.249,0.025,0.502,0.038,0.757,0.038c4.143,0,7.5-3.357,7.5-7.5v-3.066c1.773-0.502,3.499-0.635,4.793-0.635
	c3.135,0,8.805,0.748,11.551,5.761c0.125,0.227,0.227,0.471,0.336,0.709c-1.996,2.92-1.703,6.935,0.889,9.528
	c0.014,0.014,0.029,0.025,0.043,0.039C277.56,157.698,275.316,163.281,271.667,169.081z M488.145,69.199H378.526
	c-9.374,0-18.14,5.025-22.876,13.111l-4.608,7.867c-0.155,0.266-0.388,0.427-0.691,0.48c-0.304,0.052-0.578-0.022-0.815-0.219
	L333.46,77.031c-6.055-5.051-13.73-7.832-21.614-7.832H80.46C36.094,69.199,0,105.293,0,149.658v216.693c0,4.143,3.357,7.5,7.5,7.5
	s7.5-3.357,7.5-7.5V155.509l9.07-2.276c13.025-3.27,26.795-3.27,39.82,0c5.723,1.436,11.708-0.123,16.002-4.175
	c4.295-4.052,6.201-9.933,5.099-15.732c-2.539-13.368-2.539-26.925,0-40.293l1.678-8.833h225.177c4.379,0,8.643,1.545,12.006,4.351
	l16.075,13.408c3.621,3.021,8.361,4.284,13.005,3.477c4.644-0.812,8.674-3.61,11.055-7.677l4.608-7.866
	c2.057-3.511,5.862-5.692,9.933-5.692h109.618c4.883,0,8.855,3.973,8.855,8.856v19.722c0,4.143,3.357,7.5,7.5,7.5s7.5-3.357,7.5-7.5
	V93.055C512,79.9,501.299,69.199,488.145,69.199z M70.255,136.125c0.197,1.036-0.326,1.712-0.655,2.023
	c-0.329,0.311-1.032,0.795-2.058,0.536c0,0,0,0-0.001,0c-15.413-3.869-31.709-3.869-47.122,0l-4.688,1.176
	c4.292-28.473,26.989-50.993,55.548-55.019l-1.024,5.393C67.363,105.459,67.363,120.898,70.255,136.125z M342.068,304.343
	c0.809,0,1.631-0.132,2.438-0.409c0.152-0.053,15.297-5.279,19.61-8.762c3.223-2.602,3.727-7.324,1.125-10.547
	c-2.583-3.2-7.255-3.72-10.478-1.181c-1.902,1.303-10.929,4.859-15.133,6.304c-3.917,1.346-6.002,5.613-4.655,9.53
	C336.045,302.389,338.954,304.343,342.068,304.343z M287.539,304.199c0.033,4.122,3.385,7.44,7.499,7.44h0.061
	c0.141-0.001,15.165-0.292,21.245-1.288c4.088-0.67,6.859-4.526,6.189-8.613c-0.67-4.088-4.531-6.866-8.613-6.189
	c-4.096,0.671-16.387,1.071-18.94,1.091C290.838,296.673,287.507,300.057,287.539,304.199z M264.736,294.024
	c-10.304-2.034-13.22-2.531-14.858-2.531c-4.143,0-7.5,3.357-7.5,7.5c0,4.06,3.226,7.365,7.253,7.496
	c1.615,0.161,8.747,1.569,12.2,2.251c3.764,0.743,5.146,1.012,5.883,1.108c0.333,0.044,0.664,0.065,0.991,0.065
	c3.708,0,6.949-2.744,7.447-6.518c0.541-4.106-2.327-7.872-6.434-8.413C269.201,294.905,266.829,294.437,264.736,294.024z"/>
<g>
</g>
<g>
</g>
<g>
</g>
<g>
</g>
<g>
</g>
<g>
</g>
<g>
</g>
<g>
</g>
<g>
</g>
<g>
</g>
<g>
</g>
<g>
</g>
<g>
</g>
<g>
</g>
<g>
</g>
</svg>
